<svg xmlns="http://www.w3.org/2000/svg" xmlns:xlink="http://www.w3.org/1999/xlink" width="338" zoomAndPan="magnify" viewBox="0 0 253.5 173.999997" height="232" preserveAspectRatio="xMidYMid meet" version="1.0"><defs><clipPath id="b88cf6a83c"><path d="M 148 11 L 231 11 L 231 93 L 148 93 Z M 148 11 " clip-rule="nonzero"/></clipPath><clipPath id="0ffec3123f"><path d="M 136.832031 23.707031 L 218.859375 0.199219 L 242.164062 81.507812 L 160.132812 105.015625 Z M 136.832031 23.707031 " clip-rule="nonzero"/></clipPath><clipPath id="08d95f4fc2"><path d="M 136.832031 23.707031 L 218.859375 0.199219 L 242.164062 81.507812 L 160.132812 105.015625 Z M 136.832031 23.707031 " clip-rule="nonzero"/></clipPath><clipPath id="86b0d4bcca"><path d="M 147 9 L 232 9 L 232 95 L 147 95 Z M 147 9 " clip-rule="nonzero"/></clipPath><clipPath id="01570b04d8"><path d="M 136.832031 23.707031 L 218.859375 0.199219 L 242.164062 81.507812 L 160.132812 105.015625 Z M 136.832031 23.707031 " clip-rule="nonzero"/></clipPath><clipPath id="ec51cd83fa"><path d="M 136.832031 23.707031 L 218.859375 0.199219 L 242.164062 81.507812 L 160.132812 105.015625 Z M 136.832031 23.707031 " clip-rule="nonzero"/></clipPath><clipPath id="9ce6b54eb7"><path d="M 181 59 L 202 59 L 202 66 L 181 66 Z M 181 59 " clip-rule="nonzero"/></clipPath><clipPath id="be5b3ed054"><path d="M 136.832031 23.707031 L 218.859375 0.199219 L 242.164062 81.507812 L 160.132812 105.015625 Z M 136.832031 23.707031 " clip-rule="nonzero"/></clipPath><clipPath id="963e3cbd06"><path d="M 136.832031 23.707031 L 218.859375 0.199219 L 242.164062 81.507812 L 160.132812 105.015625 Z M 136.832031 23.707031 " clip-rule="nonzero"/></clipPath><clipPath id="9606ce235c"><path d="M 193 46 L 204 46 L 204 54 L 193 54 Z M 193 46 " clip-rule="nonzero"/></clipPath><clipPath id="8391938e44"><path d="M 136.832031 23.707031 L 218.859375 0.199219 L 242.164062 81.507812 L 160.132812 105.015625 Z M 136.832031 23.707031 " clip-rule="nonzero"/></clipPath><clipPath id="a4c78bbe30"><path d="M 136.832031 23.707031 L 218.859375 0.199219 L 242.164062 81.507812 L 160.132812 105.015625 Z M 136.832031 23.707031 " clip-rule="nonzero"/></clipPath><clipPath id="99682f1d5c"><path d="M 176 51 L 186 51 L 186 59 L 176 59 Z M 176 51 " clip-rule="nonzero"/></clipPath><clipPath id="69c0e5fe13"><path d="M 136.832031 23.707031 L 218.859375 0.199219 L 242.164062 81.507812 L 160.132812 105.015625 Z M 136.832031 23.707031 " clip-rule="nonzero"/></clipPath><clipPath id="ff2aa83606"><path d="M 136.832031 23.707031 L 218.859375 0.199219 L 242.164062 81.507812 L 160.132812 105.015625 Z M 136.832031 23.707031 " clip-rule="nonzero"/></clipPath><clipPath id="52de43e25e"><path d="M 24 60 L 113 60 L 113 149 L 24 149 Z M 24 60 " clip-rule="nonzero"/></clipPath><clipPath id="c1212514b6"><path d="M 48.371094 36.378906 L 137.03125 84.863281 L 88.546875 173.523438 L -0.113281 125.039062 Z M 48.371094 36.378906 " clip-rule="nonzero"/></clipPath><clipPath id="57ea21d7e7"><path d="M 48.371094 36.378906 L 137.03125 84.863281 L 88.546875 173.523438 L -0.113281 125.039062 Z M 48.371094 36.378906 " clip-rule="nonzero"/></clipPath><clipPath id="8473154235"><path d="M 22 59 L 115 59 L 115 151 L 22 151 Z M 22 59 " clip-rule="nonzero"/></clipPath><clipPath id="c4da761d99"><path d="M 48.371094 36.378906 L 137.03125 84.863281 L 88.546875 173.523438 L -0.113281 125.039062 Z M 48.371094 36.378906 " clip-rule="nonzero"/></clipPath><clipPath id="08d7315199"><path d="M 48.371094 36.378906 L 137.03125 84.863281 L 88.546875 173.523438 L -0.113281 125.039062 Z M 48.371094 36.378906 " clip-rule="nonzero"/></clipPath><clipPath id="031bc270e9"><path d="M 66 70 L 71 70 L 71 92 L 66 92 Z M 66 70 " clip-rule="nonzero"/></clipPath><clipPath id="5909b4e2a4"><path d="M 48.371094 36.378906 L 137.03125 84.863281 L 88.546875 173.523438 L -0.113281 125.039062 Z M 48.371094 36.378906 " clip-rule="nonzero"/></clipPath><clipPath id="294008f48b"><path d="M 48.371094 36.378906 L 137.03125 84.863281 L 88.546875 173.523438 L -0.113281 125.039062 Z M 48.371094 36.378906 " clip-rule="nonzero"/></clipPath><clipPath id="f35c1f33ec"><path d="M 72 74 L 77 74 L 77 91 L 72 91 Z M 72 74 " clip-rule="nonzero"/></clipPath><clipPath id="51a38524ad"><path d="M 48.371094 36.378906 L 137.03125 84.863281 L 88.546875 173.523438 L -0.113281 125.039062 Z M 48.371094 36.378906 " clip-rule="nonzero"/></clipPath><clipPath id="42c1427fcd"><path d="M 48.371094 36.378906 L 137.03125 84.863281 L 88.546875 173.523438 L -0.113281 125.039062 Z M 48.371094 36.378906 " clip-rule="nonzero"/></clipPath><clipPath id="9eb188a6d1"><path d="M 78 86 L 98 86 L 98 98 L 78 98 Z M 78 86 " clip-rule="nonzero"/></clipPath><clipPath id="1ae9d11e41"><path d="M 48.371094 36.378906 L 137.03125 84.863281 L 88.546875 173.523438 L -0.113281 125.039062 Z M 48.371094 36.378906 " clip-rule="nonzero"/></clipPath><clipPath id="4b6ed56963"><path d="M 48.371094 36.378906 L 137.03125 84.863281 L 88.546875 173.523438 L -0.113281 125.039062 Z M 48.371094 36.378906 " clip-rule="nonzero"/></clipPath><clipPath id="240b3a539b"><path d="M 77 82 L 91 82 L 91 93 L 77 93 Z M 77 82 " clip-rule="nonzero"/></clipPath><clipPath id="abd01b1451"><path d="M 48.371094 36.378906 L 137.03125 84.863281 L 88.546875 173.523438 L -0.113281 125.039062 Z M 48.371094 36.378906 " clip-rule="nonzero"/></clipPath><clipPath id="505d31507f"><path d="M 48.371094 36.378906 L 137.03125 84.863281 L 88.546875 173.523438 L -0.113281 125.039062 Z M 48.371094 36.378906 " clip-rule="nonzero"/></clipPath><clipPath id="939dd56ccf"><path d="M 34 78 L 66 78 L 66 126 L 34 126 Z M 34 78 " clip-rule="nonzero"/></clipPath><clipPath id="174841fe9c"><path d="M 48.371094 36.378906 L 137.03125 84.863281 L 88.546875 173.523438 L -0.113281 125.039062 Z M 48.371094 36.378906 " clip-rule="nonzero"/></clipPath><clipPath id="6ca2ec90c6"><path d="M 48.371094 36.378906 L 137.03125 84.863281 L 88.546875 173.523438 L -0.113281 125.039062 Z M 48.371094 36.378906 " clip-rule="nonzero"/></clipPath><clipPath id="cc6e636cc8"><path d="M 64 98 L 102 98 L 102 137 L 64 137 Z M 64 98 " clip-rule="nonzero"/></clipPath><clipPath id="783185214d"><path d="M 48.371094 36.378906 L 137.03125 84.863281 L 88.546875 173.523438 L -0.113281 125.039062 Z M 48.371094 36.378906 " clip-rule="nonzero"/></clipPath><clipPath id="539fe965c5"><path d="M 48.371094 36.378906 L 137.03125 84.863281 L 88.546875 173.523438 L -0.113281 125.039062 Z M 48.371094 36.378906 " clip-rule="nonzero"/></clipPath><clipPath id="07b42f3370"><path d="M 101.179688 51.039062 L 172.535156 51.039062 L 172.535156 122.253906 L 101.179688 122.253906 Z M 101.179688 51.039062 " clip-rule="nonzero"/></clipPath><clipPath id="1567f6a44b"><path d="M 171.34375 86.648438 C 171.34375 82.933594 173.191406 78.988281 172.054688 75.640625 C 170.886719 72.167969 166.929688 70.03125 164.75 67.144531 C 162.542969 64.222656 161.632812 59.96875 158.601562 57.847656 C 155.597656 55.753906 151.109375 56.222656 147.507812 55.082031 C 144.019531 54 140.703125 51.039062 136.84375 51.039062 C 132.988281 51.039062 129.65625 53.988281 126.183594 55.082031 C 122.578125 56.207031 118.082031 55.738281 115.078125 57.847656 C 112.042969 59.96875 111.132812 64.222656 108.925781 67.144531 C 106.734375 70.03125 102.789062 72.167969 101.609375 75.640625 C 100.484375 78.988281 102.320312 82.933594 102.320312 86.648438 C 102.320312 90.363281 100.46875 94.308594 101.609375 97.652344 C 102.777344 101.125 106.734375 103.261719 108.910156 106.152344 C 111.117188 109.070312 112.03125 113.328125 115.0625 115.449219 C 118.066406 117.558594 122.550781 117.085938 126.167969 118.210938 C 129.65625 119.292969 132.972656 122.253906 136.832031 122.253906 C 140.691406 122.253906 144.019531 119.308594 147.496094 118.210938 C 151.097656 117.085938 155.597656 117.558594 158.601562 115.449219 C 161.632812 113.328125 162.542969 109.070312 164.75 106.152344 C 166.941406 103.261719 170.886719 101.125 172.054688 97.652344 C 173.191406 94.292969 171.34375 90.347656 171.34375 86.648438 Z M 171.34375 86.648438 " clip-rule="nonzero"/></clipPath><clipPath id="de92a8f165"><path d="M 115 65 L 159 65 L 159 109 L 115 109 Z M 115 65 " clip-rule="nonzero"/></clipPath><clipPath id="7083fb7447"><path d="M 121.976562 60.90625 L 163.292969 72.386719 L 151.8125 113.699219 L 110.5 102.222656 Z M 121.976562 60.90625 " clip-rule="nonzero"/></clipPath><clipPath id="76bee728f1"><path d="M 121.976562 60.90625 L 163.292969 72.386719 L 151.8125 113.699219 L 110.5 102.222656 Z M 121.976562 60.90625 " clip-rule="nonzero"/></clipPath><clipPath id="b7b9dc2e61"><path d="M 121.976562 60.90625 L 163.292969 72.386719 L 151.8125 113.699219 L 110.5 102.222656 Z M 121.976562 60.90625 " clip-rule="nonzero"/></clipPath><clipPath id="61c9299672"><path d="M 96 97 L 180 97 L 180 158 L 96 158 Z M 96 97 " clip-rule="nonzero"/></clipPath><clipPath id="fb88f352b3"><path d="M 90.84375 126.695312 L 176.832031 91.75 L 195.714844 138.210938 L 109.726562 173.15625 Z M 90.84375 126.695312 " clip-rule="nonzero"/></clipPath><clipPath id="a67017cefb"><path d="M 90.84375 126.695312 L 176.832031 91.75 L 195.714844 138.210938 L 109.726562 173.15625 Z M 90.84375 126.695312 " clip-rule="nonzero"/></clipPath><clipPath id="cc9249dce8"><path d="M 94 95 L 182 95 L 182 160 L 94 160 Z M 94 95 " clip-rule="nonzero"/></clipPath><clipPath id="76149212ec"><path d="M 90.84375 126.695312 L 176.832031 91.75 L 195.714844 138.210938 L 109.726562 173.15625 Z M 90.84375 126.695312 " clip-rule="nonzero"/></clipPath><clipPath id="520af19d28"><path d="M 90.84375 126.695312 L 176.832031 91.75 L 195.714844 138.210938 L 109.726562 173.15625 Z M 90.84375 126.695312 " clip-rule="nonzero"/></clipPath><clipPath id="7c86b20111"><path d="M 122 122 L 138 122 L 138 138 L 122 138 Z M 122 122 " clip-rule="nonzero"/></clipPath><clipPath id="83fdf8b2df"><path d="M 90.84375 126.695312 L 176.832031 91.75 L 195.714844 138.210938 L 109.726562 173.15625 Z M 90.84375 126.695312 " clip-rule="nonzero"/></clipPath><clipPath id="391dea0e3c"><path d="M 90.84375 126.695312 L 176.832031 91.75 L 195.714844 138.210938 L 109.726562 173.15625 Z M 90.84375 126.695312 " clip-rule="nonzero"/></clipPath><clipPath id="47b7081581"><path d="M 125 122 L 138 122 L 138 136 L 125 136 Z M 125 122 " clip-rule="nonzero"/></clipPath><clipPath id="acd086bcaa"><path d="M 90.84375 126.695312 L 176.832031 91.75 L 195.714844 138.210938 L 109.726562 173.15625 Z M 90.84375 126.695312 " clip-rule="nonzero"/></clipPath><clipPath id="ae3800095e"><path d="M 90.84375 126.695312 L 176.832031 91.75 L 195.714844 138.210938 L 109.726562 173.15625 Z M 90.84375 126.695312 " clip-rule="nonzero"/></clipPath><clipPath id="20dd67fdb1"><path d="M 143 114 L 159 114 L 159 129 L 143 129 Z M 143 114 " clip-rule="nonzero"/></clipPath><clipPath id="c1f5f2fb94"><path d="M 90.84375 126.695312 L 176.832031 91.75 L 195.714844 138.210938 L 109.726562 173.15625 Z M 90.84375 126.695312 " clip-rule="nonzero"/></clipPath><clipPath id="aa0606c4df"><path d="M 90.84375 126.695312 L 176.832031 91.75 L 195.714844 138.210938 L 109.726562 173.15625 Z M 90.84375 126.695312 " clip-rule="nonzero"/></clipPath><clipPath id="66314c782e"><path d="M 146 114 L 159 114 L 159 127 L 146 127 Z M 146 114 " clip-rule="nonzero"/></clipPath><clipPath id="ac4e2ba0e5"><path d="M 90.84375 126.695312 L 176.832031 91.75 L 195.714844 138.210938 L 109.726562 173.15625 Z M 90.84375 126.695312 " clip-rule="nonzero"/></clipPath><clipPath id="8fdf7a9d38"><path d="M 90.84375 126.695312 L 176.832031 91.75 L 195.714844 138.210938 L 109.726562 173.15625 Z M 90.84375 126.695312 " clip-rule="nonzero"/></clipPath><clipPath id="406f568d6f"><path d="M 135 138 L 157 138 L 157 147 L 135 147 Z M 135 138 " clip-rule="nonzero"/></clipPath><clipPath id="d16416fb63"><path d="M 90.84375 126.695312 L 176.832031 91.75 L 195.714844 138.210938 L 109.726562 173.15625 Z M 90.84375 126.695312 " clip-rule="nonzero"/></clipPath><clipPath id="d629bf3fd3"><path d="M 90.84375 126.695312 L 176.832031 91.75 L 195.714844 138.210938 L 109.726562 173.15625 Z M 90.84375 126.695312 " clip-rule="nonzero"/></clipPath><clipPath id="fa607a3818"><path d="M 160 75 L 236 75 L 236 152 L 160 152 Z M 160 75 " clip-rule="nonzero"/></clipPath><clipPath id="acd6eb635f"><path d="M 170.074219 58.414062 L 252.664062 85.214844 L 225.863281 167.804688 L 143.273438 141.003906 Z M 170.074219 58.414062 " clip-rule="nonzero"/></clipPath><clipPath id="eddb760b04"><path d="M 170.074219 58.414062 L 252.664062 85.214844 L 225.863281 167.804688 L 143.273438 141.003906 Z M 170.074219 58.414062 " clip-rule="nonzero"/></clipPath><clipPath id="e87e775d28"><path d="M 158 73 L 238 73 L 238 153 L 158 153 Z M 158 73 " clip-rule="nonzero"/></clipPath><clipPath id="460abbf7be"><path d="M 170.074219 58.414062 L 252.664062 85.214844 L 225.863281 167.804688 L 143.273438 141.003906 Z M 170.074219 58.414062 " clip-rule="nonzero"/></clipPath><clipPath id="5a39176e03"><path d="M 170.074219 58.414062 L 252.664062 85.214844 L 225.863281 167.804688 L 143.273438 141.003906 Z M 170.074219 58.414062 " clip-rule="nonzero"/></clipPath><clipPath id="91d8b04c27"><path d="M 186 125 L 199 125 L 199 138 L 186 138 Z M 186 125 " clip-rule="nonzero"/></clipPath><clipPath id="dc62f5aa23"><path d="M 170.074219 58.414062 L 252.664062 85.214844 L 225.863281 167.804688 L 143.273438 141.003906 Z M 170.074219 58.414062 " clip-rule="nonzero"/></clipPath><clipPath id="5ba1974245"><path d="M 170.074219 58.414062 L 252.664062 85.214844 L 225.863281 167.804688 L 143.273438 141.003906 Z M 170.074219 58.414062 " clip-rule="nonzero"/></clipPath><clipPath id="f543096e50"><path d="M 203 112 L 220 112 L 220 125 L 203 125 Z M 203 112 " clip-rule="nonzero"/></clipPath><clipPath id="4f86d907e2"><path d="M 170.074219 58.414062 L 252.664062 85.214844 L 225.863281 167.804688 L 143.273438 141.003906 Z M 170.074219 58.414062 " clip-rule="nonzero"/></clipPath><clipPath id="414ebb48f7"><path d="M 170.074219 58.414062 L 252.664062 85.214844 L 225.863281 167.804688 L 143.273438 141.003906 Z M 170.074219 58.414062 " clip-rule="nonzero"/></clipPath><clipPath id="294d71eaee"><path d="M 175 103 L 191 103 L 191 116 L 175 116 Z M 175 103 " clip-rule="nonzero"/></clipPath><clipPath id="9bcd6b1252"><path d="M 170.074219 58.414062 L 252.664062 85.214844 L 225.863281 167.804688 L 143.273438 141.003906 Z M 170.074219 58.414062 " clip-rule="nonzero"/></clipPath><clipPath id="3c71098030"><path d="M 170.074219 58.414062 L 252.664062 85.214844 L 225.863281 167.804688 L 143.273438 141.003906 Z M 170.074219 58.414062 " clip-rule="nonzero"/></clipPath></defs><g clip-path="url(#b88cf6a83c)"><g clip-path="url(#0ffec3123f)"><g clip-path="url(#08d95f4fc2)"><path fill="#8b97fd" d="M 200.699219 91.484375 C 199.269531 91.894531 197.796875 91.261719 197.109375 89.941406 L 191.65625 79.46875 C 191.527344 79.214844 191.285156 79.261719 191.214844 79.28125 C 191.0625 79.328125 191.003906 79.4375 190.976562 79.515625 L 187.035156 90.644531 C 186.695312 91.601562 185.953125 92.308594 185 92.582031 C 184.089844 92.84375 183.089844 92.671875 182.320312 92.128906 C 181.566406 91.597656 181.097656 90.75 181.042969 89.800781 L 180.324219 78.015625 C 180.316406 77.9375 180.296875 77.824219 180.179688 77.742188 C 180.082031 77.671875 179.949219 77.644531 179.847656 77.675781 C 179.789062 77.691406 179.734375 77.726562 179.683594 77.78125 L 171.550781 86.347656 C 171.164062 86.757812 170.679688 87.054688 170.160156 87.203125 C 169.054688 87.519531 167.824219 87.167969 167.027344 86.304688 C 166.230469 85.441406 166.003906 84.257812 166.421875 83.140625 L 170.558594 72.078125 C 170.578125 72.027344 170.636719 71.863281 170.484375 71.699219 C 170.425781 71.636719 170.300781 71.535156 170.121094 71.585938 C 170.105469 71.59375 170.085938 71.597656 170.070312 71.605469 L 159.15625 76.125 C 159.039062 76.171875 158.921875 76.214844 158.804688 76.246094 C 157.449219 76.636719 156.050781 76.070312 155.320312 74.84375 C 154.59375 73.625 154.777344 72.121094 155.773438 71.105469 L 164.054688 62.683594 C 164.167969 62.570312 164.191406 62.433594 164.132812 62.285156 C 164.070312 62.136719 163.960938 62.058594 163.796875 62.054688 L 151.992188 61.742188 C 150.507812 61.703125 149.289062 60.652344 149.03125 59.191406 C 148.773438 57.726562 149.558594 56.328125 150.941406 55.78125 L 161.929688 51.457031 C 162.082031 51.394531 162.160156 51.285156 162.164062 51.121094 C 162.171875 50.960938 162.101562 50.84375 161.953125 50.773438 L 151.296875 45.6875 C 150.128906 45.128906 149.441406 43.941406 149.546875 42.660156 C 149.65625 41.355469 150.519531 40.285156 151.746094 39.933594 C 152.070312 39.839844 152.414062 39.800781 152.761719 39.816406 L 164.558594 40.332031 C 164.609375 40.335938 164.652344 40.332031 164.691406 40.320312 C 164.824219 40.28125 164.90625 40.160156 164.933594 40.0625 C 164.984375 39.894531 164.914062 39.789062 164.859375 39.722656 L 157.191406 30.742188 C 156.492188 29.921875 156.265625 28.875 156.570312 27.867188 C 156.875 26.851562 157.691406 26.042969 158.699219 25.753906 C 159.425781 25.542969 160.214844 25.621094 160.917969 25.972656 L 171.484375 31.242188 C 171.578125 31.289062 171.660156 31.300781 171.742188 31.277344 C 171.84375 31.246094 171.933594 31.171875 171.984375 31.078125 C 172.03125 30.996094 172.039062 30.910156 172.007812 30.804688 L 168.65625 19.480469 C 168.417969 18.675781 168.5 17.84375 168.890625 17.128906 C 169.289062 16.40625 169.976562 15.863281 170.78125 15.628906 C 171.96875 15.289062 173.203125 15.679688 173.996094 16.640625 L 181.507812 25.753906 C 181.609375 25.878906 181.742188 25.921875 181.898438 25.875 C 182.050781 25.832031 182.140625 25.726562 182.164062 25.566406 L 183.707031 13.859375 C 183.871094 12.621094 184.710938 11.640625 185.898438 11.296875 C 186.703125 11.066406 187.578125 11.167969 188.296875 11.570312 C 189.003906 11.964844 189.519531 12.628906 189.742188 13.4375 L 192.898438 24.820312 C 192.925781 24.925781 192.976562 24.996094 193.058594 25.039062 C 193.152344 25.09375 193.269531 25.105469 193.371094 25.078125 C 193.453125 25.054688 193.519531 25 193.570312 24.914062 L 199.742188 14.847656 C 200.152344 14.175781 200.78125 13.695312 201.511719 13.484375 C 202.515625 13.195312 203.636719 13.453125 204.433594 14.152344 C 205.226562 14.84375 205.589844 15.851562 205.429688 16.917969 L 203.683594 28.597656 C 203.667969 28.683594 203.667969 28.8125 203.796875 28.925781 C 203.875 28.992188 204.007812 29.054688 204.140625 29.015625 C 204.179688 29.003906 204.21875 28.984375 204.261719 28.957031 L 213.992188 22.269531 C 214.28125 22.074219 214.59375 21.925781 214.917969 21.832031 C 216.144531 21.480469 217.445312 21.929688 218.226562 22.980469 C 218.996094 24.007812 219.042969 25.382812 218.347656 26.472656 L 212 36.433594 C 211.914062 36.570312 211.914062 36.707031 212.003906 36.839844 C 212.09375 36.972656 212.222656 37.027344 212.378906 36.996094 L 223.992188 34.847656 C 225.453125 34.578125 226.859375 35.351562 227.417969 36.726562 C 227.972656 38.105469 227.496094 39.640625 226.257812 40.460938 L 216.410156 46.976562 C 216.273438 47.066406 216.222656 47.191406 216.25 47.351562 C 216.277344 47.507812 216.371094 47.609375 216.527344 47.644531 L 228.011719 50.40625 C 229.394531 50.738281 230.34375 51.914062 230.375 53.335938 C 230.40625 54.761719 229.519531 55.980469 228.164062 56.371094 C 228.164062 56.371094 228.164062 56.371094 228.160156 56.371094 C 228.046875 56.40625 227.925781 56.433594 227.796875 56.453125 L 216.152344 58.398438 C 216.132812 58.402344 216.113281 58.40625 216.097656 58.414062 C 215.917969 58.464844 215.863281 58.613281 215.847656 58.699219 C 215.804688 58.921875 215.941406 59.027344 215.984375 59.0625 L 225.355469 66.25 C 226.300781 66.976562 226.734375 68.101562 226.515625 69.257812 C 226.296875 70.410156 225.441406 71.363281 224.335938 71.675781 C 223.8125 71.828125 223.246094 71.832031 222.699219 71.691406 L 211.269531 68.730469 C 211.195312 68.710938 211.128906 68.710938 211.070312 68.726562 C 210.96875 68.757812 210.871094 68.847656 210.824219 68.957031 C 210.769531 69.09375 210.8125 69.199219 210.847656 69.269531 L 216.480469 79.648438 C 216.933594 80.480469 216.988281 81.445312 216.632812 82.296875 C 216.265625 83.167969 215.507812 83.839844 214.597656 84.101562 C 213.644531 84.375 212.640625 84.167969 211.847656 83.535156 L 202.605469 76.183594 C 202.539062 76.132812 202.4375 76.070312 202.28125 76.113281 C 202.210938 76.132812 201.980469 76.222656 202.003906 76.503906 L 202.925781 88.277344 C 203.042969 89.757812 202.125 91.078125 200.699219 91.484375 Z M 200.699219 91.484375 " fill-opacity="1" fill-rule="nonzero"/></g></g></g><g clip-path="url(#86b0d4bcca)"><g clip-path="url(#01570b04d8)"><g clip-path="url(#ec51cd83fa)"><path fill="#ffffff" d="M 186.335938 12.828125 C 187.070312 12.617188 187.957031 12.945312 188.210938 13.863281 L 191.363281 25.242188 C 191.679688 26.382812 192.832031 26.886719 193.808594 26.605469 C 194.246094 26.480469 194.648438 26.199219 194.925781 25.746094 L 201.097656 15.675781 C 201.316406 15.320312 201.621094 15.105469 201.949219 15.011719 C 202.894531 14.742188 204.035156 15.480469 203.855469 16.679688 L 202.109375 28.359375 C 201.890625 29.832031 203.28125 30.914062 204.578125 30.542969 C 204.777344 30.488281 204.972656 30.394531 205.160156 30.269531 L 214.894531 23.582031 C 215.042969 23.476562 215.199219 23.402344 215.351562 23.359375 C 216.574219 23.011719 217.78125 24.398438 217.003906 25.621094 L 210.65625 35.578125 C 209.738281 37.023438 210.984375 38.871094 212.667969 38.5625 L 224.28125 36.410156 C 225.886719 36.113281 226.742188 38.234375 225.378906 39.132812 L 215.53125 45.648438 C 214.101562 46.59375 214.488281 48.789062 216.15625 49.191406 L 227.636719 51.949219 C 229.160156 52.316406 229.148438 54.433594 227.722656 54.84375 C 227.664062 54.859375 227.601562 54.875 227.535156 54.882812 L 215.886719 56.832031 C 215.808594 56.84375 215.730469 56.863281 215.65625 56.882812 C 214.148438 57.316406 213.722656 59.328125 215.015625 60.320312 L 224.386719 67.511719 C 225.441406 68.324219 224.96875 69.84375 223.898438 70.148438 C 223.65625 70.21875 223.386719 70.226562 223.097656 70.152344 L 211.664062 67.191406 C 211.300781 67.097656 210.949219 67.109375 210.632812 67.199219 C 209.507812 67.523438 208.8125 68.851562 209.449219 70.027344 L 215.082031 80.40625 C 215.601562 81.359375 214.996094 82.332031 214.15625 82.574219 C 213.738281 82.691406 213.257812 82.628906 212.832031 82.292969 L 203.59375 74.9375 C 203.050781 74.507812 202.40625 74.421875 201.839844 74.585938 C 201.003906 74.824219 200.335938 75.605469 200.417969 76.625 L 201.339844 88.398438 C 201.40625 89.214844 200.886719 89.777344 200.261719 89.957031 C 199.632812 90.136719 198.894531 89.933594 198.519531 89.207031 L 193.066406 78.734375 C 192.59375 77.824219 191.613281 77.515625 190.777344 77.753906 C 190.210938 77.917969 189.710938 78.332031 189.480469 78.984375 L 185.535156 90.113281 C 185.355469 90.628906 184.980469 90.933594 184.5625 91.054688 C 183.722656 91.296875 182.695312 90.792969 182.628906 89.707031 L 181.910156 77.917969 C 181.828125 76.582031 180.535156 75.824219 179.410156 76.148438 C 179.089844 76.238281 178.789062 76.414062 178.527344 76.6875 L 170.398438 85.253906 C 170.191406 85.46875 169.960938 85.605469 169.71875 85.675781 C 168.648438 85.980469 167.441406 84.945312 167.910156 83.695312 L 172.046875 72.636719 C 172.617188 71.105469 171.191406 69.628906 169.683594 70.058594 C 169.609375 70.078125 169.535156 70.105469 169.460938 70.136719 L 158.550781 74.652344 C 158.488281 74.679688 158.429688 74.699219 158.367188 74.71875 C 156.941406 75.125 155.8125 73.335938 156.90625 72.21875 L 165.1875 63.796875 C 166.386719 62.574219 165.554688 60.507812 163.839844 60.460938 L 152.035156 60.152344 C 150.402344 60.109375 150.007812 57.859375 151.523438 57.261719 L 162.515625 52.933594 C 164.109375 52.304688 164.1875 50.078125 162.640625 49.339844 L 151.980469 44.253906 C 150.675781 43.628906 150.964844 41.8125 152.1875 41.460938 C 152.339844 41.417969 152.507812 41.398438 152.691406 41.40625 L 164.492188 41.921875 C 164.71875 41.933594 164.933594 41.90625 165.128906 41.847656 C 166.425781 41.476562 167.03125 39.820312 166.066406 38.691406 L 158.398438 29.707031 C 157.613281 28.785156 158.1875 27.554688 159.136719 27.28125 C 159.460938 27.1875 159.832031 27.207031 160.207031 27.394531 L 170.773438 32.667969 C 171.25 32.902344 171.742188 32.929688 172.179688 32.804688 C 173.15625 32.523438 173.867188 31.488281 173.53125 30.355469 L 170.179688 19.03125 C 169.90625 18.117188 170.484375 17.371094 171.21875 17.160156 C 171.738281 17.007812 172.339844 17.128906 172.769531 17.652344 L 180.28125 26.765625 C 180.824219 27.429688 181.632812 27.605469 182.335938 27.40625 C 183.035156 27.203125 183.625 26.625 183.738281 25.777344 L 185.28125 14.066406 C 185.371094 13.394531 185.816406 12.976562 186.335938 12.828125 M 185.460938 9.769531 C 183.652344 10.289062 182.378906 11.777344 182.128906 13.652344 L 180.953125 22.582031 L 175.222656 15.632812 C 174.019531 14.171875 172.152344 13.585938 170.34375 14.101562 C 169.132812 14.449219 168.097656 15.273438 167.496094 16.367188 C 166.902344 17.453125 166.769531 18.71875 167.128906 19.933594 L 169.6875 28.570312 L 161.625 24.550781 C 160.566406 24.023438 159.371094 23.90625 158.261719 24.226562 C 156.738281 24.660156 155.507812 25.882812 155.046875 27.410156 C 154.59375 28.921875 154.941406 30.554688 155.980469 31.773438 L 161.832031 38.621094 L 152.832031 38.230469 C 152.3125 38.207031 151.800781 38.265625 151.308594 38.40625 C 149.46875 38.933594 148.125 40.589844 147.964844 42.527344 C 147.800781 44.472656 148.839844 46.277344 150.613281 47.125 L 158.742188 51.003906 L 150.359375 54.300781 C 148.265625 55.125 147.078125 57.25 147.46875 59.464844 C 147.859375 61.683594 149.703125 63.269531 151.949219 63.332031 L 160.957031 63.566406 L 154.640625 69.992188 C 153.128906 71.527344 152.851562 73.804688 153.953125 75.65625 C 155.039062 77.484375 157.214844 78.355469 159.242188 77.773438 C 159.417969 77.722656 159.59375 77.660156 159.765625 77.589844 L 168.089844 74.144531 L 164.933594 82.582031 C 164.308594 84.25 164.664062 86.085938 165.863281 87.382812 C 167.0625 88.679688 168.921875 89.210938 170.597656 88.730469 C 171.390625 88.503906 172.121094 88.058594 172.707031 87.441406 L 178.90625 80.910156 L 179.457031 89.898438 C 179.542969 91.328125 180.253906 92.613281 181.402344 93.425781 C 182.5625 94.246094 184.070312 94.503906 185.4375 94.109375 C 186.890625 93.695312 188.019531 92.625 188.535156 91.175781 L 191.542969 82.6875 L 195.699219 90.675781 C 196.738281 92.671875 198.972656 93.632812 201.136719 93.011719 C 203.300781 92.394531 204.6875 90.394531 204.511719 88.152344 L 203.804688 79.171875 L 210.855469 84.78125 C 212.058594 85.734375 213.582031 86.046875 215.035156 85.628906 C 216.402344 85.238281 217.546875 84.222656 218.097656 82.910156 C 218.640625 81.613281 218.5625 80.148438 217.878906 78.886719 L 213.582031 70.972656 L 222.300781 73.226562 C 223.125 73.441406 223.976562 73.433594 224.773438 73.203125 C 226.449219 72.726562 227.746094 71.289062 228.074219 69.550781 C 228.40625 67.820312 227.730469 66.074219 226.320312 64.988281 L 219.175781 59.503906 L 228.058594 58.019531 C 228.242188 57.988281 228.421875 57.949219 228.597656 57.898438 C 230.628906 57.316406 232.011719 55.425781 231.964844 53.300781 C 231.917969 51.148438 230.476562 49.363281 228.382812 48.859375 L 219.625 46.753906 L 227.136719 41.785156 C 229.011719 40.542969 229.734375 38.21875 228.890625 36.132812 C 228.046875 34.046875 225.914062 32.875 223.703125 33.285156 L 214.84375 34.925781 L 219.6875 27.328125 C 220.742188 25.671875 220.667969 23.59375 219.5 22.027344 C 218.335938 20.46875 216.316406 19.777344 214.476562 20.304688 C 213.988281 20.445312 213.523438 20.664062 213.09375 20.960938 L 205.667969 26.058594 L 207.003906 17.152344 C 207.238281 15.566406 206.671875 13.996094 205.484375 12.957031 C 204.285156 11.902344 202.59375 11.519531 201.070312 11.957031 C 199.960938 12.273438 199.007812 13.007812 198.386719 14.015625 L 193.679688 21.695312 L 191.273438 13.015625 C 190.9375 11.792969 190.15625 10.789062 189.074219 10.183594 C 187.988281 9.574219 186.671875 9.421875 185.460938 9.769531 Z M 185.460938 9.769531 " fill-opacity="1" fill-rule="nonzero"/></g></g></g><g clip-path="url(#9ce6b54eb7)"><g clip-path="url(#be5b3ed054)"><g clip-path="url(#963e3cbd06)"><path fill="#ffffff" d="M 200.785156 60.617188 C 200.496094 60.382812 200.074219 60.429688 199.839844 60.71875 C 196.316406 65.097656 189.960938 65.878906 185.484375 62.5625 C 185.867188 61.972656 186.085938 61.289062 186.082031 60.5625 C 186.082031 60.191406 185.78125 59.890625 185.410156 59.890625 C 185.039062 59.890625 184.738281 60.191406 184.738281 60.566406 C 184.742188 61.816406 183.707031 62.886719 182.21875 63.164062 C 181.855469 63.234375 181.613281 63.585938 181.683594 63.949219 C 181.75 64.316406 182.101562 64.554688 182.46875 64.488281 C 182.632812 64.457031 182.792969 64.417969 182.949219 64.375 C 183.5625 64.199219 184.109375 63.914062 184.570312 63.554688 C 187.632812 65.882812 191.5 66.488281 194.964844 65.496094 C 197.222656 64.847656 199.308594 63.527344 200.886719 61.5625 C 201.121094 61.273438 201.074219 60.851562 200.785156 60.617188 Z M 200.785156 60.617188 " fill-opacity="1" fill-rule="nonzero"/></g></g></g><g clip-path="url(#9606ce235c)"><g clip-path="url(#8391938e44)"><g clip-path="url(#a4c78bbe30)"><path fill="#000000" d="M 202.488281 51.585938 C 201.929688 51.746094 201.347656 51.421875 201.1875 50.863281 C 200.78125 49.453125 199.304688 48.632812 197.890625 49.039062 C 196.480469 49.441406 195.660156 50.921875 196.0625 52.332031 C 196.222656 52.890625 195.902344 53.472656 195.34375 53.632812 C 194.785156 53.792969 194.203125 53.46875 194.042969 52.914062 C 193.320312 50.386719 194.785156 47.742188 197.3125 47.015625 C 199.839844 46.292969 202.484375 47.757812 203.207031 50.285156 C 203.367188 50.84375 203.046875 51.425781 202.488281 51.585938 Z M 202.488281 51.585938 " fill-opacity="1" fill-rule="nonzero"/></g></g></g><g clip-path="url(#99682f1d5c)"><g clip-path="url(#69c0e5fe13)"><g clip-path="url(#ff2aa83606)"><path fill="#000000" d="M 185.191406 56.542969 C 184.632812 56.703125 184.050781 56.378906 183.894531 55.820312 C 183.488281 54.410156 182.007812 53.589844 180.597656 53.992188 C 179.183594 54.398438 178.363281 55.878906 178.769531 57.289062 C 178.929688 57.847656 178.605469 58.429688 178.050781 58.589844 C 177.492188 58.75 176.910156 58.425781 176.75 57.867188 C 176.023438 55.339844 177.492188 52.699219 180.019531 51.972656 C 182.542969 51.25 185.1875 52.714844 185.914062 55.242188 C 186.074219 55.800781 185.75 56.382812 185.191406 56.542969 Z M 185.191406 56.542969 " fill-opacity="1" fill-rule="nonzero"/></g></g></g><g clip-path="url(#52de43e25e)"><g clip-path="url(#c1212514b6)"><g clip-path="url(#57ea21d7e7)"><path fill="#ff652d" d="M 95.398438 70.128906 C 96.535156 71.011719 97.625 71.949219 98.667969 72.941406 C 99.710938 73.929688 100.703125 74.96875 101.644531 76.058594 C 102.585938 77.144531 103.472656 78.277344 104.304688 79.453125 C 105.132812 80.628906 105.902344 81.84375 106.613281 83.09375 C 107.324219 84.34375 107.972656 85.625 108.558594 86.941406 C 109.144531 88.257812 109.664062 89.597656 110.117188 90.960938 C 110.570312 92.328125 110.953125 93.710938 111.269531 95.117188 C 111.589844 96.519531 111.835938 97.933594 112.015625 99.363281 C 112.191406 100.789062 112.300781 102.222656 112.335938 103.664062 C 112.375 105.101562 112.339844 106.539062 112.238281 107.972656 C 112.132812 109.40625 111.960938 110.835938 111.714844 112.253906 C 111.472656 113.671875 111.15625 115.074219 110.777344 116.460938 C 110.394531 117.847656 109.945312 119.214844 109.429688 120.554688 C 108.914062 121.898438 108.332031 123.214844 107.6875 124.5 C 107.042969 125.785156 106.335938 127.039062 105.566406 128.253906 C 104.800781 129.472656 103.972656 130.648438 103.089844 131.785156 C 102.207031 132.917969 101.269531 134.007812 100.277344 135.050781 C 99.285156 136.09375 98.246094 137.085938 97.160156 138.027344 C 96.070312 138.96875 94.9375 139.855469 93.761719 140.6875 C 92.589844 141.515625 91.375 142.285156 90.125 142.996094 C 88.875 143.707031 87.589844 144.355469 86.277344 144.941406 C 84.960938 145.527344 83.621094 146.046875 82.253906 146.5 C 80.890625 146.953125 79.503906 147.335938 78.101562 147.65625 C 76.699219 147.972656 75.28125 148.21875 73.855469 148.398438 C 72.425781 148.574219 70.992188 148.683594 69.554688 148.71875 C 68.117188 148.757812 66.679688 148.722656 65.246094 148.621094 C 63.808594 148.515625 62.382812 148.34375 60.964844 148.097656 C 59.546875 147.855469 58.144531 147.542969 56.757812 147.160156 C 55.371094 146.777344 54.003906 146.328125 52.660156 145.8125 C 51.316406 145.296875 50.003906 144.714844 48.714844 144.070312 C 47.429688 143.425781 46.179688 142.71875 44.960938 141.949219 C 43.746094 141.183594 42.570312 140.355469 41.433594 139.472656 C 40.296875 138.589844 39.207031 137.652344 38.164062 136.660156 C 37.121094 135.671875 36.128906 134.628906 35.1875 133.542969 C 34.246094 132.453125 33.359375 131.320312 32.53125 130.148438 C 31.699219 128.972656 30.929688 127.757812 30.21875 126.507812 C 29.507812 125.257812 28.859375 123.972656 28.277344 122.660156 C 27.691406 121.34375 27.171875 120.003906 26.71875 118.636719 C 26.265625 117.273438 25.878906 115.886719 25.5625 114.484375 C 25.246094 113.082031 25 111.664062 24.820312 110.238281 C 24.640625 108.808594 24.535156 107.375 24.496094 105.9375 C 24.460938 104.5 24.492188 103.0625 24.597656 101.628906 C 24.699219 100.191406 24.875 98.765625 25.117188 97.347656 C 25.363281 95.929688 25.675781 94.527344 26.058594 93.140625 C 26.441406 91.753906 26.890625 90.386719 27.40625 89.042969 C 27.921875 87.699219 28.5 86.386719 29.148438 85.101562 C 29.792969 83.8125 30.5 82.5625 31.265625 81.34375 C 32.035156 80.128906 32.859375 78.953125 33.746094 77.816406 C 34.628906 76.679688 35.566406 75.59375 36.554688 74.546875 C 37.546875 73.503906 38.585938 72.511719 39.675781 71.570312 C 40.761719 70.628906 41.894531 69.746094 43.070312 68.914062 C 44.246094 68.085938 45.457031 67.3125 46.710938 66.601562 C 47.960938 65.890625 49.242188 65.242188 50.558594 64.660156 C 51.871094 64.074219 53.214844 63.554688 54.578125 63.101562 C 55.945312 62.648438 57.328125 62.261719 58.734375 61.945312 C 60.136719 61.628906 61.550781 61.382812 62.980469 61.203125 C 64.40625 61.023438 65.839844 60.917969 67.277344 60.878906 C 68.71875 60.84375 70.15625 60.875 71.589844 60.980469 C 73.023438 61.085938 74.453125 61.257812 75.871094 61.503906 C 77.289062 61.746094 78.691406 62.058594 80.078125 62.441406 C 81.464844 62.824219 82.828125 63.273438 84.171875 63.789062 C 85.515625 64.304688 86.832031 64.882812 88.117188 65.53125 C 89.402344 66.175781 90.65625 66.882812 91.871094 67.648438 C 93.089844 68.417969 94.265625 69.242188 95.398438 70.128906 Z M 95.398438 70.128906 " fill-opacity="1" fill-rule="nonzero"/></g></g></g><g clip-path="url(#8473154235)"><g clip-path="url(#c4da761d99)"><g clip-path="url(#08d7315199)"><path fill="#fffff7" d="M 88.636719 67.824219 C 109.058594 78.992188 116.558594 104.597656 105.390625 125.019531 C 94.222656 145.441406 68.617188 152.941406 48.195312 141.777344 C 27.773438 130.609375 20.273438 105 31.441406 84.578125 C 42.605469 64.15625 68.214844 56.65625 88.636719 67.824219 M 90.355469 64.679688 C 79.636719 58.820312 67.28125 57.484375 55.5625 60.917969 C 43.839844 64.351562 34.15625 72.144531 28.296875 82.859375 C 22.4375 93.578125 21.101562 105.933594 24.535156 117.652344 C 27.96875 129.375 35.761719 139.058594 46.476562 144.917969 C 57.191406 150.777344 69.550781 152.113281 81.269531 148.679688 C 92.992188 145.246094 102.675781 137.453125 108.535156 126.738281 C 114.394531 116.023438 115.730469 103.664062 112.296875 91.945312 C 108.863281 80.222656 101.070312 70.539062 90.355469 64.679688 Z M 90.355469 64.679688 " fill-opacity="1" fill-rule="nonzero"/></g></g></g><g clip-path="url(#031bc270e9)"><g clip-path="url(#5909b4e2a4)"><g clip-path="url(#294008f48b)"><path fill="#000000" d="M 68.179688 90.894531 C 68.207031 91.214844 68.390625 91.5 68.675781 91.65625 C 68.839844 91.746094 69.023438 91.785156 69.210938 91.769531 C 69.734375 91.726562 70.128906 91.265625 70.085938 90.742188 L 68.542969 71.585938 C 68.523438 71.332031 68.402344 71.097656 68.210938 70.933594 C 68.015625 70.769531 67.769531 70.6875 67.515625 70.710938 C 66.988281 70.75 66.597656 71.214844 66.636719 71.738281 Z M 68.179688 90.894531 " fill-opacity="1" fill-rule="nonzero"/></g></g></g><g clip-path="url(#f35c1f33ec)"><g clip-path="url(#51a38524ad)"><g clip-path="url(#42c1427fcd)"><path fill="#000000" d="M 76.101562 75.90625 C 76.160156 75.386719 75.785156 74.910156 75.261719 74.847656 C 75.011719 74.816406 74.761719 74.886719 74.558594 75.046875 C 74.359375 75.203125 74.230469 75.429688 74.203125 75.683594 L 72.621094 89.027344 C 72.574219 89.417969 72.765625 89.789062 73.109375 89.976562 C 73.21875 90.035156 73.332031 90.074219 73.457031 90.089844 C 73.710938 90.117188 73.960938 90.046875 74.160156 89.890625 C 74.359375 89.730469 74.488281 89.503906 74.515625 89.253906 Z M 76.101562 75.90625 " fill-opacity="1" fill-rule="nonzero"/></g></g></g><g clip-path="url(#9eb188a6d1)"><g clip-path="url(#1ae9d11e41)"><g clip-path="url(#4b6ed56963)"><path fill="#000000" d="M 78.957031 97.101562 C 79.042969 97.265625 79.175781 97.398438 79.339844 97.488281 C 79.625 97.644531 79.964844 97.644531 80.25 97.492188 L 97.210938 88.457031 C 97.675781 88.207031 97.851562 87.628906 97.605469 87.164062 C 97.355469 86.699219 96.777344 86.519531 96.3125 86.769531 L 79.351562 95.808594 C 78.886719 96.054688 78.707031 96.636719 78.957031 97.101562 Z M 78.957031 97.101562 " fill-opacity="1" fill-rule="nonzero"/></g></g></g><g clip-path="url(#240b3a539b)"><g clip-path="url(#abd01b1451)"><g clip-path="url(#505d31507f)"><path fill="#000000" d="M 78.359375 92.851562 C 78.707031 93.039062 79.125 93 79.425781 92.75 L 89.808594 84.214844 C 90.214844 83.882812 90.273438 83.277344 89.9375 82.871094 C 89.605469 82.464844 89 82.40625 88.59375 82.742188 L 78.214844 91.273438 C 77.808594 91.609375 77.746094 92.210938 78.082031 92.617188 C 78.160156 92.714844 78.253906 92.792969 78.359375 92.851562 Z M 78.359375 92.851562 " fill-opacity="1" fill-rule="nonzero"/></g></g></g><g clip-path="url(#939dd56ccf)"><g clip-path="url(#174841fe9c)"><g clip-path="url(#6ca2ec90c6)"><path fill="#000000" d="M 62.921875 102.390625 C 61.222656 101.289062 59.148438 101.03125 56.925781 101.644531 C 58.425781 98.398438 61.496094 91.742188 62.191406 90.113281 C 63.246094 87.632812 62.765625 85.429688 60.960938 84.515625 C 60.960938 84.515625 60.957031 84.515625 60.957031 84.515625 C 60.773438 84.414062 60.183594 84.125 59.414062 84.082031 L 59.714844 83.40625 C 59.941406 82.902344 60.070312 82.394531 60.09375 81.894531 C 60.171875 80.449219 59.488281 79.3125 58.179688 78.695312 C 56.925781 78.105469 55.621094 78.324219 54.5 79.320312 C 53.980469 79.777344 53.570312 80.359375 53.277344 81.046875 C 52.867188 80.605469 52.320312 80.277344 51.683594 80.089844 C 49.226562 79.363281 47.847656 81.078125 47.460938 82.078125 L 47.21875 82.648438 C 46.902344 82.277344 46.480469 81.980469 45.960938 81.761719 C 45.183594 81.4375 44.40625 81.429688 43.707031 81.738281 C 42.449219 82.289062 41.890625 83.65625 41.792969 83.914062 L 35.71875 98.460938 C 35.140625 99.84375 34.863281 101.308594 34.894531 102.808594 L 35.015625 108.410156 C 35.023438 108.75 35.214844 109.0625 35.515625 109.226562 C 35.660156 109.308594 35.824219 109.347656 35.992188 109.34375 C 36.519531 109.332031 36.9375 108.894531 36.925781 108.367188 L 36.804688 102.765625 C 36.777344 101.535156 37.007812 100.332031 37.480469 99.195312 L 43.566406 84.628906 L 43.582031 84.589844 C 43.679688 84.316406 44.027344 83.683594 44.476562 83.484375 C 44.691406 83.390625 44.929688 83.402344 45.222656 83.523438 C 45.578125 83.675781 46.410156 84.023438 45.78125 85.832031 C 45.675781 86.132812 44.066406 89.96875 42.523438 93.636719 C 42.515625 93.644531 42.511719 93.652344 42.507812 93.660156 L 42.382812 93.960938 C 41.988281 93.796875 41.796875 93.65625 41.796875 93.652344 C 41.394531 93.324219 40.796875 93.378906 40.460938 93.773438 C 40.121094 94.175781 40.171875 94.78125 40.574219 95.121094 C 40.617188 95.160156 40.789062 95.296875 41.097656 95.464844 C 41.457031 95.660156 41.871094 95.832031 42.328125 95.96875 C 43.757812 96.402344 45.464844 96.488281 47.410156 96.234375 C 51.273438 95.726562 53.625 97.09375 53.71875 97.144531 C 53.9375 97.28125 54.191406 97.324219 54.441406 97.269531 C 54.691406 97.210938 54.902344 97.0625 55.039062 96.84375 C 55.316406 96.398438 55.183594 95.808594 54.734375 95.527344 C 54.710938 95.511719 54.589844 95.4375 54.382812 95.332031 L 58.371094 86.417969 C 58.960938 85.660156 59.871094 86.097656 60.058594 86.199219 C 60.0625 86.203125 60.078125 86.210938 60.082031 86.210938 C 60.933594 86.636719 61.074219 87.851562 60.433594 89.363281 C 59.601562 91.3125 55.148438 100.941406 54.417969 102.515625 C 51.207031 100.933594 48.617188 101.691406 46.992188 102.621094 C 45.132812 103.6875 44.089844 105.230469 44.046875 105.292969 C 43.753906 105.730469 43.871094 106.324219 44.308594 106.617188 C 44.746094 106.910156 45.339844 106.792969 45.632812 106.355469 C 45.769531 106.15625 48.96875 101.523438 54.128906 104.527344 C 54.445312 104.710938 54.84375 104.695312 55.144531 104.492188 C 55.179688 104.464844 58.867188 102.039062 61.886719 103.996094 C 62.886719 104.640625 63.066406 105.078125 63.097656 105.234375 C 63.105469 105.285156 63.128906 105.398438 62.992188 105.59375 C 62.769531 105.910156 62.367188 106.089844 61.941406 106.0625 C 60.289062 105.949219 57.363281 106.0625 56.3125 108.074219 L 56.230469 108.230469 C 55.542969 109.550781 54.683594 111.195312 54.292969 111.3125 C 54.226562 111.328125 54.140625 111.355469 54.035156 111.382812 L 54.003906 111.390625 C 51.628906 112.050781 48.785156 112.996094 47.882812 114.488281 C 45.175781 118.957031 43.46875 123.777344 43.398438 123.980469 C 43.242188 124.421875 43.429688 124.910156 43.839844 125.132812 C 43.882812 125.160156 43.933594 125.179688 43.984375 125.199219 C 44.222656 125.28125 44.484375 125.269531 44.714844 125.15625 C 44.941406 125.046875 45.117188 124.855469 45.199219 124.613281 C 45.21875 124.566406 46.890625 119.816406 49.515625 115.480469 C 49.75 115.09375 50.710938 114.285156 54.515625 113.234375 L 54.546875 113.222656 C 54.664062 113.191406 54.757812 113.164062 54.828125 113.144531 C 56.003906 112.800781 56.726562 111.414062 57.925781 109.113281 L 58.007812 108.957031 C 58.472656 108.070312 60.277344 107.863281 61.8125 107.96875 C 62.90625 108.042969 63.957031 107.550781 64.5625 106.683594 C 64.953125 106.121094 65.09375 105.496094 64.972656 104.867188 C 64.796875 103.980469 64.128906 103.171875 62.921875 102.390625 Z M 52.589844 94.660156 C 51.683594 94.414062 50.722656 94.265625 49.722656 94.222656 L 53.804688 84.972656 C 53.921875 84.703125 54.011719 84.425781 54.070312 84.140625 L 55.015625 81.84375 C 55.199219 81.398438 55.449219 81.027344 55.765625 80.75 C 56.5625 80.042969 57.144531 80.320312 57.363281 80.421875 C 57.960938 80.703125 58.222656 81.140625 58.1875 81.792969 C 58.171875 82.058594 58.101562 82.335938 57.972656 82.625 Z M 51.53125 82.082031 C 51.894531 82.277344 52.109375 82.578125 52.203125 83.003906 C 52.246094 83.191406 52.25 83.398438 52.222656 83.613281 L 50.972656 86.65625 L 47.605469 94.289062 C 47.457031 94.304688 47.308594 94.320312 47.160156 94.339844 C 46.113281 94.480469 45.140625 94.5 44.269531 94.40625 L 49.226562 82.8125 L 49.242188 82.777344 C 49.320312 82.5625 49.789062 81.523438 51.140625 81.921875 C 51.285156 81.964844 51.417969 82.019531 51.53125 82.082031 Z M 60.179688 86.011719 Z M 60.179688 86.011719 " fill-opacity="1" fill-rule="nonzero"/></g></g></g><g clip-path="url(#cc6e636cc8)"><g clip-path="url(#783185214d)"><g clip-path="url(#539fe965c5)"><path fill="#000000" d="M 101.164062 113.160156 C 101.046875 112.40625 100.621094 111.753906 99.925781 111.273438 C 99.460938 110.953125 98.984375 110.757812 98.503906 110.691406 L 98.847656 110.1875 C 99.488281 109.316406 100.1875 107.230469 98.246094 105.554688 C 97.746094 105.117188 97.175781 104.839844 96.582031 104.730469 C 97.003906 104.113281 97.269531 103.453125 97.378906 102.765625 C 97.609375 101.289062 97.089844 100.066406 95.917969 99.332031 C 94.691406 98.5625 93.367188 98.601562 92.191406 99.445312 C 91.785156 99.738281 91.425781 100.117188 91.121094 100.582031 L 90.714844 101.199219 C 90.402344 100.765625 89.972656 100.382812 89.519531 100.132812 C 87.765625 99.109375 85.65625 99.894531 84.140625 102.117188 C 83.144531 103.582031 79.195312 109.757812 77.269531 112.773438 C 76.589844 110.570312 75.25 108.964844 73.40625 108.125 C 72.101562 107.53125 71.058594 107.40625 70.21875 107.738281 C 69.621094 107.972656 69.167969 108.433594 68.90625 109.066406 C 68.503906 110.039062 68.660156 111.191406 69.3125 112.070312 C 70.226562 113.304688 71.027344 114.9375 70.53125 115.808594 L 70.441406 115.960938 C 69.15625 118.210938 68.378906 119.570312 68.71875 120.742188 C 68.742188 120.8125 68.769531 120.90625 68.804688 121.023438 L 68.816406 121.054688 C 69.980469 124.828125 69.820312 126.070312 69.621094 126.476562 C 67.402344 130.992188 64.292969 134.996094 64.261719 135.039062 C 63.9375 135.453125 64.011719 136.054688 64.425781 136.378906 C 64.46875 136.410156 64.511719 136.4375 64.554688 136.464844 C 64.96875 136.6875 65.476562 136.582031 65.765625 136.214844 C 65.898438 136.042969 69.03125 132.011719 71.335938 127.320312 C 72.105469 125.753906 71.371094 122.847656 70.636719 120.476562 C 70.601562 120.363281 70.574219 120.273438 70.554688 120.207031 C 70.441406 119.8125 71.359375 118.203125 72.101562 116.910156 L 72.1875 116.757812 C 73.316406 114.785156 71.832031 112.261719 70.847656 110.933594 C 70.59375 110.589844 70.527344 110.152344 70.675781 109.792969 C 70.765625 109.574219 70.875 109.53125 70.917969 109.515625 C 71.070312 109.453125 71.53125 109.371094 72.617188 109.863281 C 73.964844 110.476562 74.914062 111.640625 75.441406 113.320312 C 75.851562 114.640625 75.835938 115.796875 75.835938 115.808594 C 75.828125 116.175781 76.023438 116.511719 76.355469 116.679688 C 81.671875 119.40625 79.492188 124.601562 79.398438 124.820312 C 79.296875 125.054688 79.289062 125.3125 79.382812 125.550781 C 79.476562 125.789062 79.65625 125.976562 79.890625 126.078125 C 80.371094 126.289062 80.9375 126.066406 81.148438 125.585938 C 81.179688 125.511719 81.914062 123.804688 81.808594 121.660156 C 81.714844 119.792969 80.957031 117.203125 77.890625 115.351562 C 78.824219 113.886719 84.527344 104.941406 85.71875 103.191406 C 86.644531 101.832031 87.730469 101.300781 88.566406 101.789062 L 88.589844 101.804688 C 88.839844 101.941406 89.621094 102.457031 89.3125 103.339844 L 83.957031 111.507812 C 83.75 111.382812 83.621094 111.320312 83.601562 111.3125 C 83.128906 111.089844 82.558594 111.292969 82.335938 111.765625 C 82.109375 112.242188 82.3125 112.816406 82.78125 113.039062 C 82.882812 113.089844 85.308594 114.347656 86.960938 117.863281 C 88.433594 121 90.144531 122.28125 91.03125 122.769531 C 91.347656 122.941406 91.550781 123.007812 91.585938 123.019531 C 92.089844 123.171875 92.625 122.890625 92.78125 122.386719 C 92.855469 122.144531 92.832031 121.882812 92.714844 121.660156 C 92.59375 121.433594 92.394531 121.269531 92.15625 121.195312 C 92.15625 121.195312 91.9375 121.113281 91.585938 120.871094 L 91.769531 120.605469 C 91.769531 120.601562 91.773438 120.597656 91.773438 120.59375 L 91.792969 120.566406 C 93.878906 117.527344 96.390625 113.882812 96.601562 113.617188 C 97.78125 112.113281 98.523438 112.628906 98.839844 112.847656 C 99.101562 113.027344 99.238281 113.21875 99.277344 113.449219 C 99.359375 113.964844 98.972656 114.617188 98.824219 114.8125 L 89.824219 127.820312 C 89.125 128.832031 88.234375 129.671875 87.183594 130.316406 L 82.402344 133.234375 C 82.183594 133.367188 82.03125 133.578125 81.972656 133.828125 C 81.910156 134.074219 81.949219 134.332031 82.085938 134.550781 C 82.171875 134.691406 82.292969 134.808594 82.441406 134.890625 C 82.738281 135.054688 83.105469 135.042969 83.398438 134.867188 L 88.179688 131.945312 C 89.460938 131.164062 90.542969 130.140625 91.394531 128.90625 L 100.359375 115.949219 C 100.53125 115.722656 101.378906 114.515625 101.164062 113.160156 Z M 96.996094 107 C 98.023438 107.882812 97.488281 108.800781 97.296875 109.066406 L 90.214844 119.496094 L 90.191406 119.523438 C 89.644531 118.839844 89.140625 118.007812 88.691406 117.050781 C 88.625 116.914062 88.5625 116.78125 88.492188 116.652344 L 93.101562 109.699219 L 94.988281 107.003906 C 95.15625 106.863281 95.332031 106.757812 95.515625 106.6875 C 96.050781 106.488281 96.523438 106.589844 96.996094 107 Z M 90.96875 104.296875 C 90.972656 104.296875 90.972656 104.296875 90.972656 104.296875 L 92.722656 101.628906 C 92.894531 101.363281 93.089844 101.152344 93.304688 100.996094 C 93.835938 100.617188 94.34375 100.601562 94.902344 100.949219 C 95.109375 101.078125 95.65625 101.421875 95.488281 102.472656 C 95.425781 102.886719 95.25 103.300781 94.972656 103.695312 L 93.550781 105.730469 C 93.34375 105.933594 93.15625 106.15625 92.992188 106.402344 L 87.40625 114.832031 C 86.832031 114.011719 86.191406 113.28125 85.492188 112.652344 Z M 90.96875 104.296875 " fill-opacity="1" fill-rule="nonzero"/></g></g></g><g clip-path="url(#07b42f3370)"><g clip-path="url(#1567f6a44b)"><path fill="#ff66c4" d="M 100.46875 51.039062 L 173.246094 51.039062 L 173.246094 122.253906 L 100.46875 122.253906 Z M 100.46875 51.039062 " fill-opacity="1" fill-rule="nonzero"/></g></g><g clip-path="url(#de92a8f165)"><g clip-path="url(#7083fb7447)"><g clip-path="url(#76bee728f1)"><g clip-path="url(#b7b9dc2e61)"><path fill="#000000" d="M 142.625 66.644531 C 131.210938 63.472656 119.410156 70.152344 116.238281 81.5625 C 113.070312 92.976562 119.734375 104.785156 131.148438 107.957031 C 142.558594 111.128906 154.382812 104.457031 157.554688 93.042969 C 160.722656 81.628906 154.039062 69.8125 142.625 66.644531 Z M 132.304688 103.828125 C 123.175781 101.292969 117.835938 91.84375 120.371094 82.710938 C 122.90625 73.582031 132.355469 68.242188 141.488281 70.777344 C 150.617188 73.3125 155.957031 82.765625 153.421875 91.894531 C 150.886719 101.023438 141.433594 106.367188 132.304688 103.828125 Z M 144.699219 87.246094 C 146.414062 87.722656 148.183594 86.722656 148.660156 85.007812 C 149.136719 83.292969 148.136719 81.523438 146.421875 81.050781 C 144.707031 80.574219 142.9375 81.570312 142.460938 83.285156 C 141.984375 85 142.984375 86.769531 144.699219 87.246094 Z M 130.242188 83.230469 C 131.953125 83.707031 133.722656 82.707031 134.199219 80.992188 C 134.675781 79.277344 133.675781 77.507812 131.960938 77.03125 C 130.246094 76.554688 128.480469 77.554688 128.003906 79.269531 C 127.527344 80.984375 128.527344 82.753906 130.242188 83.230469 Z M 133.738281 98.664062 C 138.554688 100 143.46875 98.128906 146.292969 94.363281 L 125.203125 88.503906 C 125.683594 93.1875 128.925781 97.328125 133.738281 98.664062 Z M 133.738281 98.664062 " fill-opacity="1" fill-rule="nonzero"/></g></g></g></g><g clip-path="url(#61c9299672)"><g clip-path="url(#fb88f352b3)"><g clip-path="url(#a67017cefb)"><path fill="#13b818" d="M 151.992188 154.050781 C 132.304688 162.050781 109.53125 155.003906 97.847656 137.289062 C 96.382812 135.070312 95.996094 132.332031 96.785156 129.785156 C 97.582031 127.214844 99.46875 125.160156 101.960938 124.144531 L 166.976562 97.722656 C 169.46875 96.707031 172.253906 96.863281 174.617188 98.148438 C 176.964844 99.425781 178.59375 101.65625 179.09375 104.265625 C 183.078125 125.109375 171.683594 146.046875 151.992188 154.050781 Z M 151.992188 154.050781 " fill-opacity="1" fill-rule="nonzero"/></g></g></g><g clip-path="url(#cc9249dce8)"><g clip-path="url(#76149212ec)"><g clip-path="url(#520af19d28)"><path fill="#ffffff" d="M 167.664062 99.410156 C 171.796875 97.730469 176.464844 100.226562 177.304688 104.609375 C 181.066406 124.285156 170.574219 144.527344 151.304688 152.359375 C 132.039062 160.191406 110.398438 153.007812 99.367188 136.285156 C 96.910156 132.5625 98.515625 127.515625 102.648438 125.835938 L 167.664062 99.410156 M 166.292969 96.03125 L 101.273438 122.457031 C 98.277344 123.675781 96.003906 126.148438 95.046875 129.242188 C 94.09375 132.316406 94.558594 135.613281 96.324219 138.292969 C 102.164062 147.144531 110.980469 153.792969 121.148438 157.007812 C 131.453125 160.261719 142.652344 159.8125 152.679688 155.738281 C 162.707031 151.660156 171.042969 144.171875 176.152344 134.652344 C 181.195312 125.253906 182.875 114.34375 180.882812 103.925781 C 180.28125 100.773438 178.316406 98.085938 175.488281 96.546875 C 172.644531 95.003906 169.289062 94.8125 166.292969 96.03125 Z M 166.292969 96.03125 " fill-opacity="1" fill-rule="nonzero"/></g></g></g><g clip-path="url(#7c86b20111)"><g clip-path="url(#83fdf8b2df)"><g clip-path="url(#391dea0e3c)"><path fill="#ffffff" d="M 136.796875 127.285156 C 136.980469 127.730469 137.117188 128.191406 137.207031 128.667969 C 137.300781 129.140625 137.34375 129.617188 137.339844 130.101562 C 137.335938 130.582031 137.285156 131.0625 137.1875 131.535156 C 137.089844 132.007812 136.949219 132.464844 136.761719 132.910156 C 136.574219 133.355469 136.34375 133.777344 136.074219 134.175781 C 135.804688 134.574219 135.496094 134.945312 135.152344 135.285156 C 134.808594 135.625 134.433594 135.925781 134.03125 136.191406 C 133.628906 136.457031 133.203125 136.679688 132.757812 136.863281 C 132.308594 137.042969 131.847656 137.179688 131.375 137.269531 C 130.902344 137.363281 130.421875 137.40625 129.941406 137.402344 C 129.457031 137.398438 128.980469 137.347656 128.507812 137.25 C 128.035156 137.15625 127.574219 137.011719 127.132812 136.824219 C 126.6875 136.636719 126.265625 136.40625 125.863281 136.136719 C 125.464844 135.867188 125.097656 135.558594 124.757812 135.214844 C 124.417969 134.871094 124.117188 134.5 123.851562 134.09375 C 123.585938 133.691406 123.359375 133.265625 123.179688 132.820312 C 122.996094 132.371094 122.859375 131.914062 122.769531 131.4375 C 122.679688 130.964844 122.636719 130.484375 122.636719 130.003906 C 122.640625 129.519531 122.691406 129.042969 122.789062 128.570312 C 122.886719 128.097656 123.027344 127.640625 123.214844 127.195312 C 123.40625 126.75 123.632812 126.328125 123.90625 125.929688 C 124.175781 125.527344 124.484375 125.160156 124.824219 124.820312 C 125.167969 124.480469 125.542969 124.179688 125.945312 123.914062 C 126.347656 123.648438 126.773438 123.425781 127.222656 123.242188 C 127.667969 123.0625 128.128906 122.925781 128.601562 122.832031 C 129.078125 122.742188 129.554688 122.699219 130.039062 122.703125 C 130.519531 122.703125 131 122.753906 131.472656 122.851562 C 131.945312 122.949219 132.402344 123.09375 132.847656 123.28125 C 133.292969 123.46875 133.714844 123.695312 134.113281 123.96875 C 134.511719 124.238281 134.882812 124.546875 135.222656 124.890625 C 135.558594 125.234375 135.863281 125.605469 136.128906 126.007812 C 136.394531 126.414062 136.617188 126.835938 136.796875 127.285156 Z M 136.796875 127.285156 " fill-opacity="1" fill-rule="nonzero"/></g></g></g><g clip-path="url(#47b7081581)"><g clip-path="url(#acd086bcaa)"><g clip-path="url(#ae3800095e)"><path fill="#000000" d="M 135.433594 125.117188 C 138.160156 128.125 137.933594 132.773438 134.925781 135.5 L 125.050781 124.609375 C 128.058594 121.882812 132.707031 122.109375 135.433594 125.117188 Z M 135.433594 125.117188 " fill-opacity="1" fill-rule="nonzero"/></g></g></g><g clip-path="url(#20dd67fdb1)"><g clip-path="url(#c1f5f2fb94)"><g clip-path="url(#aa0606c4df)"><path fill="#ffffff" d="M 157.828125 118.738281 C 158.007812 119.183594 158.144531 119.644531 158.234375 120.121094 C 158.328125 120.59375 158.371094 121.070312 158.367188 121.554688 C 158.363281 122.039062 158.3125 122.515625 158.214844 122.988281 C 158.121094 123.460938 157.976562 123.917969 157.789062 124.363281 C 157.601562 124.808594 157.371094 125.230469 157.101562 125.628906 C 156.832031 126.03125 156.523438 126.398438 156.179688 126.738281 C 155.835938 127.078125 155.464844 127.378906 155.058594 127.644531 C 154.65625 127.910156 154.230469 128.132812 153.785156 128.316406 C 153.335938 128.496094 152.878906 128.632812 152.402344 128.722656 C 151.929688 128.816406 151.449219 128.859375 150.96875 128.855469 C 150.484375 128.851562 150.007812 128.804688 149.535156 128.707031 C 149.0625 128.609375 148.605469 128.464844 148.160156 128.277344 C 147.714844 128.089844 147.292969 127.859375 146.890625 127.589844 C 146.492188 127.320312 146.125 127.011719 145.785156 126.667969 C 145.445312 126.324219 145.144531 125.953125 144.878906 125.546875 C 144.613281 125.144531 144.390625 124.71875 144.207031 124.273438 C 144.027344 123.828125 143.890625 123.367188 143.796875 122.890625 C 143.707031 122.417969 143.664062 121.9375 143.667969 121.457031 C 143.667969 120.972656 143.71875 120.496094 143.816406 120.023438 C 143.914062 119.550781 144.058594 119.09375 144.246094 118.648438 C 144.433594 118.203125 144.660156 117.78125 144.933594 117.382812 C 145.203125 116.980469 145.511719 116.613281 145.855469 116.273438 C 146.199219 115.933594 146.570312 115.632812 146.972656 115.367188 C 147.378906 115.101562 147.800781 114.878906 148.25 114.695312 C 148.695312 114.515625 149.15625 114.378906 149.632812 114.285156 C 150.105469 114.195312 150.582031 114.152344 151.066406 114.15625 C 151.546875 114.160156 152.027344 114.207031 152.5 114.304688 C 152.972656 114.402344 153.429688 114.546875 153.875 114.734375 C 154.320312 114.921875 154.742188 115.148438 155.140625 115.421875 C 155.539062 115.691406 155.910156 116 156.25 116.34375 C 156.589844 116.6875 156.890625 117.058594 157.15625 117.460938 C 157.421875 117.867188 157.644531 118.289062 157.828125 118.738281 Z M 157.828125 118.738281 " fill-opacity="1" fill-rule="nonzero"/></g></g></g><g clip-path="url(#66314c782e)"><g clip-path="url(#ac4e2ba0e5)"><g clip-path="url(#8fdf7a9d38)"><path fill="#000000" d="M 156.460938 116.570312 C 159.1875 119.578125 158.960938 124.226562 155.953125 126.953125 L 146.078125 116.0625 C 149.085938 113.335938 153.734375 113.5625 156.460938 116.570312 Z M 156.460938 116.570312 " fill-opacity="1" fill-rule="nonzero"/></g></g></g><g clip-path="url(#406f568d6f)"><g clip-path="url(#d16416fb63)"><g clip-path="url(#d629bf3fd3)"><path fill="#ffffff" d="M 156.515625 139.027344 C 156.15625 138.796875 155.679688 138.902344 155.449219 139.261719 C 151.96875 144.679688 144.820312 146.351562 139.3125 143.117188 C 139.675781 142.398438 139.839844 141.59375 139.75 140.765625 C 139.703125 140.339844 139.320312 140.035156 138.898438 140.082031 C 138.472656 140.128906 138.167969 140.507812 138.214844 140.933594 C 138.371094 142.359375 137.320312 143.707031 135.664062 144.203125 C 135.257812 144.328125 135.023438 144.757812 135.144531 145.164062 C 135.269531 145.574219 135.699219 145.804688 136.105469 145.683594 C 136.289062 145.625 136.46875 145.5625 136.640625 145.492188 C 137.320312 145.21875 137.910156 144.828125 138.390625 144.363281 C 142.167969 146.640625 146.648438 146.859375 150.476562 145.300781 C 152.96875 144.289062 155.1875 142.523438 156.75 140.09375 C 156.980469 139.734375 156.875 139.257812 156.515625 139.027344 Z M 156.515625 139.027344 " fill-opacity="1" fill-rule="nonzero"/></g></g></g><g clip-path="url(#fa607a3818)"><g clip-path="url(#acd6eb635f)"><g clip-path="url(#eddb760b04)"><path fill="#ffdf2b" d="M 215.363281 79.507812 C 216.46875 80.074219 217.542969 80.695312 218.585938 81.371094 C 219.628906 82.042969 220.636719 82.765625 221.609375 83.539062 C 222.582031 84.308594 223.515625 85.128906 224.40625 85.992188 C 225.300781 86.855469 226.148438 87.761719 226.949219 88.707031 C 227.753906 89.65625 228.507812 90.640625 229.214844 91.660156 C 229.921875 92.679688 230.578125 93.734375 231.179688 94.820312 C 231.785156 95.90625 232.332031 97.019531 232.824219 98.15625 C 233.320312 99.296875 233.757812 100.457031 234.136719 101.640625 C 234.515625 102.824219 234.835938 104.019531 235.097656 105.234375 C 235.359375 106.449219 235.5625 107.671875 235.703125 108.90625 C 235.84375 110.140625 235.925781 111.378906 235.945312 112.621094 C 235.96875 113.863281 235.925781 115.101562 235.824219 116.339844 C 235.722656 117.578125 235.5625 118.804688 235.339844 120.027344 C 235.117188 121.25 234.832031 122.457031 234.492188 123.652344 C 234.152344 124.847656 233.753906 126.019531 233.296875 127.175781 C 232.839844 128.332031 232.328125 129.460938 231.761719 130.566406 C 231.191406 131.667969 230.570312 132.742188 229.898438 133.785156 C 229.226562 134.832031 228.503906 135.839844 227.730469 136.8125 C 226.957031 137.785156 226.140625 138.714844 225.277344 139.609375 C 224.414062 140.5 223.507812 141.347656 222.5625 142.152344 C 221.613281 142.957031 220.628906 143.710938 219.609375 144.417969 C 218.585938 145.125 217.535156 145.777344 216.449219 146.382812 C 215.363281 146.984375 214.25 147.53125 213.109375 148.027344 C 211.972656 148.519531 210.808594 148.957031 209.628906 149.335938 C 208.445312 149.714844 207.246094 150.039062 206.03125 150.300781 C 204.820312 150.5625 203.59375 150.761719 202.363281 150.90625 C 201.128906 151.046875 199.890625 151.128906 198.648438 151.148438 C 197.40625 151.167969 196.167969 151.128906 194.929688 151.027344 C 193.691406 150.925781 192.460938 150.761719 191.238281 150.539062 C 190.019531 150.316406 188.808594 150.035156 187.617188 149.695312 C 186.421875 149.351562 185.246094 148.953125 184.09375 148.496094 C 182.9375 148.039062 181.808594 147.527344 180.703125 146.960938 C 179.597656 146.394531 178.523438 145.773438 177.480469 145.101562 C 176.4375 144.425781 175.429688 143.703125 174.457031 142.933594 C 173.484375 142.160156 172.550781 141.34375 171.660156 140.476562 C 170.765625 139.613281 169.917969 138.707031 169.117188 137.761719 C 168.3125 136.816406 167.558594 135.832031 166.851562 134.808594 C 166.144531 133.789062 165.488281 132.734375 164.886719 131.648438 C 164.285156 130.5625 163.734375 129.449219 163.242188 128.3125 C 162.746094 127.171875 162.3125 126.011719 161.929688 124.828125 C 161.550781 123.644531 161.230469 122.449219 160.96875 121.234375 C 160.707031 120.019531 160.503906 118.796875 160.363281 117.5625 C 160.222656 116.328125 160.140625 115.089844 160.121094 113.847656 C 160.101562 112.609375 160.140625 111.367188 160.242188 110.128906 C 160.34375 108.894531 160.507812 107.664062 160.730469 106.441406 C 160.953125 105.21875 161.234375 104.011719 161.574219 102.816406 C 161.914062 101.625 162.3125 100.449219 162.769531 99.292969 C 163.226562 98.140625 163.738281 97.007812 164.308594 95.90625 C 164.875 94.800781 165.496094 93.726562 166.167969 92.683594 C 166.839844 91.640625 167.5625 90.628906 168.335938 89.65625 C 169.109375 88.683594 169.925781 87.753906 170.789062 86.859375 C 171.652344 85.96875 172.558594 85.121094 173.507812 84.316406 C 174.453125 83.515625 175.4375 82.757812 176.457031 82.050781 C 177.480469 81.347656 178.535156 80.691406 179.621094 80.089844 C 180.703125 79.484375 181.816406 78.9375 182.957031 78.441406 C 184.097656 77.949219 185.257812 77.511719 186.441406 77.132812 C 187.621094 76.753906 188.820312 76.433594 190.035156 76.167969 C 191.246094 75.90625 192.472656 75.707031 193.707031 75.5625 C 194.9375 75.421875 196.175781 75.339844 197.417969 75.320312 C 198.660156 75.300781 199.898438 75.34375 201.136719 75.445312 C 202.375 75.546875 203.605469 75.707031 204.828125 75.929688 C 206.050781 76.152344 207.257812 76.433594 208.449219 76.777344 C 209.644531 77.117188 210.820312 77.515625 211.972656 77.972656 C 213.128906 78.429688 214.257812 78.941406 215.363281 79.507812 Z M 215.363281 79.507812 " fill-opacity="1" fill-rule="nonzero"/></g></g></g><g clip-path="url(#e87e775d28)"><g clip-path="url(#460abbf7be)"><g clip-path="url(#5a39176e03)"><path fill="#fffff7" d="M 209.257812 78.636719 C 228.367188 84.835938 238.828125 105.351562 232.628906 124.460938 C 226.429688 143.566406 205.914062 154.03125 186.804688 147.832031 C 167.699219 141.632812 157.234375 121.117188 163.433594 102.007812 C 169.636719 82.902344 190.152344 72.4375 209.257812 78.636719 M 210.210938 75.695312 C 200.1875 72.441406 189.492188 73.289062 180.101562 78.078125 C 170.710938 82.867188 163.75 91.027344 160.496094 101.054688 C 157.242188 111.082031 158.085938 121.773438 162.878906 131.164062 C 167.667969 140.554688 175.824219 147.519531 185.851562 150.769531 C 195.878906 154.023438 206.570312 153.179688 215.960938 148.390625 C 225.351562 143.601562 232.316406 135.441406 235.570312 125.414062 C 238.824219 115.386719 237.976562 104.695312 233.1875 95.304688 C 228.398438 85.914062 220.238281 78.949219 210.210938 75.695312 Z M 210.210938 75.695312 " fill-opacity="1" fill-rule="nonzero"/></g></g></g><g clip-path="url(#91d8b04c27)"><g clip-path="url(#dc62f5aa23)"><g clip-path="url(#5ba1974245)"><path fill="#fffff7" d="M 190.257812 137.191406 C 187.039062 136.148438 185.269531 132.675781 186.3125 129.457031 C 187.359375 126.234375 190.828125 124.464844 194.046875 125.511719 C 197.269531 126.554688 199.039062 130.023438 197.996094 133.246094 C 196.949219 136.464844 193.480469 138.238281 190.257812 137.191406 Z M 193.214844 128.085938 C 191.414062 127.5 189.472656 128.492188 188.890625 130.289062 C 188.304688 132.089844 189.292969 134.03125 191.09375 134.613281 C 192.894531 135.199219 194.835938 134.210938 195.417969 132.410156 C 196.003906 130.609375 195.011719 128.667969 193.214844 128.085938 Z M 193.214844 128.085938 " fill-opacity="1" fill-rule="nonzero"/></g></g></g><g clip-path="url(#f543096e50)"><g clip-path="url(#4f86d907e2)"><g clip-path="url(#414ebb48f7)"><path fill="#000000" d="M 216.53125 124.289062 C 215.617188 123.992188 215.117188 123.015625 215.414062 122.101562 C 216.164062 119.792969 214.894531 117.304688 212.582031 116.554688 C 210.273438 115.804688 207.785156 117.074219 207.035156 119.382812 C 206.742188 120.296875 205.761719 120.796875 204.847656 120.5 C 203.9375 120.203125 203.4375 119.222656 203.730469 118.3125 C 205.074219 114.179688 209.523438 111.910156 213.65625 113.25 C 217.789062 114.589844 220.058594 119.042969 218.71875 123.171875 C 218.421875 124.085938 217.441406 124.585938 216.53125 124.289062 Z M 216.53125 124.289062 " fill-opacity="1" fill-rule="nonzero"/></g></g></g><g clip-path="url(#294d71eaee)"><g clip-path="url(#9bcd6b1252)"><g clip-path="url(#3c71098030)"><path fill="#000000" d="M 188.25 115.113281 C 187.335938 114.816406 186.835938 113.835938 187.132812 112.925781 C 187.882812 110.617188 186.613281 108.128906 184.300781 107.378906 C 181.992188 106.628906 179.503906 107.898438 178.753906 110.207031 C 178.460938 111.117188 177.480469 111.617188 176.566406 111.324219 C 175.652344 111.027344 175.15625 110.046875 175.449219 109.132812 C 176.792969 105.003906 181.242188 102.730469 185.375 104.074219 C 189.507812 105.414062 191.777344 109.867188 190.4375 113.996094 C 190.140625 114.910156 189.160156 115.410156 188.25 115.113281 Z M 188.25 115.113281 " fill-opacity="1" fill-rule="nonzero"/></g></g></g></svg>