<svg xmlns="http://www.w3.org/2000/svg" xmlns:xlink="http://www.w3.org/1999/xlink" width="506" zoomAndPan="magnify" viewBox="0 0 379.5 235.499993" height="314" preserveAspectRatio="xMidYMid meet" version="1.0"><defs><clipPath id="53ac3d1348"><path d="M 205 18 L 346 18 L 346 159 L 205 159 Z M 205 18 " clip-rule="nonzero"/></clipPath><clipPath id="07421f47c5"><path d="M 184.90625 40.34375 L 325.917969 -0.0664062 L 365.710938 138.785156 L 224.699219 179.199219 Z M 184.90625 40.34375 " clip-rule="nonzero"/></clipPath><clipPath id="2bd2b0e95d"><path d="M 184.90625 40.34375 L 325.917969 -0.0664062 L 365.710938 138.785156 L 224.699219 179.199219 Z M 184.90625 40.34375 " clip-rule="nonzero"/></clipPath><clipPath id="ac8f6fa5ad"><path d="M 203 16 L 348 16 L 348 162 L 203 162 Z M 203 16 " clip-rule="nonzero"/></clipPath><clipPath id="97df4265fa"><path d="M 184.90625 40.34375 L 325.917969 -0.0664062 L 365.710938 138.785156 L 224.699219 179.199219 Z M 184.90625 40.34375 " clip-rule="nonzero"/></clipPath><clipPath id="de40f2aaf7"><path d="M 184.90625 40.34375 L 325.917969 -0.0664062 L 365.710938 138.785156 L 224.699219 179.199219 Z M 184.90625 40.34375 " clip-rule="nonzero"/></clipPath><clipPath id="9a0074fd82"><path d="M 261 102 L 295 102 L 295 113 L 261 113 Z M 261 102 " clip-rule="nonzero"/></clipPath><clipPath id="ced4ab6886"><path d="M 184.90625 40.34375 L 325.917969 -0.0664062 L 365.710938 138.785156 L 224.699219 179.199219 Z M 184.90625 40.34375 " clip-rule="nonzero"/></clipPath><clipPath id="96059a81bb"><path d="M 184.90625 40.34375 L 325.917969 -0.0664062 L 365.710938 138.785156 L 224.699219 179.199219 Z M 184.90625 40.34375 " clip-rule="nonzero"/></clipPath><clipPath id="9b637bfdfd"><path d="M 282 79 L 299 79 L 299 92 L 282 92 Z M 282 79 " clip-rule="nonzero"/></clipPath><clipPath id="bc6fa1c8bd"><path d="M 184.90625 40.34375 L 325.917969 -0.0664062 L 365.710938 138.785156 L 224.699219 179.199219 Z M 184.90625 40.34375 " clip-rule="nonzero"/></clipPath><clipPath id="88f9514115"><path d="M 184.90625 40.34375 L 325.917969 -0.0664062 L 365.710938 138.785156 L 224.699219 179.199219 Z M 184.90625 40.34375 " clip-rule="nonzero"/></clipPath><clipPath id="031eb1d196"><path d="M 253 88 L 270 88 L 270 101 L 253 101 Z M 253 88 " clip-rule="nonzero"/></clipPath><clipPath id="0f24c322ba"><path d="M 184.90625 40.34375 L 325.917969 -0.0664062 L 365.710938 138.785156 L 224.699219 179.199219 Z M 184.90625 40.34375 " clip-rule="nonzero"/></clipPath><clipPath id="1fd4077dd9"><path d="M 184.90625 40.34375 L 325.917969 -0.0664062 L 365.710938 138.785156 L 224.699219 179.199219 Z M 184.90625 40.34375 " clip-rule="nonzero"/></clipPath><clipPath id="def3d39691"><path d="M 30 79 L 139 79 L 139 188 L 30 188 Z M 30 79 " clip-rule="nonzero"/></clipPath><clipPath id="1d5c901252"><path d="M 59.902344 48.898438 L 168.902344 108.507812 L 109.296875 217.507812 L 0.292969 157.902344 Z M 59.902344 48.898438 " clip-rule="nonzero"/></clipPath><clipPath id="109f07588d"><path d="M 59.902344 48.898438 L 168.902344 108.507812 L 109.296875 217.507812 L 0.292969 157.902344 Z M 59.902344 48.898438 " clip-rule="nonzero"/></clipPath><clipPath id="cca9b378f3"><path d="M 28 76 L 142 76 L 142 190 L 28 190 Z M 28 76 " clip-rule="nonzero"/></clipPath><clipPath id="b1950d81ec"><path d="M 59.902344 48.898438 L 168.902344 108.507812 L 109.296875 217.507812 L 0.292969 157.902344 Z M 59.902344 48.898438 " clip-rule="nonzero"/></clipPath><clipPath id="efce9bf41a"><path d="M 59.902344 48.898438 L 168.902344 108.507812 L 109.296875 217.507812 L 0.292969 157.902344 Z M 59.902344 48.898438 " clip-rule="nonzero"/></clipPath><clipPath id="3694343032"><path d="M 82 91 L 87 91 L 87 118 L 82 118 Z M 82 91 " clip-rule="nonzero"/></clipPath><clipPath id="425ccb7cdf"><path d="M 59.902344 48.898438 L 168.902344 108.507812 L 109.296875 217.507812 L 0.292969 157.902344 Z M 59.902344 48.898438 " clip-rule="nonzero"/></clipPath><clipPath id="3b3b87b4ec"><path d="M 59.902344 48.898438 L 168.902344 108.507812 L 109.296875 217.507812 L 0.292969 157.902344 Z M 59.902344 48.898438 " clip-rule="nonzero"/></clipPath><clipPath id="b405a6a079"><path d="M 89 96 L 95 96 L 95 116 L 89 116 Z M 89 96 " clip-rule="nonzero"/></clipPath><clipPath id="ed6cac3456"><path d="M 59.902344 48.898438 L 168.902344 108.507812 L 109.296875 217.507812 L 0.292969 157.902344 Z M 59.902344 48.898438 " clip-rule="nonzero"/></clipPath><clipPath id="d16c7f8f70"><path d="M 59.902344 48.898438 L 168.902344 108.507812 L 109.296875 217.507812 L 0.292969 157.902344 Z M 59.902344 48.898438 " clip-rule="nonzero"/></clipPath><clipPath id="487376c48b"><path d="M 97 111 L 121 111 L 121 125 L 97 125 Z M 97 111 " clip-rule="nonzero"/></clipPath><clipPath id="1de331f34e"><path d="M 59.902344 48.898438 L 168.902344 108.507812 L 109.296875 217.507812 L 0.292969 157.902344 Z M 59.902344 48.898438 " clip-rule="nonzero"/></clipPath><clipPath id="a964c8edf9"><path d="M 59.902344 48.898438 L 168.902344 108.507812 L 109.296875 217.507812 L 0.292969 157.902344 Z M 59.902344 48.898438 " clip-rule="nonzero"/></clipPath><clipPath id="31c509ceb1"><path d="M 96 105 L 112 105 L 112 119 L 96 119 Z M 96 105 " clip-rule="nonzero"/></clipPath><clipPath id="1ccb332a3a"><path d="M 59.902344 48.898438 L 168.902344 108.507812 L 109.296875 217.507812 L 0.292969 157.902344 Z M 59.902344 48.898438 " clip-rule="nonzero"/></clipPath><clipPath id="bb7ee59291"><path d="M 59.902344 48.898438 L 168.902344 108.507812 L 109.296875 217.507812 L 0.292969 157.902344 Z M 59.902344 48.898438 " clip-rule="nonzero"/></clipPath><clipPath id="97956c8928"><path d="M 43 100 L 81 100 L 81 159 L 43 159 Z M 43 100 " clip-rule="nonzero"/></clipPath><clipPath id="ecf10db875"><path d="M 59.902344 48.898438 L 168.902344 108.507812 L 109.296875 217.507812 L 0.292969 157.902344 Z M 59.902344 48.898438 " clip-rule="nonzero"/></clipPath><clipPath id="528f6c29df"><path d="M 59.902344 48.898438 L 168.902344 108.507812 L 109.296875 217.507812 L 0.292969 157.902344 Z M 59.902344 48.898438 " clip-rule="nonzero"/></clipPath><clipPath id="024c66ad38"><path d="M 79 125 L 126 125 L 126 173 L 79 173 Z M 79 125 " clip-rule="nonzero"/></clipPath><clipPath id="dfadc962f3"><path d="M 59.902344 48.898438 L 168.902344 108.507812 L 109.296875 217.507812 L 0.292969 157.902344 Z M 59.902344 48.898438 " clip-rule="nonzero"/></clipPath><clipPath id="ec3ecc601b"><path d="M 59.902344 48.898438 L 168.902344 108.507812 L 109.296875 217.507812 L 0.292969 157.902344 Z M 59.902344 48.898438 " clip-rule="nonzero"/></clipPath><clipPath id="91aa337cca"><path d="M 111 100 L 258 100 L 258 207 L 111 207 Z M 111 100 " clip-rule="nonzero"/></clipPath><clipPath id="e6dd10ed4f"><path d="M 101.414062 152.652344 L 252.5625 91.222656 L 285.8125 173.035156 L 134.667969 234.464844 Z M 101.414062 152.652344 " clip-rule="nonzero"/></clipPath><clipPath id="130f92557a"><path d="M 101.414062 152.652344 L 252.5625 91.222656 L 285.8125 173.035156 L 134.667969 234.464844 Z M 101.414062 152.652344 " clip-rule="nonzero"/></clipPath><clipPath id="a1986dd122"><path d="M 107 97 L 262 97 L 262 210 L 107 210 Z M 107 97 " clip-rule="nonzero"/></clipPath><clipPath id="c722409e7e"><path d="M 101.414062 152.652344 L 252.5625 91.222656 L 285.8125 173.035156 L 134.667969 234.464844 Z M 101.414062 152.652344 " clip-rule="nonzero"/></clipPath><clipPath id="2d29bc839d"><path d="M 101.414062 152.652344 L 252.5625 91.222656 L 285.8125 173.035156 L 134.667969 234.464844 Z M 101.414062 152.652344 " clip-rule="nonzero"/></clipPath><clipPath id="a7eea03572"><path d="M 157 145 L 184 145 L 184 172 L 157 172 Z M 157 145 " clip-rule="nonzero"/></clipPath><clipPath id="d5f9295885"><path d="M 101.414062 152.652344 L 252.5625 91.222656 L 285.8125 173.035156 L 134.667969 234.464844 Z M 101.414062 152.652344 " clip-rule="nonzero"/></clipPath><clipPath id="ecdbf3f513"><path d="M 101.414062 152.652344 L 252.5625 91.222656 L 285.8125 173.035156 L 134.667969 234.464844 Z M 101.414062 152.652344 " clip-rule="nonzero"/></clipPath><clipPath id="dd0454df35"><path d="M 161 145 L 184 145 L 184 169 L 161 169 Z M 161 145 " clip-rule="nonzero"/></clipPath><clipPath id="24a83e5fcf"><path d="M 101.414062 152.652344 L 252.5625 91.222656 L 285.8125 173.035156 L 134.667969 234.464844 Z M 101.414062 152.652344 " clip-rule="nonzero"/></clipPath><clipPath id="5e00a38c67"><path d="M 101.414062 152.652344 L 252.5625 91.222656 L 285.8125 173.035156 L 134.667969 234.464844 Z M 101.414062 152.652344 " clip-rule="nonzero"/></clipPath><clipPath id="b4ce21a539"><path d="M 194 130 L 221 130 L 221 157 L 194 157 Z M 194 130 " clip-rule="nonzero"/></clipPath><clipPath id="cc0fba77f9"><path d="M 101.414062 152.652344 L 252.5625 91.222656 L 285.8125 173.035156 L 134.667969 234.464844 Z M 101.414062 152.652344 " clip-rule="nonzero"/></clipPath><clipPath id="53d33bea3e"><path d="M 101.414062 152.652344 L 252.5625 91.222656 L 285.8125 173.035156 L 134.667969 234.464844 Z M 101.414062 152.652344 " clip-rule="nonzero"/></clipPath><clipPath id="978e4deafe"><path d="M 198 130 L 221 130 L 221 154 L 198 154 Z M 198 130 " clip-rule="nonzero"/></clipPath><clipPath id="8232e1c5ef"><path d="M 101.414062 152.652344 L 252.5625 91.222656 L 285.8125 173.035156 L 134.667969 234.464844 Z M 101.414062 152.652344 " clip-rule="nonzero"/></clipPath><clipPath id="f76bb83997"><path d="M 101.414062 152.652344 L 252.5625 91.222656 L 285.8125 173.035156 L 134.667969 234.464844 Z M 101.414062 152.652344 " clip-rule="nonzero"/></clipPath><clipPath id="a7022dd6a5"><path d="M 179 174 L 218 174 L 218 188 L 179 188 Z M 179 174 " clip-rule="nonzero"/></clipPath><clipPath id="f25e15c93b"><path d="M 101.414062 152.652344 L 252.5625 91.222656 L 285.8125 173.035156 L 134.667969 234.464844 Z M 101.414062 152.652344 " clip-rule="nonzero"/></clipPath><clipPath id="39d2d54134"><path d="M 101.414062 152.652344 L 252.5625 91.222656 L 285.8125 173.035156 L 134.667969 234.464844 Z M 101.414062 152.652344 " clip-rule="nonzero"/></clipPath><clipPath id="81877f33de"><path d="M 125 36.515625 L 213.414062 36.515625 L 213.414062 124.765625 L 125 124.765625 Z M 125 36.515625 " clip-rule="nonzero"/></clipPath><clipPath id="73d8cb2157"><path d="M 211.933594 80.640625 C 211.933594 76.035156 214.226562 71.148438 212.816406 67 C 211.371094 62.695312 206.464844 60.050781 203.765625 56.46875 C 201.03125 52.851562 199.902344 47.578125 196.144531 44.949219 C 192.421875 42.355469 186.863281 42.9375 182.398438 41.523438 C 178.078125 40.183594 173.964844 36.515625 169.183594 36.515625 C 164.402344 36.515625 160.273438 40.167969 155.96875 41.523438 C 151.507812 42.917969 145.929688 42.335938 142.207031 44.949219 C 138.449219 47.578125 137.320312 52.851562 134.585938 56.46875 C 131.871094 60.050781 126.980469 62.695312 125.519531 67 C 124.125 71.148438 126.398438 76.035156 126.398438 80.640625 C 126.398438 85.246094 124.105469 90.132812 125.519531 94.277344 C 126.964844 98.582031 131.871094 101.230469 134.570312 104.8125 C 137.304688 108.429688 138.433594 113.703125 142.191406 116.332031 C 145.914062 118.945312 151.472656 118.359375 155.953125 119.753906 C 160.273438 121.097656 164.386719 124.765625 169.167969 124.765625 C 173.949219 124.765625 178.078125 121.113281 182.382812 119.753906 C 186.847656 118.359375 192.421875 118.945312 196.144531 116.332031 C 199.902344 113.703125 201.03125 108.429688 203.765625 104.8125 C 206.484375 101.230469 211.371094 98.582031 212.816406 94.277344 C 214.226562 90.113281 211.933594 85.226562 211.933594 80.640625 Z M 211.933594 80.640625 " clip-rule="nonzero"/></clipPath><clipPath id="3ceca7507d"><path d="M 142 54 L 196 54 L 196 109 L 142 109 Z M 142 54 " clip-rule="nonzero"/></clipPath><clipPath id="f04a1305b0"><path d="M 150.761719 48.742188 L 201.960938 62.964844 L 187.734375 114.164062 L 136.535156 99.9375 Z M 150.761719 48.742188 " clip-rule="nonzero"/></clipPath><clipPath id="47cb0e12ce"><path d="M 150.761719 48.742188 L 201.960938 62.964844 L 187.734375 114.164062 L 136.535156 99.9375 Z M 150.761719 48.742188 " clip-rule="nonzero"/></clipPath><clipPath id="a7cffdecec"><path d="M 150.761719 48.742188 L 201.960938 62.964844 L 187.734375 114.164062 L 136.535156 99.9375 Z M 150.761719 48.742188 " clip-rule="nonzero"/></clipPath><clipPath id="b339afc3b5"><path d="M 285 102 L 362 102 L 362 179 L 285 179 Z M 285 102 " clip-rule="nonzero"/></clipPath><clipPath id="6a55ac69d1"><path d="M 295.570312 85.429688 L 378.148438 112.226562 L 351.355469 194.800781 L 268.777344 168.007812 Z M 295.570312 85.429688 " clip-rule="nonzero"/></clipPath><clipPath id="653a0096df"><path d="M 295.570312 85.429688 L 378.148438 112.226562 L 351.355469 194.800781 L 268.777344 168.007812 Z M 295.570312 85.429688 " clip-rule="nonzero"/></clipPath><clipPath id="51a1f1d6a8"><path d="M 284 100 L 364 100 L 364 180 L 284 180 Z M 284 100 " clip-rule="nonzero"/></clipPath><clipPath id="6174c04867"><path d="M 295.570312 85.429688 L 378.148438 112.226562 L 351.355469 194.800781 L 268.777344 168.007812 Z M 295.570312 85.429688 " clip-rule="nonzero"/></clipPath><clipPath id="2095023bf6"><path d="M 295.570312 85.429688 L 378.148438 112.226562 L 351.355469 194.800781 L 268.777344 168.007812 Z M 295.570312 85.429688 " clip-rule="nonzero"/></clipPath><clipPath id="7f85657bb8"><path d="M 311 152 L 324 152 L 324 165 L 311 165 Z M 311 152 " clip-rule="nonzero"/></clipPath><clipPath id="c7f900a503"><path d="M 295.570312 85.429688 L 378.148438 112.226562 L 351.355469 194.800781 L 268.777344 168.007812 Z M 295.570312 85.429688 " clip-rule="nonzero"/></clipPath><clipPath id="3a0b00e9fd"><path d="M 295.570312 85.429688 L 378.148438 112.226562 L 351.355469 194.800781 L 268.777344 168.007812 Z M 295.570312 85.429688 " clip-rule="nonzero"/></clipPath><clipPath id="1cb60edd2e"><path d="M 329 139 L 345 139 L 345 152 L 329 152 Z M 329 139 " clip-rule="nonzero"/></clipPath><clipPath id="8c9a3ec7f7"><path d="M 295.570312 85.429688 L 378.148438 112.226562 L 351.355469 194.800781 L 268.777344 168.007812 Z M 295.570312 85.429688 " clip-rule="nonzero"/></clipPath><clipPath id="4323bf2ce5"><path d="M 295.570312 85.429688 L 378.148438 112.226562 L 351.355469 194.800781 L 268.777344 168.007812 Z M 295.570312 85.429688 " clip-rule="nonzero"/></clipPath><clipPath id="06b10047cd"><path d="M 300 130 L 317 130 L 317 143 L 300 143 Z M 300 130 " clip-rule="nonzero"/></clipPath><clipPath id="d9d2ec7088"><path d="M 295.570312 85.429688 L 378.148438 112.226562 L 351.355469 194.800781 L 268.777344 168.007812 Z M 295.570312 85.429688 " clip-rule="nonzero"/></clipPath><clipPath id="6a74919f11"><path d="M 295.570312 85.429688 L 378.148438 112.226562 L 351.355469 194.800781 L 268.777344 168.007812 Z M 295.570312 85.429688 " clip-rule="nonzero"/></clipPath></defs><g clip-path="url(#53ac3d1348)"><g clip-path="url(#07421f47c5)"><g clip-path="url(#2bd2b0e95d)"><path fill="#8b97fd" d="M 294.386719 156.511719 C 291.9375 157.210938 289.40625 156.125 288.230469 153.867188 L 278.886719 135.910156 C 278.664062 135.480469 278.25 135.5625 278.128906 135.597656 C 277.867188 135.671875 277.773438 135.859375 277.722656 135.992188 L 270.964844 155.070312 C 270.382812 156.710938 269.113281 157.921875 267.476562 158.390625 C 265.917969 158.835938 264.203125 158.546875 262.882812 157.613281 C 261.589844 156.703125 260.792969 155.246094 260.695312 153.625 L 259.460938 133.421875 C 259.453125 133.289062 259.417969 133.097656 259.214844 132.953125 C 259.046875 132.832031 258.824219 132.789062 258.644531 132.839844 C 258.546875 132.871094 258.453125 132.929688 258.363281 133.023438 L 244.429688 147.703125 C 243.761719 148.40625 242.9375 148.914062 242.039062 149.171875 C 240.148438 149.710938 238.042969 149.109375 236.675781 147.628906 C 235.304688 146.148438 234.917969 144.121094 235.632812 142.207031 L 242.726562 123.25 C 242.757812 123.15625 242.863281 122.882812 242.601562 122.597656 C 242.5 122.488281 242.285156 122.316406 241.976562 122.40625 C 241.945312 122.414062 241.914062 122.425781 241.886719 122.4375 L 223.183594 130.179688 C 222.980469 130.265625 222.78125 130.335938 222.582031 130.390625 C 220.257812 131.058594 217.855469 130.089844 216.605469 127.988281 C 215.363281 125.894531 215.675781 123.320312 217.386719 121.582031 L 231.574219 107.144531 C 231.769531 106.949219 231.816406 106.71875 231.710938 106.460938 C 231.609375 106.203125 231.414062 106.070312 231.136719 106.0625 L 210.902344 105.53125 C 208.359375 105.464844 206.273438 103.664062 205.832031 101.160156 C 205.390625 98.652344 206.734375 96.25 209.105469 95.316406 L 227.9375 87.898438 C 228.195312 87.796875 228.332031 87.605469 228.339844 87.332031 C 228.351562 87.054688 228.226562 86.855469 227.980469 86.734375 L 209.710938 78.015625 C 207.707031 77.058594 206.53125 75.023438 206.714844 72.828125 C 206.898438 70.589844 208.378906 68.757812 210.484375 68.152344 C 211.039062 67.996094 211.625 67.925781 212.222656 67.953125 L 232.445312 68.839844 C 232.527344 68.84375 232.605469 68.835938 232.671875 68.816406 C 232.898438 68.75 233.035156 68.542969 233.085938 68.371094 C 233.171875 68.085938 233.054688 67.902344 232.957031 67.789062 L 219.8125 52.394531 C 218.617188 50.996094 218.230469 49.199219 218.75 47.472656 C 219.273438 45.730469 220.671875 44.34375 222.394531 43.847656 C 223.644531 43.488281 224.996094 43.625 226.199219 44.222656 L 244.3125 53.257812 C 244.472656 53.335938 244.613281 53.355469 244.753906 53.3125 C 244.925781 53.261719 245.085938 53.136719 245.171875 52.976562 C 245.25 52.835938 245.261719 52.6875 245.207031 52.507812 L 239.460938 33.097656 C 239.054688 31.71875 239.199219 30.289062 239.867188 29.066406 C 240.546875 27.832031 241.726562 26.894531 243.109375 26.5 C 245.144531 25.914062 247.257812 26.578125 248.621094 28.230469 L 261.492188 43.851562 C 261.667969 44.066406 261.894531 44.136719 262.160156 44.058594 C 262.425781 43.984375 262.578125 43.804688 262.613281 43.53125 L 265.261719 23.464844 C 265.539062 21.339844 266.980469 19.65625 269.015625 19.074219 C 270.398438 18.675781 271.894531 18.847656 273.125 19.535156 C 274.339844 20.21875 275.222656 21.355469 275.605469 22.742188 L 281.011719 42.246094 C 281.0625 42.425781 281.152344 42.546875 281.292969 42.625 C 281.449219 42.714844 281.652344 42.738281 281.824219 42.691406 C 281.96875 42.648438 282.078125 42.558594 282.167969 42.410156 L 292.746094 25.152344 C 293.449219 24.007812 294.527344 23.179688 295.777344 22.820312 C 297.5 22.324219 299.421875 22.761719 300.789062 23.960938 C 302.144531 25.152344 302.765625 26.878906 302.492188 28.703125 L 299.5 48.71875 C 299.476562 48.867188 299.472656 49.085938 299.695312 49.285156 C 299.832031 49.402344 300.054688 49.503906 300.285156 49.441406 C 300.351562 49.421875 300.417969 49.386719 300.488281 49.339844 L 317.171875 37.878906 C 317.664062 37.539062 318.199219 37.285156 318.753906 37.125 C 320.859375 36.523438 323.085938 37.296875 324.425781 39.09375 C 325.746094 40.859375 325.824219 43.210938 324.632812 45.082031 L 313.753906 62.152344 C 313.605469 62.386719 313.609375 62.621094 313.761719 62.851562 C 313.917969 63.082031 314.132812 63.171875 314.40625 63.121094 L 334.308594 59.4375 C 336.8125 58.972656 339.226562 60.296875 340.179688 62.65625 C 341.132812 65.019531 340.316406 67.648438 338.191406 69.054688 L 321.3125 80.222656 C 321.082031 80.375 320.988281 80.589844 321.039062 80.863281 C 321.085938 81.136719 321.246094 81.308594 321.515625 81.371094 L 341.195312 86.101562 C 343.570312 86.671875 345.199219 88.6875 345.25 91.121094 C 345.304688 93.566406 343.78125 95.660156 341.457031 96.324219 C 341.257812 96.382812 341.050781 96.429688 340.832031 96.464844 L 320.871094 99.804688 C 320.835938 99.808594 320.804688 99.816406 320.773438 99.824219 C 320.46875 99.914062 320.375 100.171875 320.347656 100.320312 C 320.277344 100.699219 320.511719 100.878906 320.585938 100.9375 L 336.644531 113.261719 C 338.265625 114.503906 339.007812 116.429688 338.632812 118.410156 C 338.257812 120.390625 336.792969 122.019531 334.898438 122.5625 C 334.003906 122.816406 333.035156 122.824219 332.09375 122.582031 L 312.5 117.511719 C 312.375 117.476562 312.265625 117.476562 312.164062 117.503906 C 311.988281 117.554688 311.820312 117.710938 311.742188 117.898438 C 311.644531 118.132812 311.71875 118.3125 311.78125 118.429688 L 321.4375 136.21875 C 322.210938 137.648438 322.304688 139.304688 321.691406 140.761719 C 321.066406 142.253906 319.765625 143.410156 318.207031 143.855469 C 316.570312 144.324219 314.851562 143.96875 313.492188 142.886719 L 297.652344 130.285156 C 297.539062 130.195312 297.363281 130.085938 297.097656 130.164062 C 296.976562 130.199219 296.582031 130.347656 296.621094 130.832031 L 298.203125 151.011719 C 298.402344 153.546875 296.832031 155.808594 294.386719 156.511719 Z M 294.386719 156.511719 " fill-opacity="1" fill-rule="nonzero"/></g></g></g><g clip-path="url(#ac8f6fa5ad)"><g clip-path="url(#97df4265fa)"><g clip-path="url(#de40f2aaf7)"><path fill="#ffffff" d="M 269.769531 21.691406 C 271.027344 21.332031 272.542969 21.894531 272.980469 23.46875 L 278.386719 42.976562 C 278.929688 44.929688 280.898438 45.789062 282.574219 45.308594 C 283.324219 45.09375 284.015625 44.609375 284.492188 43.832031 L 295.070312 26.578125 C 295.445312 25.964844 295.964844 25.597656 296.523438 25.4375 C 298.148438 24.972656 300.105469 26.242188 299.796875 28.300781 L 296.804688 48.316406 C 296.425781 50.835938 298.8125 52.695312 301.03125 52.058594 C 301.375 51.960938 301.707031 51.804688 302.03125 51.585938 L 318.714844 40.125 C 318.972656 39.945312 319.238281 39.820312 319.5 39.746094 C 321.597656 39.144531 323.667969 41.523438 322.332031 43.617188 L 311.453125 60.6875 C 309.875 63.167969 312.011719 66.335938 314.902344 65.800781 L 334.804688 62.113281 C 337.554688 61.605469 339.019531 65.238281 336.6875 66.78125 L 319.808594 77.949219 C 317.355469 79.570312 318.019531 83.332031 320.878906 84.019531 L 340.558594 88.75 C 343.167969 89.375 343.148438 93.003906 340.703125 93.703125 C 340.601562 93.734375 340.492188 93.757812 340.382812 93.777344 L 320.417969 97.117188 C 320.28125 97.136719 320.148438 97.167969 320.023438 97.203125 C 317.441406 97.945312 316.703125 101.390625 318.925781 103.097656 L 334.980469 115.421875 C 336.792969 116.8125 335.980469 119.414062 334.144531 119.941406 C 333.734375 120.058594 333.273438 120.070312 332.773438 119.945312 L 313.179688 114.871094 C 312.554688 114.710938 311.953125 114.730469 311.410156 114.886719 C 309.484375 115.4375 308.289062 117.714844 309.382812 119.730469 L 319.039062 137.519531 C 319.929688 139.15625 318.890625 140.824219 317.453125 141.234375 C 316.734375 141.441406 315.914062 141.332031 315.183594 140.753906 L 299.34375 128.148438 C 298.417969 127.414062 297.3125 127.265625 296.34375 127.542969 C 294.910156 127.953125 293.765625 129.296875 293.902344 131.042969 L 295.484375 151.222656 C 295.59375 152.617188 294.707031 153.582031 293.632812 153.890625 C 292.558594 154.199219 291.292969 153.847656 290.648438 152.609375 L 281.304688 134.652344 C 280.496094 133.097656 278.8125 132.566406 277.378906 132.976562 C 276.40625 133.253906 275.550781 133.964844 275.15625 135.082031 L 268.394531 154.160156 C 268.082031 155.039062 267.445312 155.566406 266.726562 155.773438 C 265.285156 156.183594 263.527344 155.320312 263.414062 153.460938 L 262.179688 133.257812 C 262.039062 130.96875 259.820312 129.667969 257.894531 130.222656 C 257.351562 130.378906 256.832031 130.679688 256.386719 131.148438 L 242.453125 145.828125 C 242.097656 146.199219 241.699219 146.433594 241.289062 146.550781 C 239.453125 147.078125 237.386719 145.300781 238.183594 143.160156 L 245.277344 124.203125 C 246.257812 121.582031 243.808594 119.046875 241.226562 119.785156 C 241.097656 119.824219 240.96875 119.867188 240.84375 119.921875 L 222.144531 127.660156 C 222.039062 127.703125 221.933594 127.742188 221.832031 127.769531 C 219.386719 128.472656 217.449219 125.402344 219.328125 123.488281 L 233.519531 109.054688 C 235.578125 106.960938 234.148438 103.417969 231.210938 103.339844 L 210.976562 102.804688 C 208.179688 102.730469 207.5 98.875 210.101562 97.851562 L 228.9375 90.433594 C 231.671875 89.355469 231.804688 85.539062 229.152344 84.273438 L 210.886719 75.558594 C 208.644531 74.488281 209.140625 71.371094 211.234375 70.773438 C 211.5 70.695312 211.789062 70.660156 212.105469 70.675781 L 232.324219 71.5625 C 232.714844 71.578125 233.082031 71.53125 233.421875 71.433594 C 235.640625 70.796875 236.683594 67.957031 235.027344 66.019531 L 221.886719 50.628906 C 220.535156 49.046875 221.523438 46.933594 223.148438 46.46875 C 223.707031 46.308594 224.34375 46.34375 224.984375 46.664062 L 243.097656 55.695312 C 243.910156 56.101562 244.753906 56.148438 245.503906 55.933594 C 247.179688 55.453125 248.394531 53.679688 247.820312 51.734375 L 242.074219 32.328125 C 241.609375 30.757812 242.601562 29.476562 243.859375 29.117188 C 244.75 28.863281 245.777344 29.070312 246.515625 29.964844 L 259.390625 45.585938 C 260.324219 46.71875 261.710938 47.023438 262.910156 46.679688 C 264.109375 46.335938 265.125 45.34375 265.316406 43.886719 L 267.960938 23.820312 C 268.113281 22.667969 268.875 21.949219 269.769531 21.691406 M 268.265625 16.453125 C 265.167969 17.339844 262.984375 19.890625 262.558594 23.109375 L 260.539062 38.414062 L 250.722656 26.5 C 248.660156 23.996094 245.453125 22.992188 242.355469 23.878906 C 240.28125 24.472656 238.503906 25.886719 237.476562 27.757812 C 236.457031 29.621094 236.234375 31.792969 236.847656 33.875 L 241.230469 48.675781 L 227.417969 41.785156 C 225.601562 40.878906 223.550781 40.683594 221.644531 41.230469 C 219.039062 41.976562 216.929688 44.066406 216.140625 46.6875 C 215.359375 49.28125 215.957031 52.078125 217.742188 54.164062 L 227.765625 65.90625 L 212.34375 65.230469 C 211.449219 65.191406 210.574219 65.292969 209.734375 65.535156 C 206.578125 66.4375 204.273438 69.277344 204 72.601562 C 203.71875 75.933594 205.503906 79.027344 208.539062 80.476562 L 222.472656 87.125 L 208.105469 92.78125 C 204.519531 94.191406 202.480469 97.832031 203.148438 101.628906 C 203.816406 105.429688 206.976562 108.152344 210.832031 108.253906 L 226.265625 108.660156 L 215.445312 119.667969 C 212.851562 122.304688 212.378906 126.207031 214.265625 129.378906 C 216.128906 132.511719 219.855469 134.003906 223.332031 133.007812 C 223.632812 132.921875 223.933594 132.816406 224.226562 132.695312 L 238.492188 126.789062 L 233.082031 141.25 C 232.015625 144.105469 232.625 147.257812 234.675781 149.476562 C 236.734375 151.703125 239.917969 152.613281 242.789062 151.789062 C 244.152344 151.398438 245.402344 150.632812 246.40625 149.578125 L 257.035156 138.382812 L 257.976562 153.792969 C 258.125 156.242188 259.339844 158.445312 261.308594 159.839844 C 263.296875 161.242188 265.882812 161.683594 268.230469 161.011719 C 270.722656 160.296875 272.65625 158.460938 273.535156 155.980469 L 278.691406 141.429688 L 285.816406 155.125 C 287.597656 158.542969 291.429688 160.191406 295.136719 159.128906 C 298.84375 158.066406 301.222656 154.640625 300.917969 150.796875 L 299.710938 135.40625 L 311.792969 145.015625 C 313.851562 146.65625 316.464844 147.1875 318.957031 146.472656 C 321.300781 145.800781 323.261719 144.058594 324.203125 141.816406 C 325.136719 139.589844 325 137.078125 323.828125 134.917969 L 316.464844 121.351562 L 331.410156 125.21875 C 332.820312 125.582031 334.285156 125.570312 335.648438 125.179688 C 338.519531 124.355469 340.742188 121.898438 341.308594 118.917969 C 341.871094 115.949219 340.71875 112.953125 338.300781 111.097656 L 326.054688 101.695312 L 341.28125 99.152344 C 341.59375 99.097656 341.90625 99.027344 342.207031 98.941406 C 345.679688 97.945312 348.054688 94.707031 347.972656 91.0625 C 347.894531 87.371094 345.425781 84.3125 341.832031 83.449219 L 326.820312 79.84375 L 339.695312 71.324219 C 342.914062 69.195312 344.148438 65.210938 342.707031 61.636719 C 341.261719 58.058594 337.605469 56.054688 333.8125 56.753906 L 318.632812 59.566406 L 326.929688 46.546875 C 328.738281 43.710938 328.613281 40.144531 326.609375 37.460938 C 324.613281 34.789062 321.15625 33.601562 318.003906 34.507812 C 317.164062 34.746094 316.363281 35.125 315.628906 35.628906 L 302.90625 44.371094 L 305.1875 29.105469 C 305.59375 26.386719 304.621094 23.699219 302.585938 21.914062 C 300.527344 20.109375 297.632812 19.453125 295.023438 20.199219 C 293.117188 20.746094 291.484375 22 290.425781 23.730469 L 282.355469 36.890625 L 278.234375 22.011719 C 277.652344 19.921875 276.3125 18.199219 274.460938 17.160156 C 272.597656 16.117188 270.339844 15.859375 268.265625 16.453125 Z M 268.265625 16.453125 " fill-opacity="1" fill-rule="nonzero"/></g></g></g><g clip-path="url(#9a0074fd82)"><g clip-path="url(#ced4ab6886)"><g clip-path="url(#96059a81bb)"><path fill="#ffffff" d="M 294.535156 103.601562 C 294.039062 103.203125 293.3125 103.28125 292.914062 103.777344 C 286.871094 111.28125 275.980469 112.617188 268.308594 106.9375 C 268.96875 105.925781 269.339844 104.753906 269.335938 103.507812 C 269.332031 102.871094 268.816406 102.355469 268.179688 102.359375 C 267.542969 102.359375 267.027344 102.875 267.03125 103.511719 C 267.035156 105.660156 265.257812 107.492188 262.710938 107.96875 C 262.089844 108.085938 261.675781 108.6875 261.792969 109.316406 C 261.910156 109.941406 262.511719 110.351562 263.136719 110.234375 C 263.417969 110.183594 263.695312 110.117188 263.960938 110.042969 C 265.015625 109.738281 265.953125 109.253906 266.742188 108.636719 C 271.992188 112.625 278.617188 113.664062 284.558594 111.964844 C 288.425781 110.855469 292 108.589844 294.707031 105.226562 C 295.109375 104.730469 295.03125 104.003906 294.535156 103.601562 Z M 294.535156 103.601562 " fill-opacity="1" fill-rule="nonzero"/></g></g></g><g clip-path="url(#9b637bfdfd)"><g clip-path="url(#bc6fa1c8bd)"><g clip-path="url(#88f9514115)"><path fill="#000000" d="M 297.449219 88.125 C 296.492188 88.398438 295.496094 87.84375 295.222656 86.886719 C 294.527344 84.46875 291.996094 83.0625 289.574219 83.757812 C 287.152344 84.449219 285.746094 86.984375 286.441406 89.40625 C 286.714844 90.359375 286.164062 91.359375 285.207031 91.632812 C 284.25 91.90625 283.253906 91.355469 282.976562 90.398438 C 281.738281 86.066406 284.25 81.535156 288.582031 80.292969 C 292.910156 79.050781 297.445312 81.566406 298.683594 85.894531 C 298.960938 86.851562 298.40625 87.851562 297.449219 88.125 Z M 297.449219 88.125 " fill-opacity="1" fill-rule="nonzero"/></g></g></g><g clip-path="url(#031eb1d196)"><g clip-path="url(#0f24c322ba)"><g clip-path="url(#1fd4077dd9)"><path fill="#000000" d="M 267.808594 96.617188 C 266.851562 96.894531 265.855469 96.339844 265.578125 95.382812 C 264.886719 92.964844 262.351562 91.558594 259.929688 92.25 C 257.511719 92.945312 256.105469 95.480469 256.800781 97.898438 C 257.074219 98.855469 256.519531 99.851562 255.5625 100.128906 C 254.605469 100.402344 253.609375 99.847656 253.335938 98.890625 C 252.09375 94.5625 254.609375 90.03125 258.9375 88.789062 C 263.269531 87.546875 267.800781 90.058594 269.042969 94.390625 C 269.316406 95.347656 268.765625 96.34375 267.808594 96.617188 Z M 267.808594 96.617188 " fill-opacity="1" fill-rule="nonzero"/></g></g></g><g clip-path="url(#def3d39691)"><g clip-path="url(#1d5c901252)"><g clip-path="url(#109f07588d)"><path fill="#ff652d" d="M 117.992188 90.585938 C 119.394531 91.675781 120.738281 92.835938 122.027344 94.058594 C 123.316406 95.28125 124.542969 96.566406 125.707031 97.910156 C 126.867188 99.253906 127.960938 100.652344 128.988281 102.105469 C 130.011719 103.554688 130.964844 105.054688 131.84375 106.601562 C 132.722656 108.144531 133.519531 109.730469 134.242188 111.355469 C 134.964844 112.976562 135.605469 114.632812 136.167969 116.320312 C 136.726562 118.007812 137.203125 119.71875 137.59375 121.449219 C 137.984375 123.183594 138.292969 124.933594 138.511719 126.695312 C 138.730469 128.460938 138.863281 130.230469 138.910156 132.007812 C 138.957031 133.785156 138.914062 135.558594 138.789062 137.332031 C 138.660156 139.105469 138.445312 140.867188 138.144531 142.617188 C 137.839844 144.371094 137.453125 146.101562 136.984375 147.816406 C 136.511719 149.53125 135.957031 151.214844 135.320312 152.875 C 134.683594 154.535156 133.964844 156.15625 133.167969 157.746094 C 132.371094 159.335938 131.496094 160.882812 130.550781 162.382812 C 129.601562 163.886719 128.578125 165.339844 127.488281 166.742188 C 126.398438 168.144531 125.238281 169.492188 124.015625 170.78125 C 122.792969 172.070312 121.507812 173.292969 120.164062 174.457031 C 118.820312 175.621094 117.421875 176.714844 115.96875 177.738281 C 114.515625 178.765625 113.019531 179.714844 111.472656 180.59375 C 109.929688 181.472656 108.34375 182.273438 106.71875 182.996094 C 105.097656 183.71875 103.441406 184.359375 101.753906 184.917969 C 100.066406 185.480469 98.355469 185.953125 96.625 186.347656 C 94.890625 186.738281 93.140625 187.042969 91.378906 187.265625 C 89.613281 187.484375 87.84375 187.617188 86.066406 187.664062 C 84.289062 187.707031 82.515625 187.667969 80.742188 187.539062 C 78.96875 187.410156 77.207031 187.195312 75.457031 186.894531 C 73.703125 186.59375 71.972656 186.207031 70.257812 185.734375 C 68.542969 185.261719 66.859375 184.707031 65.199219 184.070312 C 63.539062 183.433594 61.917969 182.714844 60.328125 181.917969 C 58.738281 181.121094 57.191406 180.25 55.691406 179.300781 C 54.1875 178.351562 52.734375 177.332031 51.332031 176.238281 C 49.929688 175.148438 48.582031 173.992188 47.292969 172.765625 C 46.003906 171.542969 44.78125 170.257812 43.617188 168.914062 C 42.453125 167.570312 41.359375 166.171875 40.335938 164.722656 C 39.308594 163.269531 38.359375 161.769531 37.480469 160.226562 C 36.601562 158.679688 35.800781 157.09375 35.078125 155.472656 C 34.355469 153.847656 33.714844 152.191406 33.15625 150.503906 C 32.59375 148.820312 32.121094 147.109375 31.726562 145.375 C 31.335938 143.640625 31.03125 141.894531 30.808594 140.128906 C 30.589844 138.363281 30.457031 136.59375 30.410156 134.816406 C 30.367188 133.042969 30.40625 131.265625 30.535156 129.492188 C 30.664062 127.722656 30.878906 125.960938 31.179688 124.207031 C 31.480469 122.457031 31.867188 120.722656 32.339844 119.011719 C 32.8125 117.296875 33.367188 115.609375 34.003906 113.949219 C 34.640625 112.292969 35.359375 110.667969 36.15625 109.078125 C 36.953125 107.492188 37.824219 105.945312 38.773438 104.441406 C 39.722656 102.9375 40.742188 101.484375 41.832031 100.082031 C 42.925781 98.679688 44.082031 97.335938 45.308594 96.046875 C 46.53125 94.757812 47.816406 93.53125 49.160156 92.367188 C 50.503906 91.207031 51.902344 90.113281 53.351562 89.085938 C 54.804688 88.0625 56.304688 87.109375 57.847656 86.230469 C 59.394531 85.351562 60.976562 84.554688 62.601562 83.832031 C 64.226562 83.109375 65.882812 82.464844 67.570312 81.90625 C 69.253906 81.347656 70.964844 80.871094 72.699219 80.480469 C 74.433594 80.085938 76.179688 79.78125 77.945312 79.5625 C 79.707031 79.34375 81.480469 79.210938 83.253906 79.164062 C 85.03125 79.117188 86.808594 79.15625 88.578125 79.285156 C 90.351562 79.414062 92.113281 79.628906 93.867188 79.929688 C 95.617188 80.234375 97.351562 80.621094 99.0625 81.089844 C 100.777344 81.5625 102.464844 82.117188 104.125 82.753906 C 105.78125 83.390625 107.40625 84.109375 108.996094 84.90625 C 110.582031 85.703125 112.128906 86.574219 113.632812 87.523438 C 115.136719 88.472656 116.585938 89.492188 117.992188 90.585938 Z M 117.992188 90.585938 " fill-opacity="1" fill-rule="nonzero"/></g></g></g><g clip-path="url(#cca9b378f3)"><g clip-path="url(#b1950d81ec)"><g clip-path="url(#efce9bf41a)"><path fill="#fffff7" d="M 109.636719 87.738281 C 134.859375 101.53125 144.125 133.164062 130.332031 158.386719 C 116.539062 183.613281 84.90625 192.878906 59.683594 179.085938 C 34.457031 165.289062 25.191406 133.660156 38.988281 108.433594 C 52.78125 83.210938 84.410156 73.945312 109.636719 87.738281 M 111.757812 83.855469 C 98.523438 76.617188 83.257812 74.96875 68.78125 79.210938 C 54.304688 83.449219 42.34375 93.078125 35.105469 106.3125 C 27.867188 119.550781 26.214844 134.8125 30.457031 149.289062 C 34.699219 163.769531 44.324219 175.726562 57.5625 182.964844 C 70.796875 190.203125 86.058594 191.855469 100.539062 187.613281 C 115.015625 183.371094 126.976562 173.746094 134.214844 160.511719 C 141.453125 147.273438 143.101562 132.011719 138.863281 117.53125 C 134.621094 103.054688 124.996094 91.09375 111.757812 83.855469 Z M 111.757812 83.855469 " fill-opacity="1" fill-rule="nonzero"/></g></g></g><g clip-path="url(#3694343032)"><g clip-path="url(#425ccb7cdf)"><g clip-path="url(#3b3b87b4ec)"><path fill="#000000" d="M 84.371094 116.238281 C 84.402344 116.632812 84.628906 116.984375 84.980469 117.179688 C 85.183594 117.289062 85.410156 117.335938 85.640625 117.320312 C 86.289062 117.265625 86.773438 116.695312 86.722656 116.046875 L 84.816406 92.386719 C 84.792969 92.070312 84.644531 91.785156 84.40625 91.582031 C 84.164062 91.375 83.859375 91.277344 83.546875 91.304688 C 82.898438 91.355469 82.410156 91.925781 82.464844 92.574219 Z M 84.371094 116.238281 " fill-opacity="1" fill-rule="nonzero"/></g></g></g><g clip-path="url(#b405a6a079)"><g clip-path="url(#ed6cac3456)"><g clip-path="url(#d16c7f8f70)"><path fill="#000000" d="M 94.152344 97.726562 C 94.226562 97.078125 93.765625 96.492188 93.117188 96.414062 C 92.804688 96.378906 92.496094 96.464844 92.25 96.660156 C 92 96.855469 91.84375 97.132812 91.808594 97.449219 L 89.851562 113.929688 C 89.792969 114.410156 90.03125 114.871094 90.457031 115.105469 C 90.589844 115.175781 90.734375 115.222656 90.886719 115.242188 C 91.199219 115.277344 91.507812 115.191406 91.753906 114.996094 C 92.003906 114.800781 92.160156 114.519531 92.195312 114.207031 Z M 94.152344 97.726562 " fill-opacity="1" fill-rule="nonzero"/></g></g></g><g clip-path="url(#487376c48b)"><g clip-path="url(#1de331f34e)"><g clip-path="url(#a964c8edf9)"><path fill="#000000" d="M 97.679688 123.902344 C 97.789062 124.105469 97.953125 124.269531 98.15625 124.382812 C 98.503906 124.574219 98.925781 124.574219 99.277344 124.386719 L 120.226562 113.222656 C 120.800781 112.917969 121.019531 112.203125 120.710938 111.628906 C 120.40625 111.054688 119.691406 110.835938 119.117188 111.140625 L 98.167969 122.304688 C 97.59375 122.609375 97.375 123.328125 97.679688 123.902344 Z M 97.679688 123.902344 " fill-opacity="1" fill-rule="nonzero"/></g></g></g><g clip-path="url(#31c509ceb1)"><g clip-path="url(#1ccb332a3a)"><g clip-path="url(#bb7ee59291)"><path fill="#000000" d="M 96.945312 118.652344 C 97.371094 118.882812 97.886719 118.835938 98.261719 118.527344 L 111.082031 107.988281 C 111.585938 107.574219 111.65625 106.828125 111.246094 106.328125 C 110.832031 105.824219 110.085938 105.753906 109.585938 106.164062 L 96.761719 116.703125 C 96.257812 117.117188 96.1875 117.863281 96.601562 118.367188 C 96.695312 118.484375 96.8125 118.578125 96.945312 118.652344 Z M 96.945312 118.652344 " fill-opacity="1" fill-rule="nonzero"/></g></g></g><g clip-path="url(#97956c8928)"><g clip-path="url(#ecf10db875)"><g clip-path="url(#528f6c29df)"><path fill="#000000" d="M 77.875 130.4375 C 75.773438 129.074219 73.214844 128.757812 70.46875 129.515625 C 72.320312 125.507812 76.113281 117.28125 76.96875 115.269531 C 78.273438 112.207031 77.679688 109.488281 75.453125 108.359375 C 75.449219 108.359375 75.449219 108.355469 75.449219 108.355469 C 75.21875 108.230469 74.492188 107.875 73.539062 107.824219 L 73.914062 106.984375 C 74.191406 106.363281 74.351562 105.734375 74.382812 105.121094 C 74.476562 103.335938 73.632812 101.929688 72.015625 101.167969 C 70.46875 100.4375 68.855469 100.710938 67.46875 101.9375 C 66.828125 102.507812 66.320312 103.222656 65.960938 104.074219 C 65.453125 103.53125 64.78125 103.125 63.992188 102.890625 C 60.957031 101.992188 59.253906 104.109375 58.777344 105.347656 L 58.476562 106.050781 C 58.085938 105.59375 57.566406 105.226562 56.921875 104.957031 C 55.964844 104.554688 55 104.542969 54.136719 104.925781 C 52.585938 105.609375 51.894531 107.292969 51.777344 107.613281 L 44.273438 125.582031 C 43.558594 127.292969 43.214844 129.097656 43.253906 130.953125 L 43.40625 137.871094 C 43.414062 138.292969 43.648438 138.679688 44.019531 138.882812 C 44.199219 138.980469 44.402344 139.03125 44.609375 139.023438 C 45.261719 139.011719 45.78125 138.46875 45.765625 137.820312 L 45.613281 130.902344 C 45.582031 129.378906 45.863281 127.894531 46.449219 126.492188 L 53.964844 108.5 L 53.984375 108.449219 C 54.105469 108.109375 54.535156 107.328125 55.089844 107.085938 C 55.355469 106.964844 55.648438 106.984375 56.011719 107.132812 C 56.453125 107.316406 57.480469 107.75 56.703125 109.980469 C 56.574219 110.355469 54.585938 115.09375 52.675781 119.621094 C 52.671875 119.632812 52.664062 119.644531 52.660156 119.65625 L 52.503906 120.023438 C 52.015625 119.820312 51.78125 119.644531 51.78125 119.644531 C 51.285156 119.234375 50.542969 119.304688 50.128906 119.792969 C 49.707031 120.292969 49.769531 121.039062 50.269531 121.457031 C 50.324219 121.503906 50.535156 121.671875 50.917969 121.882812 C 51.363281 122.125 51.871094 122.335938 52.433594 122.503906 C 54.199219 123.039062 56.3125 123.148438 58.710938 122.832031 C 63.488281 122.207031 66.390625 123.890625 66.507812 123.957031 C 66.773438 124.125 67.089844 124.179688 67.398438 124.109375 C 67.707031 124.039062 67.96875 123.855469 68.136719 123.585938 C 68.480469 123.035156 68.3125 122.304688 67.761719 121.960938 C 67.730469 121.9375 67.582031 121.847656 67.324219 121.71875 L 72.25 110.707031 C 72.980469 109.773438 74.105469 110.3125 74.335938 110.4375 C 74.339844 110.441406 74.359375 110.449219 74.363281 110.453125 C 75.417969 110.980469 75.59375 112.480469 74.800781 114.34375 C 73.773438 116.753906 68.273438 128.644531 67.371094 130.589844 C 63.40625 128.636719 60.203125 129.574219 58.199219 130.722656 C 55.898438 132.039062 54.613281 133.941406 54.558594 134.023438 C 54.199219 134.5625 54.34375 135.296875 54.882812 135.65625 C 55.425781 136.019531 56.15625 135.875 56.519531 135.335938 C 56.683594 135.089844 60.640625 129.367188 67.011719 133.074219 C 67.402344 133.304688 67.894531 133.28125 68.265625 133.03125 C 68.3125 133 72.863281 130.003906 76.59375 132.417969 C 77.828125 133.21875 78.050781 133.753906 78.089844 133.949219 C 78.101562 134.011719 78.128906 134.152344 77.960938 134.390625 C 77.6875 134.785156 77.191406 135.007812 76.664062 134.96875 C 74.625 134.832031 71.007812 134.972656 69.710938 137.457031 L 69.609375 137.648438 C 68.757812 139.28125 67.699219 141.3125 67.214844 141.453125 C 67.132812 141.476562 67.027344 141.507812 66.894531 141.542969 L 66.859375 141.554688 C 63.921875 142.367188 60.410156 143.539062 59.296875 145.382812 C 55.957031 150.898438 53.847656 156.851562 53.757812 157.105469 C 53.566406 157.652344 53.796875 158.25 54.304688 158.53125 C 54.359375 158.558594 54.417969 158.585938 54.480469 158.609375 C 54.777344 158.710938 55.097656 158.695312 55.382812 158.558594 C 55.667969 158.421875 55.878906 158.183594 55.984375 157.886719 C 56.003906 157.828125 58.070312 151.960938 61.3125 146.601562 C 61.601562 146.125 62.789062 145.128906 67.488281 143.828125 L 67.527344 143.816406 C 67.671875 143.777344 67.792969 143.746094 67.878906 143.71875 C 69.328125 143.296875 70.222656 141.582031 71.703125 138.742188 L 71.804688 138.550781 C 72.378906 137.449219 74.609375 137.195312 76.503906 137.324219 C 77.851562 137.417969 79.152344 136.808594 79.898438 135.742188 C 80.382812 135.046875 80.558594 134.269531 80.40625 133.496094 C 80.1875 132.402344 79.363281 131.402344 77.875 130.4375 Z M 65.113281 120.890625 C 63.992188 120.582031 62.804688 120.402344 61.570312 120.347656 L 66.609375 108.921875 C 66.757812 108.589844 66.867188 108.246094 66.941406 107.894531 L 68.105469 105.058594 C 68.332031 104.507812 68.644531 104.050781 69.035156 103.707031 C 70.019531 102.835938 70.738281 103.171875 71.007812 103.300781 C 71.746094 103.648438 72.066406 104.1875 72.023438 104.996094 C 72.007812 105.320312 71.917969 105.664062 71.757812 106.023438 Z M 63.804688 105.347656 C 64.25 105.59375 64.519531 105.964844 64.632812 106.488281 C 64.683594 106.722656 64.691406 106.976562 64.65625 107.246094 L 63.113281 111 L 58.953125 120.429688 C 58.773438 120.449219 58.589844 120.46875 58.402344 120.492188 C 57.113281 120.664062 55.914062 120.691406 54.832031 120.578125 L 60.957031 106.253906 L 60.976562 106.207031 C 61.074219 105.945312 61.652344 104.660156 63.324219 105.15625 C 63.5 105.207031 63.660156 105.273438 63.804688 105.347656 Z M 74.484375 110.207031 Z M 74.484375 110.207031 " fill-opacity="1" fill-rule="nonzero"/></g></g></g><g clip-path="url(#024c66ad38)"><g clip-path="url(#dfadc962f3)"><g clip-path="url(#ec3ecc601b)"><path fill="#000000" d="M 125.113281 143.738281 C 124.96875 142.804688 124.4375 142 123.582031 141.410156 C 123.007812 141.015625 122.417969 140.773438 121.824219 140.691406 L 122.246094 140.066406 C 123.039062 138.992188 123.902344 136.414062 121.507812 134.34375 C 120.886719 133.804688 120.183594 133.460938 119.449219 133.328125 C 119.96875 132.5625 120.300781 131.746094 120.433594 130.902344 C 120.71875 129.074219 120.078125 127.566406 118.628906 126.65625 C 117.117188 125.707031 115.476562 125.757812 114.027344 126.800781 C 113.523438 127.160156 113.082031 127.628906 112.707031 128.199219 L 112.203125 128.964844 C 111.816406 128.429688 111.285156 127.957031 110.726562 127.648438 C 108.5625 126.382812 105.953125 127.351562 104.082031 130.097656 C 102.851562 131.90625 97.972656 139.535156 95.597656 143.257812 C 94.753906 140.539062 93.101562 138.554688 90.824219 137.519531 C 89.210938 136.789062 87.921875 136.628906 86.886719 137.042969 C 86.148438 137.332031 85.589844 137.898438 85.269531 138.679688 C 84.769531 139.882812 84.960938 141.304688 85.765625 142.390625 C 86.898438 143.917969 87.886719 145.933594 87.269531 147.011719 L 87.164062 147.199219 C 85.570312 149.980469 84.613281 151.65625 85.035156 153.105469 C 85.0625 153.191406 85.097656 153.308594 85.140625 153.449219 L 85.152344 153.492188 C 86.59375 158.148438 86.394531 159.6875 86.148438 160.1875 C 83.410156 165.765625 79.566406 170.710938 79.527344 170.761719 C 79.125 171.273438 79.21875 172.019531 79.730469 172.417969 C 79.78125 172.457031 79.835938 172.492188 79.890625 172.523438 C 80.402344 172.800781 81.027344 172.671875 81.386719 172.214844 C 81.550781 172.003906 85.421875 167.027344 88.269531 161.226562 C 89.21875 159.292969 88.308594 155.703125 87.402344 152.777344 C 87.359375 152.636719 87.324219 152.523438 87.300781 152.441406 C 87.160156 151.957031 88.296875 149.96875 89.210938 148.371094 L 89.320312 148.179688 C 90.710938 145.75 88.878906 142.628906 87.660156 140.988281 C 87.347656 140.5625 87.265625 140.023438 87.449219 139.582031 C 87.5625 139.3125 87.695312 139.257812 87.753906 139.234375 C 87.9375 139.164062 88.507812 139.058594 89.847656 139.667969 C 91.515625 140.425781 92.6875 141.859375 93.335938 143.933594 C 93.84375 145.566406 93.824219 146.996094 93.824219 147.007812 C 93.8125 147.464844 94.058594 147.878906 94.464844 148.085938 C 101.03125 151.453125 98.339844 157.871094 98.222656 158.140625 C 98.097656 158.429688 98.09375 158.75 98.207031 159.046875 C 98.324219 159.335938 98.546875 159.566406 98.832031 159.691406 C 99.429688 159.953125 100.125 159.683594 100.386719 159.085938 C 100.425781 158.996094 101.335938 156.886719 101.203125 154.238281 C 101.089844 151.933594 100.148438 148.730469 96.363281 146.445312 C 97.515625 144.636719 104.558594 133.589844 106.035156 131.425781 C 107.175781 129.75 108.519531 129.089844 109.550781 129.695312 L 109.578125 129.710938 C 109.886719 129.882812 110.855469 130.519531 110.472656 131.609375 L 103.855469 141.695312 C 103.597656 141.542969 103.441406 141.46875 103.417969 141.457031 C 102.832031 141.183594 102.128906 141.433594 101.851562 142.019531 C 101.570312 142.605469 101.824219 143.3125 102.402344 143.589844 C 102.53125 143.652344 105.527344 145.207031 107.566406 149.550781 C 109.386719 153.421875 111.496094 155.007812 112.59375 155.605469 C 112.984375 155.820312 113.234375 155.902344 113.28125 155.917969 C 113.902344 156.109375 114.566406 155.757812 114.757812 155.136719 C 114.847656 154.835938 114.820312 154.515625 114.671875 154.238281 C 114.523438 153.957031 114.277344 153.753906 113.984375 153.664062 C 113.980469 153.664062 113.710938 153.566406 113.277344 153.261719 L 113.503906 152.933594 C 113.507812 152.929688 113.511719 152.925781 113.511719 152.921875 L 113.535156 152.886719 C 116.113281 149.132812 119.214844 144.632812 119.476562 144.300781 C 120.929688 142.445312 121.847656 143.082031 122.242188 143.351562 C 122.5625 143.574219 122.734375 143.808594 122.78125 144.097656 C 122.882812 144.734375 122.402344 145.539062 122.21875 145.78125 L 111.105469 161.847656 C 110.238281 163.097656 109.140625 164.136719 107.839844 164.929688 L 101.933594 168.535156 C 101.664062 168.699219 101.476562 168.960938 101.402344 169.265625 C 101.328125 169.574219 101.378906 169.890625 101.542969 170.160156 C 101.648438 170.335938 101.800781 170.480469 101.984375 170.578125 C 102.351562 170.78125 102.804688 170.769531 103.164062 170.550781 L 109.070312 166.945312 C 110.652344 165.976562 111.988281 164.714844 113.042969 163.1875 L 124.113281 147.1875 C 124.328125 146.90625 125.375 145.414062 125.113281 143.738281 Z M 119.964844 136.128906 C 121.230469 137.222656 120.570312 138.355469 120.335938 138.683594 L 111.582031 151.5625 L 111.558594 151.601562 C 110.882812 150.753906 110.257812 149.730469 109.703125 148.546875 C 109.625 148.378906 109.542969 148.210938 109.460938 148.050781 L 115.152344 139.460938 L 117.484375 136.132812 C 117.6875 135.960938 117.90625 135.828125 118.132812 135.746094 C 118.796875 135.5 119.378906 135.621094 119.964844 136.128906 Z M 112.519531 132.789062 L 114.679688 129.492188 C 114.894531 129.167969 115.136719 128.90625 115.402344 128.714844 C 116.058594 128.242188 116.6875 128.226562 117.375 128.65625 C 117.628906 128.816406 118.304688 129.238281 118.101562 130.535156 C 118.019531 131.050781 117.804688 131.558594 117.464844 132.050781 L 115.703125 134.5625 C 115.449219 134.8125 115.21875 135.089844 115.019531 135.390625 L 108.117188 145.804688 C 107.410156 144.792969 106.613281 143.890625 105.75 143.113281 Z M 112.519531 132.789062 " fill-opacity="1" fill-rule="nonzero"/></g></g></g><g clip-path="url(#91aa337cca)"><g clip-path="url(#e6dd10ed4f)"><g clip-path="url(#130f92557a)"><path fill="#13b818" d="M 208.863281 200.714844 C 174.265625 214.777344 134.25 202.390625 113.714844 171.265625 C 111.144531 167.363281 110.464844 162.558594 111.855469 158.078125 C 113.253906 153.5625 116.570312 149.949219 120.945312 148.171875 L 235.191406 101.738281 C 239.570312 99.957031 244.464844 100.234375 248.617188 102.492188 C 252.738281 104.730469 255.605469 108.648438 256.484375 113.238281 C 263.488281 149.863281 243.460938 186.65625 208.863281 200.714844 Z M 208.863281 200.714844 " fill-opacity="1" fill-rule="nonzero"/></g></g></g><g clip-path="url(#a1986dd122)"><g clip-path="url(#c722409e7e)"><g clip-path="url(#2d29bc839d)"><path fill="#ffffff" d="M 236.398438 104.703125 C 243.660156 101.753906 251.867188 106.140625 253.339844 113.839844 C 259.949219 148.417969 241.515625 183.988281 207.65625 197.75 C 173.796875 211.511719 135.773438 198.886719 116.390625 169.5 C 112.074219 162.957031 114.890625 154.089844 122.152344 151.136719 L 236.398438 104.703125 M 233.988281 98.769531 L 119.742188 145.203125 C 114.46875 147.347656 110.480469 151.691406 108.792969 157.128906 C 107.117188 162.527344 107.9375 168.324219 111.042969 173.027344 C 121.304688 188.585938 136.796875 200.265625 154.664062 205.914062 C 172.769531 211.636719 192.445312 210.84375 210.066406 203.683594 C 227.6875 196.523438 242.339844 183.363281 251.316406 166.628906 C 260.179688 150.117188 263.128906 130.941406 259.628906 112.636719 C 258.570312 107.101562 255.117188 102.378906 250.148438 99.675781 C 245.148438 96.960938 239.257812 96.628906 233.988281 98.769531 Z M 233.988281 98.769531 " fill-opacity="1" fill-rule="nonzero"/></g></g></g><g clip-path="url(#a7eea03572)"><g clip-path="url(#d5f9295885)"><g clip-path="url(#ecdbf3f513)"><path fill="#ffffff" d="M 182.164062 153.6875 C 182.480469 154.472656 182.722656 155.28125 182.882812 156.113281 C 183.042969 156.945312 183.117188 157.789062 183.113281 158.636719 C 183.109375 159.484375 183.019531 160.324219 182.847656 161.152344 C 182.675781 161.984375 182.425781 162.789062 182.097656 163.570312 C 181.765625 164.351562 181.363281 165.09375 180.890625 165.796875 C 180.414062 166.5 179.875 167.148438 179.269531 167.742188 C 178.664062 168.339844 178.007812 168.871094 177.300781 169.335938 C 176.59375 169.804688 175.847656 170.195312 175.058594 170.515625 C 174.273438 170.835938 173.464844 171.074219 172.632812 171.234375 C 171.800781 171.394531 170.960938 171.472656 170.109375 171.464844 C 169.261719 171.460938 168.421875 171.371094 167.59375 171.199219 C 166.761719 171.03125 165.957031 170.78125 165.175781 170.449219 C 164.394531 170.121094 163.652344 169.71875 162.949219 169.242188 C 162.246094 168.765625 161.597656 168.226562 161.003906 167.621094 C 160.40625 167.019531 159.875 166.363281 159.410156 165.652344 C 158.941406 164.945312 158.550781 164.199219 158.230469 163.414062 C 157.910156 162.628906 157.671875 161.816406 157.511719 160.984375 C 157.351562 160.152344 157.273438 159.3125 157.28125 158.464844 C 157.285156 157.617188 157.375 156.777344 157.546875 155.945312 C 157.714844 155.113281 157.96875 154.308594 158.296875 153.527344 C 158.625 152.746094 159.03125 152.003906 159.503906 151.300781 C 159.980469 150.601562 160.519531 149.949219 161.125 149.355469 C 161.726562 148.757812 162.382812 148.230469 163.09375 147.761719 C 163.800781 147.296875 164.546875 146.902344 165.332031 146.582031 C 166.121094 146.265625 166.929688 146.023438 167.761719 145.863281 C 168.59375 145.703125 169.433594 145.628906 170.28125 145.632812 C 171.132812 145.640625 171.96875 145.726562 172.800781 145.898438 C 173.632812 146.070312 174.4375 146.320312 175.21875 146.648438 C 176 146.980469 176.742188 147.382812 177.445312 147.859375 C 178.148438 148.332031 178.796875 148.875 179.390625 149.476562 C 179.988281 150.082031 180.519531 150.738281 180.984375 151.445312 C 181.449219 152.152344 181.84375 152.898438 182.164062 153.6875 Z M 182.164062 153.6875 " fill-opacity="1" fill-rule="nonzero"/></g></g></g><g clip-path="url(#dd0454df35)"><g clip-path="url(#24a83e5fcf)"><g clip-path="url(#5e00a38c67)"><path fill="#000000" d="M 179.765625 149.878906 C 184.554688 155.164062 184.15625 163.332031 178.867188 168.125 L 161.519531 148.984375 C 166.808594 144.191406 174.976562 144.59375 179.765625 149.878906 Z M 179.765625 149.878906 " fill-opacity="1" fill-rule="nonzero"/></g></g></g><g clip-path="url(#b4ce21a539)"><g clip-path="url(#cc0fba77f9)"><g clip-path="url(#53d33bea3e)"><path fill="#ffffff" d="M 219.113281 138.667969 C 219.433594 139.453125 219.671875 140.261719 219.832031 141.097656 C 219.992188 141.929688 220.070312 142.769531 220.0625 143.617188 C 220.058594 144.464844 219.96875 145.304688 219.796875 146.136719 C 219.628906 146.964844 219.378906 147.773438 219.046875 148.554688 C 218.71875 149.335938 218.316406 150.078125 217.839844 150.777344 C 217.363281 151.480469 216.824219 152.128906 216.21875 152.726562 C 215.617188 153.320312 214.960938 153.851562 214.25 154.320312 C 213.542969 154.785156 212.796875 155.179688 212.011719 155.496094 C 211.226562 155.816406 210.414062 156.054688 209.582031 156.214844 C 208.75 156.375 207.910156 156.453125 207.0625 156.449219 C 206.214844 156.441406 205.375 156.355469 204.542969 156.183594 C 203.710938 156.011719 202.90625 155.761719 202.125 155.433594 C 201.34375 155.101562 200.601562 154.699219 199.898438 154.222656 C 199.199219 153.746094 198.550781 153.207031 197.953125 152.605469 C 197.359375 152 196.828125 151.34375 196.359375 150.636719 C 195.894531 149.925781 195.5 149.179688 195.179688 148.394531 C 194.863281 147.609375 194.621094 146.800781 194.460938 145.96875 C 194.300781 145.132812 194.226562 144.292969 194.230469 143.445312 C 194.238281 142.597656 194.324219 141.757812 194.496094 140.925781 C 194.667969 140.097656 194.917969 139.289062 195.246094 138.507812 C 195.578125 137.726562 195.980469 136.984375 196.457031 136.285156 C 196.929688 135.582031 197.472656 134.933594 198.074219 134.335938 C 198.679688 133.742188 199.335938 133.210938 200.042969 132.746094 C 200.75 132.277344 201.5 131.886719 202.285156 131.566406 C 203.070312 131.246094 203.878906 131.007812 204.710938 130.847656 C 205.542969 130.6875 206.386719 130.609375 207.234375 130.617188 C 208.082031 130.621094 208.921875 130.710938 209.75 130.878906 C 210.582031 131.050781 211.386719 131.300781 212.167969 131.632812 C 212.949219 131.960938 213.691406 132.363281 214.394531 132.839844 C 215.097656 133.316406 215.746094 133.855469 216.339844 134.460938 C 216.9375 135.0625 217.46875 135.71875 217.933594 136.425781 C 218.402344 137.136719 218.792969 137.882812 219.113281 138.667969 Z M 219.113281 138.667969 " fill-opacity="1" fill-rule="nonzero"/></g></g></g><g clip-path="url(#978e4deafe)"><g clip-path="url(#8232e1c5ef)"><g clip-path="url(#f76bb83997)"><path fill="#000000" d="M 216.714844 134.863281 C 221.507812 140.148438 221.105469 148.316406 215.820312 153.105469 L 198.472656 133.964844 C 203.757812 129.175781 211.925781 129.578125 216.714844 134.863281 Z M 216.714844 134.863281 " fill-opacity="1" fill-rule="nonzero"/></g></g></g><g clip-path="url(#a7022dd6a5)"><g clip-path="url(#f25e15c93b)"><g clip-path="url(#39d2d54134)"><path fill="#ffffff" d="M 216.8125 174.324219 C 216.179688 173.917969 215.34375 174.101562 214.9375 174.730469 C 208.816406 184.257812 196.257812 187.1875 186.578125 181.507812 C 187.21875 180.242188 187.507812 178.828125 187.347656 177.371094 C 187.265625 176.628906 186.597656 176.089844 185.851562 176.171875 C 185.109375 176.253906 184.570312 176.925781 184.652344 177.667969 C 184.929688 180.175781 183.082031 182.542969 180.167969 183.417969 C 179.453125 183.632812 179.042969 184.390625 179.257812 185.105469 C 179.472656 185.824219 180.230469 186.230469 180.945312 186.015625 C 181.269531 185.917969 181.582031 185.808594 181.886719 185.683594 C 183.082031 185.199219 184.117188 184.515625 184.960938 183.695312 C 191.597656 187.695312 199.472656 188.082031 206.199219 185.34375 C 210.578125 183.566406 214.472656 180.46875 217.21875 176.195312 C 217.625 175.566406 217.441406 174.726562 216.8125 174.324219 Z M 216.8125 174.324219 " fill-opacity="1" fill-rule="nonzero"/></g></g></g><g clip-path="url(#81877f33de)"><g clip-path="url(#73d8cb2157)"><path fill="#8b97fd" d="M 124.105469 36.515625 L 214.296875 36.515625 L 214.296875 124.765625 L 124.105469 124.765625 Z M 124.105469 36.515625 " fill-opacity="1" fill-rule="nonzero"/></g></g><g clip-path="url(#3ceca7507d)"><g clip-path="url(#f04a1305b0)"><g clip-path="url(#47cb0e12ce)"><g clip-path="url(#a7cffdecec)"><path fill="#000000" d="M 176.347656 55.847656 C 162.203125 51.921875 147.578125 60.195312 143.648438 74.339844 C 139.71875 88.484375 147.980469 103.117188 162.121094 107.046875 C 176.265625 110.976562 190.917969 102.707031 194.847656 88.5625 C 198.777344 74.421875 190.492188 59.777344 176.347656 55.847656 Z M 163.558594 101.929688 C 152.242188 98.789062 145.625 87.078125 148.769531 75.761719 C 151.914062 64.449219 163.621094 57.828125 174.9375 60.972656 C 186.253906 64.117188 192.871094 75.828125 189.726562 87.140625 C 186.582031 98.457031 174.871094 105.074219 163.558594 101.929688 Z M 178.917969 81.382812 C 181.042969 81.972656 183.234375 80.734375 183.824219 78.609375 C 184.414062 76.484375 183.175781 74.292969 181.050781 73.703125 C 178.925781 73.113281 176.734375 74.351562 176.144531 76.476562 C 175.554688 78.597656 176.792969 80.792969 178.917969 81.382812 Z M 161 76.402344 C 163.125 76.992188 165.316406 75.753906 165.90625 73.628906 C 166.496094 71.503906 165.257812 69.3125 163.132812 68.722656 C 161.007812 68.132812 158.816406 69.371094 158.226562 71.496094 C 157.636719 73.621094 158.875 75.8125 161 76.402344 Z M 165.335938 95.53125 C 171.300781 97.1875 177.390625 94.867188 180.894531 90.203125 L 154.757812 82.941406 C 155.351562 88.746094 159.371094 93.875 165.335938 95.53125 Z M 165.335938 95.53125 " fill-opacity="1" fill-rule="nonzero"/></g></g></g></g><g clip-path="url(#b339afc3b5)"><g clip-path="url(#6a55ac69d1)"><g clip-path="url(#653a0096df)"><path fill="#ffdf2b" d="M 340.855469 106.519531 C 341.960938 107.089844 343.03125 107.707031 344.078125 108.382812 C 345.121094 109.054688 346.128906 109.777344 347.101562 110.550781 C 348.074219 111.320312 349.003906 112.140625 349.898438 113.003906 C 350.789062 113.867188 351.636719 114.769531 352.441406 115.71875 C 353.242188 116.664062 354 117.648438 354.703125 118.671875 C 355.410156 119.691406 356.066406 120.746094 356.667969 121.832031 C 357.273438 122.914062 357.820312 124.027344 358.3125 125.167969 C 358.808594 126.304688 359.246094 127.46875 359.625 128.648438 C 360.003906 129.832031 360.324219 131.03125 360.585938 132.242188 C 360.847656 133.457031 361.050781 134.679688 361.191406 135.914062 C 361.332031 137.148438 361.414062 138.386719 361.433594 139.628906 C 361.453125 140.867188 361.414062 142.109375 361.3125 143.34375 C 361.210938 144.582031 361.050781 145.8125 360.828125 147.035156 C 360.605469 148.253906 360.320312 149.464844 359.980469 150.65625 C 359.640625 151.851562 359.242188 153.027344 358.785156 154.179688 C 358.328125 155.335938 357.816406 156.464844 357.25 157.570312 C 356.679688 158.671875 356.0625 159.746094 355.386719 160.789062 C 354.714844 161.835938 353.992188 162.84375 353.21875 163.816406 C 352.449219 164.789062 351.628906 165.71875 350.765625 166.613281 C 349.902344 167.503906 348.996094 168.351562 348.050781 169.15625 C 347.105469 169.957031 346.121094 170.710938 345.097656 171.417969 C 344.078125 172.125 343.023438 172.78125 341.9375 173.382812 C 340.851562 173.988281 339.742188 174.535156 338.601562 175.027344 C 337.460938 175.523438 336.300781 175.957031 335.121094 176.339844 C 333.9375 176.71875 332.738281 177.039062 331.527344 177.300781 C 330.3125 177.5625 329.089844 177.765625 327.855469 177.90625 C 326.621094 178.046875 325.382812 178.128906 324.140625 178.148438 C 322.902344 178.167969 321.660156 178.128906 320.421875 178.027344 C 319.1875 177.925781 317.957031 177.761719 316.734375 177.539062 C 315.511719 177.316406 314.304688 177.035156 313.113281 176.695312 C 311.917969 176.355469 310.742188 175.957031 309.589844 175.5 C 308.433594 175.042969 307.304688 174.53125 306.199219 173.960938 C 305.09375 173.394531 304.023438 172.773438 302.976562 172.101562 C 301.933594 171.429688 300.925781 170.707031 299.953125 169.933594 C 298.980469 169.164062 298.050781 168.34375 297.15625 167.480469 C 296.265625 166.617188 295.417969 165.710938 294.613281 164.765625 C 293.8125 163.816406 293.054688 162.835938 292.351562 161.8125 C 291.644531 160.792969 290.988281 159.738281 290.386719 158.652344 C 289.78125 157.566406 289.234375 156.457031 288.742188 155.316406 C 288.246094 154.175781 287.808594 153.015625 287.429688 151.832031 C 287.050781 150.652344 286.730469 149.453125 286.46875 148.238281 C 286.207031 147.027344 286.003906 145.800781 285.863281 144.570312 C 285.722656 143.335938 285.640625 142.097656 285.621094 140.855469 C 285.601562 139.613281 285.640625 138.375 285.742188 137.136719 C 285.84375 135.898438 286.007812 134.671875 286.226562 133.449219 C 286.449219 132.226562 286.734375 131.019531 287.074219 129.824219 C 287.414062 128.632812 287.8125 127.457031 288.269531 126.304688 C 288.726562 125.148438 289.238281 124.019531 289.804688 122.914062 C 290.375 121.808594 290.992188 120.734375 291.667969 119.691406 C 292.339844 118.648438 293.0625 117.640625 293.835938 116.667969 C 294.605469 115.695312 295.425781 114.765625 296.289062 113.871094 C 297.152344 112.980469 298.058594 112.132812 299.003906 111.328125 C 299.949219 110.527344 300.933594 109.769531 301.957031 109.0625 C 302.976562 108.359375 304.03125 107.703125 305.117188 107.101562 C 306.203125 106.496094 307.3125 105.949219 308.453125 105.453125 C 309.59375 104.960938 310.753906 104.523438 311.933594 104.144531 C 313.117188 103.765625 314.316406 103.445312 315.527344 103.183594 C 316.742188 102.921875 317.964844 102.71875 319.199219 102.578125 C 320.433594 102.433594 321.671875 102.355469 322.914062 102.335938 C 324.152344 102.3125 325.394531 102.355469 326.632812 102.457031 C 327.867188 102.558594 329.097656 102.71875 330.320312 102.941406 C 331.542969 103.164062 332.75 103.445312 333.941406 103.789062 C 335.136719 104.128906 336.3125 104.527344 337.464844 104.984375 C 338.621094 105.441406 339.75 105.953125 340.855469 106.519531 Z M 340.855469 106.519531 " fill-opacity="1" fill-rule="nonzero"/></g></g></g><g clip-path="url(#51a1f1d6a8)"><g clip-path="url(#6174c04867)"><g clip-path="url(#2095023bf6)"><path fill="#fffff7" d="M 334.75 105.648438 C 353.855469 111.847656 364.316406 132.359375 358.117188 151.464844 C 351.917969 170.570312 331.40625 181.03125 312.300781 174.832031 C 293.199219 168.632812 282.734375 148.121094 288.933594 129.015625 C 295.132812 109.910156 315.644531 99.449219 334.75 105.648438 M 335.703125 102.710938 C 325.679688 99.457031 314.988281 100.300781 305.597656 105.089844 C 296.210938 109.878906 289.246094 118.039062 285.996094 128.0625 C 282.742188 138.085938 283.585938 148.78125 288.375 158.167969 C 293.164062 167.558594 301.324219 174.519531 311.347656 177.773438 C 321.375 181.023438 332.066406 180.179688 341.453125 175.390625 C 350.84375 170.601562 357.804688 162.445312 361.058594 152.417969 C 364.3125 142.394531 363.464844 131.703125 358.675781 122.3125 C 353.886719 112.925781 345.730469 105.960938 335.703125 102.710938 Z M 335.703125 102.710938 " fill-opacity="1" fill-rule="nonzero"/></g></g></g><g clip-path="url(#7f85657bb8)"><g clip-path="url(#c7f900a503)"><g clip-path="url(#3a0b00e9fd)"><path fill="#fffff7" d="M 315.753906 164.195312 C 312.535156 163.148438 310.765625 159.679688 311.808594 156.460938 C 312.855469 153.238281 316.324219 151.46875 319.542969 152.515625 C 322.761719 153.558594 324.535156 157.03125 323.488281 160.25 C 322.445312 163.46875 318.972656 165.238281 315.753906 164.195312 Z M 318.707031 155.089844 C 316.90625 154.507812 314.96875 155.496094 314.382812 157.296875 C 313.800781 159.09375 314.789062 161.035156 316.589844 161.617188 C 318.390625 162.203125 320.328125 161.214844 320.914062 159.414062 C 321.496094 157.613281 320.507812 155.675781 318.707031 155.089844 Z M 318.707031 155.089844 " fill-opacity="1" fill-rule="nonzero"/></g></g></g><g clip-path="url(#1cb60edd2e)"><g clip-path="url(#8c9a3ec7f7)"><g clip-path="url(#4323bf2ce5)"><path fill="#000000" d="M 342.019531 151.296875 C 341.109375 151 340.609375 150.019531 340.90625 149.105469 C 341.652344 146.796875 340.386719 144.308594 338.074219 143.5625 C 335.765625 142.8125 333.277344 144.082031 332.53125 146.390625 C 332.234375 147.300781 331.253906 147.800781 330.339844 147.503906 C 329.429688 147.210938 328.929688 146.230469 329.226562 145.316406 C 330.566406 141.1875 335.015625 138.917969 339.148438 140.257812 C 343.277344 141.597656 345.550781 146.046875 344.210938 150.179688 C 343.914062 151.09375 342.933594 151.589844 342.019531 151.296875 Z M 342.019531 151.296875 " fill-opacity="1" fill-rule="nonzero"/></g></g></g><g clip-path="url(#06b10047cd)"><g clip-path="url(#d9d2ec7088)"><g clip-path="url(#6a74919f11)"><path fill="#000000" d="M 313.742188 142.121094 C 312.832031 141.824219 312.332031 140.84375 312.628906 139.933594 C 313.378906 137.625 312.109375 135.132812 309.796875 134.386719 C 307.488281 133.636719 305 134.90625 304.253906 137.214844 C 303.957031 138.125 302.976562 138.625 302.0625 138.332031 C 301.152344 138.035156 300.652344 137.054688 300.949219 136.140625 C 302.289062 132.011719 306.738281 129.742188 310.871094 131.082031 C 315 132.421875 317.273438 136.871094 315.933594 141.003906 C 315.636719 141.917969 314.65625 142.417969 313.742188 142.121094 Z M 313.742188 142.121094 " fill-opacity="1" fill-rule="nonzero"/></g></g></g></svg>