<svg xmlns="http://www.w3.org/2000/svg" xmlns:xlink="http://www.w3.org/1999/xlink" width="268" zoomAndPan="magnify" viewBox="0 0 200.87999 179.999997" height="240" preserveAspectRatio="xMidYMid meet" version="1.0"><defs><clipPath id="6776fcdc6b"><path d="M 40 18 L 180 18 L 180 159 L 40 159 Z M 40 18 " clip-rule="nonzero"/></clipPath><clipPath id="059e9cea86"><path d="M 19.34375 40.457031 L 160.570312 -0.015625 L 200.425781 139.050781 L 59.195312 179.523438 Z M 19.34375 40.457031 " clip-rule="nonzero"/></clipPath><clipPath id="3497e67a90"><path d="M 19.34375 40.457031 L 160.570312 -0.015625 L 200.425781 139.050781 L 59.195312 179.523438 Z M 19.34375 40.457031 " clip-rule="nonzero"/></clipPath><clipPath id="318589bc0b"><path d="M 37 16 L 183 16 L 183 162 L 37 162 Z M 37 16 " clip-rule="nonzero"/></clipPath><clipPath id="dc9783970c"><path d="M 19.34375 40.457031 L 160.570312 -0.015625 L 200.425781 139.050781 L 59.195312 179.523438 Z M 19.34375 40.457031 " clip-rule="nonzero"/></clipPath><clipPath id="56da9849ba"><path d="M 19.34375 40.457031 L 160.570312 -0.015625 L 200.425781 139.050781 L 59.195312 179.523438 Z M 19.34375 40.457031 " clip-rule="nonzero"/></clipPath><clipPath id="b79b7fbb1b"><path d="M 96 102 L 130 102 L 130 113 L 96 113 Z M 96 102 " clip-rule="nonzero"/></clipPath><clipPath id="3974c1feab"><path d="M 19.34375 40.457031 L 160.570312 -0.015625 L 200.425781 139.050781 L 59.195312 179.523438 Z M 19.34375 40.457031 " clip-rule="nonzero"/></clipPath><clipPath id="c204a94d6a"><path d="M 19.34375 40.457031 L 160.570312 -0.015625 L 200.425781 139.050781 L 59.195312 179.523438 Z M 19.34375 40.457031 " clip-rule="nonzero"/></clipPath><clipPath id="2585cdc15b"><path d="M 117 80 L 134 80 L 134 92 L 117 92 Z M 117 80 " clip-rule="nonzero"/></clipPath><clipPath id="58ffb7a0ed"><path d="M 19.34375 40.457031 L 160.570312 -0.015625 L 200.425781 139.050781 L 59.195312 179.523438 Z M 19.34375 40.457031 " clip-rule="nonzero"/></clipPath><clipPath id="ac36db72d6"><path d="M 19.34375 40.457031 L 160.570312 -0.015625 L 200.425781 139.050781 L 59.195312 179.523438 Z M 19.34375 40.457031 " clip-rule="nonzero"/></clipPath><clipPath id="fb52e5bd94"><path d="M 87 88 L 104 88 L 104 101 L 87 101 Z M 87 88 " clip-rule="nonzero"/></clipPath><clipPath id="42b7da8b14"><path d="M 19.34375 40.457031 L 160.570312 -0.015625 L 200.425781 139.050781 L 59.195312 179.523438 Z M 19.34375 40.457031 " clip-rule="nonzero"/></clipPath><clipPath id="9d244fa582"><path d="M 19.34375 40.457031 L 160.570312 -0.015625 L 200.425781 139.050781 L 59.195312 179.523438 Z M 19.34375 40.457031 " clip-rule="nonzero"/></clipPath><clipPath id="62609f0624"><path d="M 16 64 L 93 64 L 93 141 L 16 141 Z M 16 64 " clip-rule="nonzero"/></clipPath><clipPath id="08b9743dca"><path d="M 26.894531 47.976562 L 109.597656 74.8125 L 82.761719 157.515625 L 0.0585938 130.679688 Z M 26.894531 47.976562 " clip-rule="nonzero"/></clipPath><clipPath id="08e4dd70ae"><path d="M 26.894531 47.976562 L 109.597656 74.8125 L 82.761719 157.515625 L 0.0585938 130.679688 Z M 26.894531 47.976562 " clip-rule="nonzero"/></clipPath><clipPath id="486d322f0d"><path d="M 15 63 L 95 63 L 95 143 L 15 143 Z M 15 63 " clip-rule="nonzero"/></clipPath><clipPath id="59972202d2"><path d="M 26.894531 47.976562 L 109.597656 74.8125 L 82.761719 157.515625 L 0.0585938 130.679688 Z M 26.894531 47.976562 " clip-rule="nonzero"/></clipPath><clipPath id="290d62fbad"><path d="M 26.894531 47.976562 L 109.597656 74.8125 L 82.761719 157.515625 L 0.0585938 130.679688 Z M 26.894531 47.976562 " clip-rule="nonzero"/></clipPath><clipPath id="811ca0acfd"><path d="M 42 114 L 56 114 L 56 128 L 42 128 Z M 42 114 " clip-rule="nonzero"/></clipPath><clipPath id="53feddf5f3"><path d="M 26.894531 47.976562 L 109.597656 74.8125 L 82.761719 157.515625 L 0.0585938 130.679688 Z M 26.894531 47.976562 " clip-rule="nonzero"/></clipPath><clipPath id="b77c638857"><path d="M 26.894531 47.976562 L 109.597656 74.8125 L 82.761719 157.515625 L 0.0585938 130.679688 Z M 26.894531 47.976562 " clip-rule="nonzero"/></clipPath><clipPath id="d54f5c4218"><path d="M 60 102 L 76 102 L 76 115 L 60 115 Z M 60 102 " clip-rule="nonzero"/></clipPath><clipPath id="4cdcccdb66"><path d="M 26.894531 47.976562 L 109.597656 74.8125 L 82.761719 157.515625 L 0.0585938 130.679688 Z M 26.894531 47.976562 " clip-rule="nonzero"/></clipPath><clipPath id="91a7dd14ee"><path d="M 26.894531 47.976562 L 109.597656 74.8125 L 82.761719 157.515625 L 0.0585938 130.679688 Z M 26.894531 47.976562 " clip-rule="nonzero"/></clipPath><clipPath id="5591832005"><path d="M 32 93 L 48 93 L 48 105 L 32 105 Z M 32 93 " clip-rule="nonzero"/></clipPath><clipPath id="c61ba809b2"><path d="M 26.894531 47.976562 L 109.597656 74.8125 L 82.761719 157.515625 L 0.0585938 130.679688 Z M 26.894531 47.976562 " clip-rule="nonzero"/></clipPath><clipPath id="a45d5b7a83"><path d="M 26.894531 47.976562 L 109.597656 74.8125 L 82.761719 157.515625 L 0.0585938 130.679688 Z M 26.894531 47.976562 " clip-rule="nonzero"/></clipPath></defs><g clip-path="url(#6776fcdc6b)"><g clip-path="url(#059e9cea86)"><g clip-path="url(#3497e67a90)"><path fill="#8b97fd" d="M 128.992188 156.804688 C 126.539062 157.503906 124.003906 156.417969 122.828125 154.15625 L 113.46875 136.171875 C 113.246094 135.742188 112.832031 135.820312 112.710938 135.855469 C 112.445312 135.933594 112.351562 136.121094 112.304688 136.253906 L 105.535156 155.363281 C 104.953125 157.003906 103.679688 158.21875 102.042969 158.6875 C 100.480469 159.132812 98.761719 158.84375 97.4375 157.910156 C 96.144531 156.996094 95.347656 155.539062 95.246094 153.914062 L 94.011719 133.679688 C 94.003906 133.546875 93.96875 133.355469 93.765625 133.207031 C 93.597656 133.089844 93.375 133.046875 93.195312 133.097656 C 93.097656 133.125 93.003906 133.1875 92.914062 133.28125 L 78.957031 147.984375 C 78.289062 148.6875 77.460938 149.195312 76.566406 149.453125 C 74.671875 149.996094 72.5625 149.390625 71.191406 147.90625 C 69.820312 146.425781 69.433594 144.394531 70.148438 142.476562 L 77.25 123.488281 C 77.285156 123.398438 77.390625 123.121094 77.128906 122.839844 C 77.027344 122.730469 76.808594 122.558594 76.503906 122.644531 C 76.472656 122.65625 76.441406 122.664062 76.410156 122.679688 L 57.679688 130.433594 C 57.476562 130.515625 57.277344 130.585938 57.078125 130.644531 C 54.75 131.3125 52.347656 130.34375 51.09375 128.238281 C 49.847656 126.140625 50.160156 123.5625 51.875 121.820312 L 66.085938 107.363281 C 66.277344 107.164062 66.324219 106.933594 66.222656 106.675781 C 66.117188 106.421875 65.925781 106.285156 65.648438 106.28125 L 45.382812 105.746094 C 42.832031 105.679688 40.742188 103.878906 40.300781 101.367188 C 39.859375 98.855469 41.207031 96.449219 43.578125 95.515625 L 62.441406 88.089844 C 62.699219 87.984375 62.835938 87.792969 62.84375 87.515625 C 62.855469 87.242188 62.734375 87.039062 62.484375 86.921875 L 44.1875 78.1875 C 42.179688 77.230469 41 75.191406 41.183594 72.992188 C 41.371094 70.753906 42.855469 68.914062 44.960938 68.3125 C 45.519531 68.152344 46.105469 68.085938 46.703125 68.109375 L 66.957031 68.996094 C 67.039062 69 67.117188 68.992188 67.183594 68.972656 C 67.410156 68.910156 67.546875 68.699219 67.601562 68.527344 C 67.683594 68.246094 67.566406 68.0625 67.46875 67.945312 L 54.304688 52.53125 C 53.105469 51.125 52.71875 49.328125 53.238281 47.597656 C 53.765625 45.855469 55.164062 44.464844 56.890625 43.96875 C 58.144531 43.609375 59.496094 43.742188 60.703125 44.34375 L 78.84375 53.394531 C 79 53.472656 79.140625 53.488281 79.285156 53.449219 C 79.457031 53.398438 79.617188 53.269531 79.703125 53.113281 C 79.78125 52.96875 79.792969 52.820312 79.738281 52.640625 L 73.984375 33.203125 C 73.574219 31.824219 73.71875 30.386719 74.390625 29.164062 C 75.070312 27.925781 76.253906 26.988281 77.636719 26.59375 C 79.675781 26.007812 81.792969 26.671875 83.15625 28.328125 L 96.046875 43.972656 C 96.222656 44.1875 96.449219 44.257812 96.714844 44.179688 C 96.980469 44.105469 97.136719 43.925781 97.171875 43.652344 L 99.820312 23.550781 C 100.101562 21.425781 101.542969 19.742188 103.585938 19.15625 C 104.964844 18.761719 106.464844 18.929688 107.699219 19.621094 C 108.917969 20.300781 109.796875 21.441406 110.183594 22.832031 L 115.597656 42.367188 C 115.648438 42.546875 115.738281 42.667969 115.878906 42.746094 C 116.035156 42.832031 116.238281 42.859375 116.410156 42.808594 C 116.554688 42.765625 116.664062 42.679688 116.757812 42.527344 L 127.351562 25.246094 C 128.054688 24.097656 129.132812 23.265625 130.382812 22.910156 C 132.109375 22.414062 134.035156 22.851562 135.402344 24.050781 C 136.761719 25.242188 137.382812 26.972656 137.113281 28.800781 L 134.113281 48.847656 C 134.089844 48.996094 134.085938 49.214844 134.308594 49.414062 C 134.445312 49.53125 134.671875 49.632812 134.898438 49.570312 C 134.964844 49.550781 135.035156 49.515625 135.105469 49.46875 L 151.8125 37.988281 C 152.304688 37.648438 152.839844 37.398438 153.394531 37.238281 C 155.503906 36.632812 157.734375 37.40625 159.078125 39.207031 C 160.398438 40.976562 160.480469 43.332031 159.285156 45.207031 L 148.390625 62.300781 C 148.238281 62.535156 148.242188 62.769531 148.398438 63 C 148.554688 63.230469 148.769531 63.320312 149.042969 63.269531 L 168.976562 59.578125 C 171.484375 59.117188 173.902344 60.441406 174.855469 62.808594 C 175.808594 65.171875 174.992188 67.804688 172.863281 69.210938 L 155.960938 80.398438 C 155.726562 80.550781 155.636719 80.765625 155.683594 81.039062 C 155.730469 81.3125 155.894531 81.484375 156.160156 81.550781 L 175.875 86.285156 C 178.25 86.855469 179.878906 88.878906 179.933594 91.3125 C 179.988281 93.765625 178.460938 95.859375 176.132812 96.527344 C 175.933594 96.582031 175.726562 96.632812 175.511719 96.667969 L 155.515625 100.007812 C 155.484375 100.015625 155.453125 100.023438 155.421875 100.03125 C 155.113281 100.117188 155.019531 100.378906 154.992188 100.523438 C 154.921875 100.90625 155.15625 101.085938 155.234375 101.144531 L 171.3125 113.488281 C 172.9375 114.734375 173.683594 116.664062 173.304688 118.644531 C 172.929688 120.625 171.460938 122.257812 169.566406 122.800781 C 168.667969 123.058594 167.699219 123.066406 166.757812 122.824219 L 147.132812 117.742188 C 147.007812 117.710938 146.898438 117.710938 146.796875 117.738281 C 146.621094 117.789062 146.453125 117.945312 146.375 118.132812 C 146.277344 118.367188 146.351562 118.546875 146.414062 118.664062 L 156.082031 136.480469 C 156.859375 137.910156 156.953125 139.570312 156.339844 141.03125 C 155.714844 142.523438 154.410156 143.679688 152.847656 144.128906 C 151.210938 144.597656 149.488281 144.242188 148.125 143.15625 L 132.261719 130.535156 C 132.152344 130.449219 131.972656 130.339844 131.707031 130.414062 C 131.585938 130.449219 131.191406 130.601562 131.230469 131.085938 L 132.816406 151.292969 C 133.015625 153.835938 131.441406 156.101562 128.992188 156.804688 Z M 128.992188 156.804688 " fill-opacity="1" fill-rule="nonzero"/></g></g></g><g clip-path="url(#318589bc0b)"><g clip-path="url(#dc9783970c)"><g clip-path="url(#56da9849ba)"><path fill="#ffffff" d="M 104.335938 21.777344 C 105.597656 21.417969 107.117188 21.980469 107.554688 23.558594 L 112.96875 43.09375 C 113.511719 45.050781 115.484375 45.910156 117.160156 45.433594 C 117.914062 45.214844 118.605469 44.730469 119.082031 43.953125 L 129.675781 26.671875 C 130.050781 26.058594 130.574219 25.691406 131.132812 25.53125 C 132.761719 25.066406 134.71875 26.335938 134.410156 28.394531 L 131.414062 48.445312 C 131.035156 50.96875 133.425781 52.828125 135.648438 52.191406 C 135.988281 52.09375 136.324219 51.9375 136.648438 51.71875 L 153.355469 40.238281 C 153.613281 40.058594 153.878906 39.9375 154.144531 39.859375 C 156.242188 39.257812 158.316406 41.640625 156.980469 43.738281 L 146.085938 60.835938 C 144.503906 63.316406 146.644531 66.488281 149.539062 65.953125 L 169.46875 62.261719 C 172.226562 61.753906 173.695312 65.390625 171.359375 66.933594 L 154.453125 78.121094 C 151.996094 79.746094 152.660156 83.515625 155.523438 84.203125 L 175.234375 88.9375 C 177.847656 89.566406 177.828125 93.199219 175.378906 93.902344 C 175.277344 93.929688 175.167969 93.957031 175.058594 93.972656 L 155.0625 97.316406 C 154.925781 97.339844 154.792969 97.371094 154.667969 97.40625 C 152.082031 98.148438 151.34375 101.601562 153.570312 103.308594 L 169.648438 115.652344 C 171.464844 117.042969 170.648438 119.652344 168.8125 120.175781 C 168.398438 120.296875 167.9375 120.308594 167.4375 120.179688 L 147.8125 115.101562 C 147.1875 114.9375 146.585938 114.957031 146.042969 115.113281 C 144.109375 115.667969 142.917969 117.949219 144.011719 119.964844 L 153.683594 137.78125 C 154.574219 139.421875 153.535156 141.089844 152.09375 141.503906 C 151.375 141.710938 150.550781 141.601562 149.820312 141.019531 L 133.957031 128.398438 C 133.027344 127.660156 131.925781 127.511719 130.953125 127.789062 C 129.515625 128.203125 128.367188 129.546875 128.507812 131.296875 L 130.09375 151.507812 C 130.203125 152.902344 129.316406 153.871094 128.238281 154.179688 C 127.160156 154.488281 125.894531 154.136719 125.25 152.894531 L 115.890625 134.914062 C 115.082031 133.355469 113.394531 132.820312 111.957031 133.234375 C 110.984375 133.511719 110.128906 134.222656 109.730469 135.34375 L 102.960938 154.449219 C 102.648438 155.332031 102.007812 155.855469 101.289062 156.0625 C 99.847656 156.476562 98.085938 155.613281 97.96875 153.746094 L 96.734375 133.515625 C 96.597656 131.222656 94.375 129.921875 92.445312 130.472656 C 91.898438 130.628906 91.378906 130.933594 90.933594 131.402344 L 76.976562 146.105469 C 76.625 146.476562 76.222656 146.710938 75.8125 146.828125 C 73.976562 147.355469 71.902344 145.574219 72.703125 143.433594 L 79.808594 124.445312 C 80.789062 121.820312 78.335938 119.28125 75.75 120.023438 C 75.621094 120.058594 75.496094 120.101562 75.367188 120.15625 L 56.636719 127.910156 C 56.535156 127.953125 56.429688 127.988281 56.324219 128.019531 C 53.878906 128.71875 51.9375 125.648438 53.820312 123.730469 L 68.03125 109.273438 C 70.09375 107.175781 68.660156 103.628906 65.71875 103.550781 L 45.453125 103.015625 C 42.65625 102.941406 41.972656 99.078125 44.582031 98.054688 L 63.441406 90.625 C 66.179688 89.546875 66.316406 85.722656 63.660156 84.457031 L 45.363281 75.726562 C 43.121094 74.65625 43.617188 71.535156 45.714844 70.933594 C 45.980469 70.859375 46.269531 70.824219 46.582031 70.835938 L 66.835938 71.722656 C 67.226562 71.742188 67.59375 71.695312 67.933594 71.597656 C 70.160156 70.960938 71.199219 68.117188 69.542969 66.175781 L 56.378906 50.757812 C 55.027344 49.175781 56.015625 47.058594 57.644531 46.59375 C 58.203125 46.429688 58.839844 46.464844 59.484375 46.785156 L 77.625 55.835938 C 78.441406 56.242188 79.285156 56.285156 80.035156 56.070312 C 81.710938 55.589844 82.929688 53.816406 82.355469 51.867188 L 76.601562 32.429688 C 76.132812 30.859375 77.125 29.578125 78.386719 29.214844 C 79.28125 28.960938 80.308594 29.167969 81.050781 30.0625 L 93.941406 45.707031 C 94.878906 46.84375 96.265625 47.148438 97.464844 46.804688 C 98.667969 46.460938 99.683594 45.464844 99.875 44.007812 L 102.527344 23.910156 C 102.679688 22.757812 103.441406 22.035156 104.335938 21.777344 M 102.832031 16.53125 C 99.730469 17.421875 97.539062 19.976562 97.117188 23.195312 L 95.09375 38.523438 L 85.261719 26.59375 C 83.195312 24.085938 79.984375 23.082031 76.882812 23.96875 C 74.804688 24.5625 73.027344 25.980469 71.996094 27.855469 C 70.972656 29.71875 70.75 31.894531 71.367188 33.980469 L 75.753906 48.804688 L 61.917969 41.902344 C 60.101562 40.996094 58.050781 40.800781 56.140625 41.347656 C 53.53125 42.09375 51.417969 44.1875 50.625 46.808594 C 49.84375 49.410156 50.445312 52.210938 52.230469 54.300781 L 62.269531 66.058594 L 46.824219 65.382812 C 45.929688 65.34375 45.050781 65.445312 44.210938 65.6875 C 41.050781 66.59375 38.742188 69.4375 38.464844 72.765625 C 38.1875 76.105469 39.972656 79.199219 43.011719 80.652344 L 56.96875 87.308594 L 42.582031 92.976562 C 38.988281 94.390625 36.945312 98.035156 37.617188 101.839844 C 38.285156 105.644531 41.449219 108.371094 45.3125 108.472656 L 60.765625 108.878906 L 49.929688 119.90625 C 47.332031 122.546875 46.859375 126.453125 48.75 129.628906 C 50.613281 132.769531 54.347656 134.261719 57.828125 133.265625 C 58.132812 133.179688 58.433594 133.074219 58.726562 132.953125 L 73.011719 127.039062 L 67.59375 141.519531 C 66.527344 144.378906 67.136719 147.539062 69.1875 149.757812 C 71.25 151.988281 74.441406 152.898438 77.316406 152.074219 C 78.683594 151.683594 79.933594 150.917969 80.9375 149.859375 L 91.582031 138.648438 L 92.523438 154.078125 C 92.675781 156.535156 93.890625 158.742188 95.863281 160.136719 C 97.855469 161.542969 100.445312 161.980469 102.792969 161.308594 C 105.289062 160.59375 107.226562 158.757812 108.109375 156.273438 L 113.269531 141.699219 L 120.410156 155.414062 C 122.191406 158.839844 126.03125 160.488281 129.742188 159.425781 C 133.457031 158.363281 135.835938 154.929688 135.535156 151.078125 L 134.324219 135.664062 L 146.421875 145.292969 C 148.488281 146.933594 151.101562 147.464844 153.597656 146.75 C 155.945312 146.078125 157.910156 144.332031 158.855469 142.085938 C 159.789062 139.855469 159.652344 137.339844 158.480469 135.179688 L 151.105469 121.589844 L 166.074219 125.460938 C 167.484375 125.828125 168.953125 125.8125 170.316406 125.421875 C 173.191406 124.597656 175.417969 122.136719 175.984375 119.152344 C 176.550781 116.179688 175.394531 113.179688 172.972656 111.320312 L 160.707031 101.90625 L 175.957031 99.355469 C 176.269531 99.304688 176.582031 99.234375 176.882812 99.148438 C 180.363281 98.148438 182.742188 94.902344 182.660156 91.253906 C 182.582031 87.558594 180.109375 84.496094 176.511719 83.628906 L 161.476562 80.019531 L 174.371094 71.488281 C 177.589844 69.355469 178.832031 65.363281 177.386719 61.785156 C 175.9375 58.203125 172.277344 56.191406 168.476562 56.894531 L 153.273438 59.710938 L 161.585938 46.671875 C 163.394531 43.832031 163.269531 40.257812 161.265625 37.574219 C 159.265625 34.898438 155.800781 33.707031 152.644531 34.613281 C 151.804688 34.855469 151.003906 35.234375 150.265625 35.738281 L 137.523438 44.496094 L 139.8125 29.203125 C 140.21875 26.480469 139.242188 23.789062 137.203125 22 C 135.144531 20.195312 132.242188 19.535156 129.632812 20.285156 C 127.722656 20.832031 126.085938 22.085938 125.023438 23.820312 L 116.941406 37 L 112.8125 22.101562 C 112.234375 20.003906 110.890625 18.277344 109.035156 17.238281 C 107.167969 16.195312 104.910156 15.9375 102.832031 16.53125 Z M 102.832031 16.53125 " fill-opacity="1" fill-rule="nonzero"/></g></g></g><g clip-path="url(#b79b7fbb1b)"><g clip-path="url(#3974c1feab)"><g clip-path="url(#c204a94d6a)"><path fill="#ffffff" d="M 129.140625 103.816406 C 128.644531 103.414062 127.917969 103.492188 127.515625 103.992188 C 121.464844 111.503906 110.558594 112.84375 102.875 107.152344 C 103.535156 106.140625 103.90625 104.96875 103.902344 103.71875 C 103.902344 103.082031 103.382812 102.566406 102.746094 102.566406 C 102.105469 102.570312 101.59375 103.085938 101.59375 103.726562 C 101.597656 105.875 99.820312 107.710938 97.269531 108.1875 C 96.648438 108.304688 96.230469 108.910156 96.347656 109.535156 C 96.464844 110.164062 97.066406 110.574219 97.695312 110.457031 C 97.976562 110.40625 98.253906 110.339844 98.523438 110.261719 C 99.578125 109.960938 100.515625 109.476562 101.308594 108.855469 C 106.566406 112.851562 113.199219 113.894531 119.148438 112.1875 C 123.019531 111.078125 126.601562 108.808594 129.3125 105.4375 C 129.714844 104.941406 129.636719 104.214844 129.140625 103.816406 Z M 129.140625 103.816406 " fill-opacity="1" fill-rule="nonzero"/></g></g></g><g clip-path="url(#2585cdc15b)"><g clip-path="url(#58ffb7a0ed)"><g clip-path="url(#ac36db72d6)"><path fill="#000000" d="M 132.058594 88.3125 C 131.101562 88.585938 130.101562 88.03125 129.828125 87.074219 C 129.132812 84.652344 126.597656 83.242188 124.171875 83.9375 C 121.746094 84.632812 120.339844 87.171875 121.035156 89.59375 C 121.308594 90.550781 120.753906 91.550781 119.796875 91.828125 C 118.839844 92.101562 117.839844 91.546875 117.566406 90.589844 C 116.324219 86.25 118.839844 81.710938 123.175781 80.46875 C 127.515625 79.226562 132.054688 81.742188 133.296875 86.082031 C 133.570312 87.039062 133.019531 88.039062 132.058594 88.3125 Z M 132.058594 88.3125 " fill-opacity="1" fill-rule="nonzero"/></g></g></g><g clip-path="url(#fb52e5bd94)"><g clip-path="url(#42b7da8b14)"><g clip-path="url(#9d244fa582)"><path fill="#000000" d="M 102.371094 96.820312 C 101.414062 97.09375 100.414062 96.539062 100.140625 95.582031 C 99.445312 93.160156 96.910156 91.75 94.484375 92.445312 C 92.058594 93.140625 90.652344 95.679688 91.347656 98.101562 C 91.621094 99.058594 91.066406 100.058594 90.109375 100.332031 C 89.152344 100.609375 88.152344 100.054688 87.878906 99.097656 C 86.636719 94.757812 89.152344 90.21875 93.488281 88.976562 C 97.828125 87.734375 102.367188 90.25 103.609375 94.589844 C 103.886719 95.546875 103.332031 96.546875 102.371094 96.820312 Z M 102.371094 96.820312 " fill-opacity="1" fill-rule="nonzero"/></g></g></g><g clip-path="url(#62609f0624)"><g clip-path="url(#08b9743dca)"><g clip-path="url(#08e4dd70ae)"><path fill="#ffdf2b" d="M 72.246094 69.101562 C 73.351562 69.667969 74.429688 70.289062 75.472656 70.964844 C 76.519531 71.636719 77.527344 72.363281 78.503906 73.132812 C 79.476562 73.90625 80.410156 74.726562 81.304688 75.59375 C 82.195312 76.457031 83.046875 77.363281 83.851562 78.3125 C 84.65625 79.261719 85.410156 80.246094 86.117188 81.269531 C 86.824219 82.292969 87.480469 83.347656 88.085938 84.433594 C 88.6875 85.519531 89.238281 86.632812 89.734375 87.777344 C 90.226562 88.917969 90.664062 90.078125 91.042969 91.261719 C 91.425781 92.445312 91.746094 93.648438 92.007812 94.863281 C 92.269531 96.078125 92.472656 97.304688 92.613281 98.539062 C 92.757812 99.773438 92.839844 101.015625 92.859375 102.257812 C 92.878906 103.5 92.835938 104.742188 92.734375 105.980469 C 92.632812 107.222656 92.472656 108.453125 92.25 109.675781 C 92.027344 110.898438 91.742188 112.109375 91.402344 113.304688 C 91.058594 114.5 90.660156 115.675781 90.203125 116.832031 C 89.746094 117.988281 89.234375 119.121094 88.664062 120.226562 C 88.097656 121.332031 87.476562 122.410156 86.800781 123.453125 C 86.128906 124.5 85.402344 125.507812 84.632812 126.480469 C 83.859375 127.457031 83.039062 128.390625 82.171875 129.28125 C 81.308594 130.175781 80.402344 131.027344 79.453125 131.828125 C 78.503906 132.632812 77.519531 133.390625 76.496094 134.097656 C 75.472656 134.804688 74.417969 135.460938 73.332031 136.066406 C 72.246094 136.667969 71.132812 137.21875 69.992188 137.710938 C 68.847656 138.207031 67.6875 138.644531 66.503906 139.023438 C 65.320312 139.40625 64.117188 139.726562 62.902344 139.988281 C 61.6875 140.25 60.460938 140.453125 59.226562 140.59375 C 57.992188 140.738281 56.75 140.816406 55.507812 140.839844 C 54.265625 140.859375 53.023438 140.816406 51.785156 140.714844 C 50.542969 140.613281 49.3125 140.453125 48.089844 140.230469 C 46.867188 140.007812 45.65625 139.722656 44.460938 139.382812 C 43.265625 139.039062 42.089844 138.640625 40.933594 138.183594 C 39.777344 137.726562 38.644531 137.214844 37.539062 136.644531 C 36.433594 136.078125 35.355469 135.457031 34.3125 134.78125 C 33.265625 134.109375 32.257812 133.382812 31.285156 132.609375 C 30.308594 131.835938 29.375 131.019531 28.484375 130.152344 C 27.589844 129.289062 26.738281 128.382812 25.9375 127.433594 C 25.132812 126.484375 24.375 125.5 23.667969 124.476562 C 22.960938 123.453125 22.304688 122.398438 21.699219 121.3125 C 21.097656 120.226562 20.546875 119.109375 20.054688 117.96875 C 19.558594 116.828125 19.121094 115.667969 18.742188 114.484375 C 18.359375 113.296875 18.039062 112.097656 17.777344 110.882812 C 17.515625 109.667969 17.3125 108.441406 17.171875 107.207031 C 17.027344 105.972656 16.949219 104.730469 16.925781 103.488281 C 16.90625 102.246094 16.949219 101.003906 17.050781 99.765625 C 17.152344 98.523438 17.3125 97.292969 17.535156 96.070312 C 17.757812 94.847656 18.042969 93.636719 18.382812 92.441406 C 18.726562 91.246094 19.125 90.070312 19.582031 88.914062 C 20.039062 87.757812 20.550781 86.625 21.121094 85.519531 C 21.6875 84.414062 22.308594 83.335938 22.984375 82.292969 C 23.65625 81.246094 24.382812 80.238281 25.15625 79.265625 C 25.929688 78.289062 26.746094 77.355469 27.613281 76.460938 C 28.476562 75.570312 29.382812 74.71875 30.332031 73.914062 C 31.28125 73.113281 32.265625 72.355469 33.289062 71.648438 C 34.3125 70.941406 35.367188 70.285156 36.453125 69.679688 C 37.539062 69.078125 38.65625 68.527344 39.796875 68.03125 C 40.9375 67.539062 42.097656 67.101562 43.28125 66.722656 C 44.46875 66.339844 45.667969 66.019531 46.882812 65.757812 C 48.097656 65.496094 49.324219 65.292969 50.558594 65.152344 C 51.792969 65.007812 53.035156 64.925781 54.277344 64.90625 C 55.519531 64.886719 56.761719 64.929688 58 65.03125 C 59.242188 65.132812 60.472656 65.292969 61.695312 65.515625 C 62.917969 65.738281 64.128906 66.023438 65.324219 66.363281 C 66.519531 66.707031 67.695312 67.105469 68.851562 67.5625 C 70.007812 68.019531 71.140625 68.53125 72.246094 69.101562 Z M 72.246094 69.101562 " fill-opacity="1" fill-rule="nonzero"/></g></g></g><g clip-path="url(#486d322f0d)"><g clip-path="url(#59972202d2)"><g clip-path="url(#290d62fbad)"><path fill="#fffff7" d="M 66.132812 68.226562 C 85.265625 74.4375 95.746094 94.980469 89.535156 114.113281 C 83.328125 133.246094 62.785156 143.726562 43.648438 137.515625 C 24.515625 131.308594 14.039062 110.765625 20.246094 91.628906 C 26.457031 72.496094 47 62.019531 66.132812 68.226562 M 67.089844 65.285156 C 57.046875 62.027344 46.339844 62.871094 36.9375 67.667969 C 27.535156 72.464844 20.5625 80.636719 17.304688 90.675781 C 14.046875 100.714844 14.890625 111.421875 19.6875 120.828125 C 24.484375 130.230469 32.65625 137.203125 42.695312 140.460938 C 52.734375 143.71875 63.441406 142.871094 72.847656 138.074219 C 82.25 133.28125 89.222656 125.109375 92.480469 115.070312 C 95.738281 105.027344 94.890625 94.320312 90.09375 84.917969 C 85.300781 75.515625 77.128906 68.542969 67.089844 65.285156 Z M 67.089844 65.285156 " fill-opacity="1" fill-rule="nonzero"/></g></g></g><g clip-path="url(#811ca0acfd)"><g clip-path="url(#53feddf5f3)"><g clip-path="url(#b77c638857)"><path fill="#fffff7" d="M 47.105469 126.863281 C 43.882812 125.816406 42.109375 122.339844 43.15625 119.117188 C 44.203125 115.890625 47.675781 114.117188 50.902344 115.164062 C 54.128906 116.210938 55.898438 119.6875 54.855469 122.910156 C 53.808594 126.136719 50.332031 127.910156 47.105469 126.863281 Z M 50.066406 117.742188 C 48.261719 117.160156 46.320312 118.148438 45.734375 119.953125 C 45.152344 121.753906 46.140625 123.699219 47.945312 124.28125 C 49.746094 124.867188 51.691406 123.875 52.273438 122.074219 C 52.859375 120.273438 51.867188 118.328125 50.066406 117.742188 Z M 50.066406 117.742188 " fill-opacity="1" fill-rule="nonzero"/></g></g></g><g clip-path="url(#d54f5c4218)"><g clip-path="url(#4cdcccdb66)"><g clip-path="url(#91a7dd14ee)"><path fill="#000000" d="M 73.414062 113.945312 C 72.5 113.648438 72 112.664062 72.296875 111.75 C 73.046875 109.441406 71.777344 106.949219 69.464844 106.195312 C 67.152344 105.445312 64.660156 106.71875 63.910156 109.03125 C 63.613281 109.945312 62.632812 110.445312 61.71875 110.148438 C 60.804688 109.851562 60.300781 108.871094 60.597656 107.957031 C 61.941406 103.820312 66.398438 101.546875 70.535156 102.886719 C 74.675781 104.230469 76.949219 108.6875 75.605469 112.824219 C 75.308594 113.738281 74.328125 114.238281 73.414062 113.945312 Z M 73.414062 113.945312 " fill-opacity="1" fill-rule="nonzero"/></g></g></g><g clip-path="url(#5591832005)"><g clip-path="url(#c61ba809b2)"><g clip-path="url(#a45d5b7a83)"><path fill="#000000" d="M 45.09375 104.753906 C 44.179688 104.457031 43.679688 103.476562 43.976562 102.5625 C 44.726562 100.25 43.457031 97.757812 41.144531 97.007812 C 38.832031 96.257812 36.339844 97.527344 35.589844 99.839844 C 35.292969 100.753906 34.308594 101.253906 33.398438 100.957031 C 32.484375 100.660156 31.980469 99.679688 32.277344 98.765625 C 33.621094 94.628906 38.078125 92.355469 42.214844 93.699219 C 46.355469 95.042969 48.628906 99.5 47.285156 103.636719 C 46.988281 104.550781 46.007812 105.050781 45.09375 104.753906 Z M 45.09375 104.753906 " fill-opacity="1" fill-rule="nonzero"/></g></g></g></svg>