<svg xmlns="http://www.w3.org/2000/svg" xmlns:xlink="http://www.w3.org/1999/xlink" width="332" zoomAndPan="magnify" viewBox="0 0 249 169.5" height="226" preserveAspectRatio="xMidYMid meet" version="1.0"><defs><clipPath id="03285c1152"><path d="M 10 9 L 157 9 L 157 116 L 10 116 Z M 10 9 " clip-rule="nonzero"/></clipPath><clipPath id="8ffc74ea80"><path d="M 0.367188 61.25 L 151.390625 -0.128906 L 184.613281 81.617188 L 33.589844 142.996094 Z M 0.367188 61.25 " clip-rule="nonzero"/></clipPath><clipPath id="ec99368299"><path d="M 0.367188 61.25 L 151.390625 -0.128906 L 184.613281 81.617188 L 33.589844 142.996094 Z M 0.367188 61.25 " clip-rule="nonzero"/></clipPath><clipPath id="3f8dbb38f0"><path d="M 6 6 L 160 6 L 160 119 L 6 119 Z M 6 6 " clip-rule="nonzero"/></clipPath><clipPath id="2316339e62"><path d="M 0.367188 61.25 L 151.390625 -0.128906 L 184.613281 81.617188 L 33.589844 142.996094 Z M 0.367188 61.25 " clip-rule="nonzero"/></clipPath><clipPath id="a36c44eddc"><path d="M 0.367188 61.25 L 151.390625 -0.128906 L 184.613281 81.617188 L 33.589844 142.996094 Z M 0.367188 61.25 " clip-rule="nonzero"/></clipPath><clipPath id="1da9809844"><path d="M 56 54 L 82 54 L 82 81 L 56 81 Z M 56 54 " clip-rule="nonzero"/></clipPath><clipPath id="1653ac35a7"><path d="M 0.367188 61.25 L 151.390625 -0.128906 L 184.613281 81.617188 L 33.589844 142.996094 Z M 0.367188 61.25 " clip-rule="nonzero"/></clipPath><clipPath id="088639b95e"><path d="M 0.367188 61.25 L 151.390625 -0.128906 L 184.613281 81.617188 L 33.589844 142.996094 Z M 0.367188 61.25 " clip-rule="nonzero"/></clipPath><clipPath id="240d868f2b"><path d="M 60 54 L 82 54 L 82 77 L 60 77 Z M 60 54 " clip-rule="nonzero"/></clipPath><clipPath id="14b75035e5"><path d="M 0.367188 61.25 L 151.390625 -0.128906 L 184.613281 81.617188 L 33.589844 142.996094 Z M 0.367188 61.25 " clip-rule="nonzero"/></clipPath><clipPath id="e91c39483d"><path d="M 0.367188 61.25 L 151.390625 -0.128906 L 184.613281 81.617188 L 33.589844 142.996094 Z M 0.367188 61.25 " clip-rule="nonzero"/></clipPath><clipPath id="8acdb7db5b"><path d="M 93 39 L 119 39 L 119 66 L 93 66 Z M 93 39 " clip-rule="nonzero"/></clipPath><clipPath id="3f4f957ad4"><path d="M 0.367188 61.25 L 151.390625 -0.128906 L 184.613281 81.617188 L 33.589844 142.996094 Z M 0.367188 61.25 " clip-rule="nonzero"/></clipPath><clipPath id="ef3a07d43a"><path d="M 0.367188 61.25 L 151.390625 -0.128906 L 184.613281 81.617188 L 33.589844 142.996094 Z M 0.367188 61.25 " clip-rule="nonzero"/></clipPath><clipPath id="be0af7168d"><path d="M 97 39 L 119 39 L 119 62 L 97 62 Z M 97 39 " clip-rule="nonzero"/></clipPath><clipPath id="3c43a73a83"><path d="M 0.367188 61.25 L 151.390625 -0.128906 L 184.613281 81.617188 L 33.589844 142.996094 Z M 0.367188 61.25 " clip-rule="nonzero"/></clipPath><clipPath id="584d99bc36"><path d="M 0.367188 61.25 L 151.390625 -0.128906 L 184.613281 81.617188 L 33.589844 142.996094 Z M 0.367188 61.25 " clip-rule="nonzero"/></clipPath><clipPath id="b5236958eb"><path d="M 78 82 L 117 82 L 117 96 L 78 96 Z M 78 82 " clip-rule="nonzero"/></clipPath><clipPath id="898d3ea1d0"><path d="M 0.367188 61.25 L 151.390625 -0.128906 L 184.613281 81.617188 L 33.589844 142.996094 Z M 0.367188 61.25 " clip-rule="nonzero"/></clipPath><clipPath id="fb98924dff"><path d="M 0.367188 61.25 L 151.390625 -0.128906 L 184.613281 81.617188 L 33.589844 142.996094 Z M 0.367188 61.25 " clip-rule="nonzero"/></clipPath><clipPath id="d1de0a65be"><path d="M 109 30 L 219 30 L 219 139 L 109 139 Z M 109 30 " clip-rule="nonzero"/></clipPath><clipPath id="4b0a01a6ce"><path d="M 139.289062 0 L 248.199219 59.558594 L 188.640625 168.472656 L 79.730469 108.914062 Z M 139.289062 0 " clip-rule="nonzero"/></clipPath><clipPath id="49b75eb3ca"><path d="M 139.289062 0 L 248.199219 59.558594 L 188.640625 168.472656 L 79.730469 108.914062 Z M 139.289062 0 " clip-rule="nonzero"/></clipPath><clipPath id="fc9187ad34"><path d="M 107 27 L 221 27 L 221 141 L 107 141 Z M 107 27 " clip-rule="nonzero"/></clipPath><clipPath id="30a772772c"><path d="M 139.289062 0 L 248.199219 59.558594 L 188.640625 168.472656 L 79.730469 108.914062 Z M 139.289062 0 " clip-rule="nonzero"/></clipPath><clipPath id="9104216d7b"><path d="M 139.289062 0 L 248.199219 59.558594 L 188.640625 168.472656 L 79.730469 108.914062 Z M 139.289062 0 " clip-rule="nonzero"/></clipPath><clipPath id="a6e0c90c2a"><path d="M 161 42 L 167 42 L 167 69 L 161 69 Z M 161 42 " clip-rule="nonzero"/></clipPath><clipPath id="b136a1360c"><path d="M 139.289062 0 L 248.199219 59.558594 L 188.640625 168.472656 L 79.730469 108.914062 Z M 139.289062 0 " clip-rule="nonzero"/></clipPath><clipPath id="06686cb5ca"><path d="M 139.289062 0 L 248.199219 59.558594 L 188.640625 168.472656 L 79.730469 108.914062 Z M 139.289062 0 " clip-rule="nonzero"/></clipPath><clipPath id="c48a0ee5d3"><path d="M 169 47 L 174 47 L 174 67 L 169 67 Z M 169 47 " clip-rule="nonzero"/></clipPath><clipPath id="88c319e108"><path d="M 139.289062 0 L 248.199219 59.558594 L 188.640625 168.472656 L 79.730469 108.914062 Z M 139.289062 0 " clip-rule="nonzero"/></clipPath><clipPath id="686f42c31b"><path d="M 139.289062 0 L 248.199219 59.558594 L 188.640625 168.472656 L 79.730469 108.914062 Z M 139.289062 0 " clip-rule="nonzero"/></clipPath><clipPath id="d8475e99df"><path d="M 176 62 L 201 62 L 201 76 L 176 76 Z M 176 62 " clip-rule="nonzero"/></clipPath><clipPath id="74d74c95bd"><path d="M 139.289062 0 L 248.199219 59.558594 L 188.640625 168.472656 L 79.730469 108.914062 Z M 139.289062 0 " clip-rule="nonzero"/></clipPath><clipPath id="01268b4540"><path d="M 139.289062 0 L 248.199219 59.558594 L 188.640625 168.472656 L 79.730469 108.914062 Z M 139.289062 0 " clip-rule="nonzero"/></clipPath><clipPath id="dbed26d889"><path d="M 175 56 L 191 56 L 191 70 L 175 70 Z M 175 56 " clip-rule="nonzero"/></clipPath><clipPath id="8ca2f195d6"><path d="M 139.289062 0 L 248.199219 59.558594 L 188.640625 168.472656 L 79.730469 108.914062 Z M 139.289062 0 " clip-rule="nonzero"/></clipPath><clipPath id="c05cb38db4"><path d="M 139.289062 0 L 248.199219 59.558594 L 188.640625 168.472656 L 79.730469 108.914062 Z M 139.289062 0 " clip-rule="nonzero"/></clipPath><clipPath id="6931d603cc"><path d="M 122 51 L 160 51 L 160 110 L 122 110 Z M 122 51 " clip-rule="nonzero"/></clipPath><clipPath id="04f6b1c52a"><path d="M 139.289062 0 L 248.199219 59.558594 L 188.640625 168.472656 L 79.730469 108.914062 Z M 139.289062 0 " clip-rule="nonzero"/></clipPath><clipPath id="6e09b8a638"><path d="M 139.289062 0 L 248.199219 59.558594 L 188.640625 168.472656 L 79.730469 108.914062 Z M 139.289062 0 " clip-rule="nonzero"/></clipPath><clipPath id="017725df5b"><path d="M 158 77 L 205 77 L 205 124 L 158 124 Z M 158 77 " clip-rule="nonzero"/></clipPath><clipPath id="f77638775c"><path d="M 139.289062 0 L 248.199219 59.558594 L 188.640625 168.472656 L 79.730469 108.914062 Z M 139.289062 0 " clip-rule="nonzero"/></clipPath><clipPath id="95437434cd"><path d="M 139.289062 0 L 248.199219 59.558594 L 188.640625 168.472656 L 79.730469 108.914062 Z M 139.289062 0 " clip-rule="nonzero"/></clipPath></defs><g clip-path="url(#03285c1152)"><g clip-path="url(#8ffc74ea80)"><g clip-path="url(#ec99368299)"><path fill="#13b818" d="M 107.726562 109.273438 C 73.15625 123.324219 33.175781 110.949219 12.660156 79.847656 C 10.085938 75.949219 9.410156 71.148438 10.796875 66.671875 C 12.195312 62.160156 15.507812 58.550781 19.882812 56.773438 L 134.035156 10.378906 C 138.410156 8.601562 143.296875 8.875 147.449219 11.128906 C 151.566406 13.367188 154.429688 17.285156 155.308594 21.871094 C 162.304688 58.464844 142.296875 95.226562 107.726562 109.273438 Z M 107.726562 109.273438 " fill-opacity="1" fill-rule="nonzero"/></g></g></g><g clip-path="url(#3f8dbb38f0)"><g clip-path="url(#2316339e62)"><g clip-path="url(#a36c44eddc)"><path fill="#ffffff" d="M 135.238281 13.34375 C 142.496094 10.394531 150.695312 14.777344 152.164062 22.472656 C 158.769531 57.019531 140.351562 92.558594 106.519531 106.308594 C 72.691406 120.058594 34.699219 107.445312 15.328125 78.085938 C 11.015625 71.546875 13.832031 62.6875 21.085938 59.738281 L 135.238281 13.34375 M 132.828125 7.414062 L 18.675781 53.808594 C 13.410156 55.949219 9.425781 60.292969 7.738281 65.722656 C 6.066406 71.117188 6.886719 76.910156 9.988281 81.609375 C 20.242188 97.15625 35.71875 108.824219 53.570312 114.46875 C 71.664062 120.1875 91.324219 119.394531 108.929688 112.238281 C 126.535156 105.082031 141.171875 91.9375 150.144531 75.214844 C 159 58.71875 161.949219 39.558594 158.453125 21.269531 C 157.394531 15.738281 153.941406 11.015625 148.976562 8.320312 C 143.980469 5.605469 138.09375 5.273438 132.828125 7.414062 Z M 132.828125 7.414062 " fill-opacity="1" fill-rule="nonzero"/></g></g></g><g clip-path="url(#1da9809844)"><g clip-path="url(#1653ac35a7)"><g clip-path="url(#088639b95e)"><path fill="#ffffff" d="M 81.046875 62.285156 C 81.367188 63.070312 81.605469 63.878906 81.765625 64.710938 C 81.925781 65.542969 82.003906 66.382812 81.996094 67.230469 C 81.992188 68.074219 81.902344 68.914062 81.734375 69.746094 C 81.5625 70.574219 81.3125 71.378906 80.984375 72.160156 C 80.652344 72.941406 80.25 73.683594 79.773438 74.382812 C 79.300781 75.085938 78.761719 75.734375 78.15625 76.328125 C 77.554688 76.925781 76.898438 77.457031 76.191406 77.921875 C 75.484375 78.386719 74.738281 78.78125 73.953125 79.097656 C 73.167969 79.417969 72.359375 79.65625 71.527344 79.816406 C 70.695312 79.976562 69.855469 80.054688 69.007812 80.046875 C 68.160156 80.042969 67.320312 79.953125 66.492188 79.785156 C 65.660156 79.613281 64.855469 79.363281 64.074219 79.03125 C 63.292969 78.703125 62.550781 78.300781 61.851562 77.824219 C 61.148438 77.351562 60.5 76.8125 59.90625 76.207031 C 59.3125 75.605469 58.78125 74.949219 58.3125 74.242188 C 57.847656 73.535156 57.457031 72.789062 57.136719 72.003906 C 56.816406 71.21875 56.578125 70.410156 56.417969 69.578125 C 56.257812 68.742188 56.179688 67.902344 56.1875 67.058594 C 56.191406 66.210938 56.28125 65.371094 56.453125 64.539062 C 56.621094 63.710938 56.871094 62.90625 57.203125 62.125 C 57.53125 61.34375 57.933594 60.601562 58.410156 59.902344 C 58.886719 59.199219 59.425781 58.550781 60.027344 57.957031 C 60.628906 57.359375 61.285156 56.832031 61.992188 56.363281 C 62.703125 55.898438 63.449219 55.503906 64.234375 55.1875 C 65.019531 54.867188 65.828125 54.628906 66.660156 54.46875 C 67.492188 54.308594 68.332031 54.230469 69.179688 54.238281 C 70.027344 54.242188 70.863281 54.332031 71.695312 54.5 C 72.523438 54.671875 73.328125 54.921875 74.109375 55.253906 C 74.890625 55.582031 75.632812 55.984375 76.332031 56.460938 C 77.035156 56.933594 77.683594 57.476562 78.277344 58.078125 C 78.875 58.679688 79.40625 59.335938 79.871094 60.042969 C 80.335938 60.753906 80.730469 61.5 81.046875 62.285156 Z M 81.046875 62.285156 " fill-opacity="1" fill-rule="nonzero"/></g></g></g><g clip-path="url(#240d868f2b)"><g clip-path="url(#14b75035e5)"><g clip-path="url(#e91c39483d)"><path fill="#000000" d="M 78.652344 58.480469 C 83.4375 63.761719 83.039062 71.921875 77.757812 76.710938 L 60.421875 57.585938 C 65.707031 52.796875 73.867188 53.199219 78.652344 58.480469 Z M 78.652344 58.480469 " fill-opacity="1" fill-rule="nonzero"/></g></g></g><g clip-path="url(#8acdb7db5b)"><g clip-path="url(#3f4f957ad4)"><g clip-path="url(#ef3a07d43a)"><path fill="#ffffff" d="M 117.96875 47.277344 C 118.289062 48.0625 118.527344 48.871094 118.6875 49.703125 C 118.847656 50.535156 118.921875 51.375 118.917969 52.222656 C 118.910156 53.070312 118.824219 53.910156 118.652344 54.738281 C 118.480469 55.570312 118.230469 56.375 117.902344 57.15625 C 117.574219 57.9375 117.171875 58.675781 116.695312 59.378906 C 116.21875 60.082031 115.679688 60.730469 115.078125 61.324219 C 114.472656 61.917969 113.816406 62.449219 113.109375 62.914062 C 112.402344 63.382812 111.65625 63.773438 110.871094 64.09375 C 110.085938 64.414062 109.277344 64.652344 108.445312 64.8125 C 107.613281 64.972656 106.773438 65.046875 105.925781 65.042969 C 105.078125 65.039062 104.238281 64.949219 103.410156 64.777344 C 102.578125 64.609375 101.773438 64.355469 100.992188 64.027344 C 100.214844 63.699219 99.472656 63.296875 98.769531 62.820312 C 98.070312 62.34375 97.421875 61.804688 96.824219 61.203125 C 96.230469 60.597656 95.699219 59.945312 95.234375 59.234375 C 94.765625 58.527344 94.375 57.78125 94.054688 56.996094 C 93.738281 56.210938 93.496094 55.402344 93.335938 54.570312 C 93.179688 53.738281 93.101562 52.898438 93.105469 52.050781 C 93.113281 51.203125 93.199219 50.367188 93.371094 49.535156 C 93.542969 48.707031 93.792969 47.898438 94.121094 47.121094 C 94.449219 46.339844 94.855469 45.597656 95.328125 44.894531 C 95.804688 44.195312 96.34375 43.546875 96.945312 42.949219 C 97.550781 42.355469 98.207031 41.824219 98.914062 41.359375 C 99.621094 40.894531 100.367188 40.5 101.152344 40.179688 C 101.9375 39.863281 102.746094 39.621094 103.578125 39.464844 C 104.410156 39.304688 105.25 39.226562 106.097656 39.230469 C 106.945312 39.238281 107.785156 39.324219 108.613281 39.496094 C 109.445312 39.667969 110.25 39.917969 111.03125 40.246094 C 111.8125 40.578125 112.550781 40.980469 113.253906 41.453125 C 113.953125 41.929688 114.601562 42.46875 115.199219 43.074219 C 115.792969 43.675781 116.324219 44.332031 116.789062 45.039062 C 117.257812 45.746094 117.648438 46.492188 117.96875 47.277344 Z M 117.96875 47.277344 " fill-opacity="1" fill-rule="nonzero"/></g></g></g><g clip-path="url(#be0af7168d)"><g clip-path="url(#3c43a73a83)"><g clip-path="url(#584d99bc36)"><path fill="#000000" d="M 115.574219 43.476562 C 120.359375 48.757812 119.957031 56.917969 114.675781 61.703125 L 97.34375 42.578125 C 102.625 37.792969 110.785156 38.195312 115.574219 43.476562 Z M 115.574219 43.476562 " fill-opacity="1" fill-rule="nonzero"/></g></g></g><g clip-path="url(#b5236958eb)"><g clip-path="url(#898d3ea1d0)"><g clip-path="url(#fb98924dff)"><path fill="#ffffff" d="M 115.667969 82.902344 C 115.039062 82.5 114.199219 82.679688 113.796875 83.3125 C 107.679688 92.828125 95.128906 95.757812 85.460938 90.082031 C 86.101562 88.820312 86.390625 87.40625 86.230469 85.949219 C 86.148438 85.207031 85.476562 84.671875 84.734375 84.753906 C 83.992188 84.832031 83.453125 85.503906 83.535156 86.246094 C 83.8125 88.753906 81.96875 91.117188 79.054688 91.992188 C 78.34375 92.207031 77.929688 92.960938 78.148438 93.679688 C 78.363281 94.394531 79.117188 94.800781 79.832031 94.585938 C 80.15625 94.488281 80.46875 94.378906 80.773438 94.253906 C 81.964844 93.769531 83 93.085938 83.84375 92.265625 C 90.476562 96.265625 98.34375 96.648438 105.066406 93.917969 C 109.441406 92.136719 113.332031 89.042969 116.074219 84.773438 C 116.480469 84.144531 116.296875 83.308594 115.667969 82.902344 Z M 115.667969 82.902344 " fill-opacity="1" fill-rule="nonzero"/></g></g></g><g clip-path="url(#d1de0a65be)"><g clip-path="url(#4b0a01a6ce)"><g clip-path="url(#49b75eb3ca)"><path fill="#ff652d" d="M 197.328125 41.652344 C 198.730469 42.742188 200.074219 43.902344 201.363281 45.125 C 202.652344 46.347656 203.875 47.628906 205.039062 48.972656 C 206.199219 50.316406 207.292969 51.710938 208.316406 53.164062 C 209.339844 54.613281 210.292969 56.109375 211.167969 57.65625 C 212.046875 59.199219 212.847656 60.78125 213.570312 62.40625 C 214.289062 64.027344 214.929688 65.679688 215.492188 67.367188 C 216.050781 69.050781 216.523438 70.761719 216.917969 72.492188 C 217.308594 74.226562 217.613281 75.972656 217.832031 77.734375 C 218.054688 79.496094 218.1875 81.265625 218.230469 83.042969 C 218.277344 84.816406 218.238281 86.589844 218.109375 88.359375 C 217.980469 90.132812 217.765625 91.894531 217.464844 93.644531 C 217.164062 95.394531 216.777344 97.125 216.304688 98.835938 C 215.835938 100.546875 215.28125 102.234375 214.644531 103.890625 C 214.007812 105.550781 213.289062 107.171875 212.492188 108.757812 C 211.699219 110.347656 210.824219 111.890625 209.878906 113.390625 C 208.929688 114.894531 207.910156 116.34375 206.820312 117.746094 C 205.726562 119.148438 204.570312 120.492188 203.347656 121.78125 C 202.125 123.070312 200.84375 124.292969 199.5 125.457031 C 198.15625 126.617188 196.761719 127.710938 195.308594 128.734375 C 193.859375 129.757812 192.363281 130.710938 190.816406 131.589844 C 189.273438 132.464844 187.691406 133.265625 186.066406 133.988281 C 184.445312 134.707031 182.792969 135.347656 181.105469 135.910156 C 179.421875 136.46875 177.710938 136.945312 175.980469 137.335938 C 174.246094 137.726562 172.5 138.03125 170.738281 138.25 C 168.976562 138.472656 167.207031 138.605469 165.429688 138.652344 C 163.65625 138.695312 161.882812 138.65625 160.113281 138.527344 C 158.339844 138.398438 156.578125 138.183594 154.828125 137.882812 C 153.078125 137.582031 151.347656 137.195312 149.636719 136.722656 C 147.925781 136.253906 146.238281 135.699219 144.582031 135.0625 C 142.921875 134.425781 141.300781 133.707031 139.714844 132.910156 C 138.125 132.117188 136.582031 131.242188 135.078125 130.296875 C 133.578125 129.347656 132.125 128.328125 130.726562 127.238281 C 129.324219 126.148438 127.980469 124.988281 126.691406 123.765625 C 125.402344 122.542969 124.179688 121.261719 123.015625 119.917969 C 121.855469 118.574219 120.761719 117.179688 119.738281 115.726562 C 118.710938 114.277344 117.761719 112.78125 116.882812 111.234375 C 116.007812 109.691406 115.207031 108.109375 114.484375 106.484375 C 113.765625 104.863281 113.125 103.210938 112.5625 101.523438 C 112.003906 99.839844 111.527344 98.128906 111.136719 96.398438 C 110.746094 94.664062 110.441406 92.917969 110.222656 91.15625 C 110 89.394531 109.867188 87.625 109.820312 85.847656 C 109.777344 84.074219 109.816406 82.300781 109.945312 80.53125 C 110.074219 78.757812 110.289062 76.996094 110.589844 75.246094 C 110.890625 73.496094 111.277344 71.765625 111.75 70.054688 C 112.21875 68.34375 112.773438 66.65625 113.410156 65 C 114.046875 63.339844 114.765625 61.71875 115.5625 60.132812 C 116.355469 58.542969 117.230469 57 118.175781 55.5 C 119.125 53.996094 120.144531 52.542969 121.234375 51.144531 C 122.324219 49.742188 123.484375 48.398438 124.707031 47.109375 C 125.929688 45.820312 127.210938 44.597656 128.554688 43.433594 C 129.898438 42.273438 131.292969 41.179688 132.746094 40.15625 C 134.195312 39.132812 135.691406 38.179688 137.238281 37.300781 C 138.78125 36.425781 140.363281 35.625 141.988281 34.902344 C 143.609375 34.183594 145.261719 33.542969 146.949219 32.980469 C 148.632812 32.421875 150.34375 31.945312 152.074219 31.554688 C 153.808594 31.164062 155.554688 30.859375 157.316406 30.640625 C 159.078125 30.417969 160.847656 30.285156 162.621094 30.238281 C 164.398438 30.195312 166.171875 30.234375 167.941406 30.363281 C 169.714844 30.492188 171.476562 30.707031 173.226562 31.007812 C 174.976562 31.308594 176.707031 31.695312 178.417969 32.167969 C 180.128906 32.636719 181.816406 33.191406 183.472656 33.828125 C 185.132812 34.464844 186.753906 35.183594 188.339844 35.980469 C 189.929688 36.773438 191.472656 37.648438 192.972656 38.59375 C 194.476562 39.542969 195.925781 40.5625 197.328125 41.652344 Z M 197.328125 41.652344 " fill-opacity="1" fill-rule="nonzero"/></g></g></g><g clip-path="url(#fc9187ad34)"><g clip-path="url(#30a772772c)"><g clip-path="url(#9104216d7b)"><path fill="#fffff7" d="M 188.980469 38.808594 C 214.183594 52.589844 223.445312 84.195312 209.660156 109.398438 C 195.878906 134.605469 164.273438 143.863281 139.070312 130.078125 C 113.867188 116.296875 104.609375 84.691406 118.390625 59.488281 C 132.171875 34.285156 163.777344 25.027344 188.980469 38.808594 M 191.101562 34.929688 C 177.875 27.699219 162.625 26.046875 148.160156 30.285156 C 133.695312 34.523438 121.746094 44.140625 114.511719 57.367188 C 107.28125 70.59375 105.628906 85.84375 109.867188 100.308594 C 114.105469 114.773438 123.722656 126.726562 136.949219 133.957031 C 150.175781 141.191406 165.425781 142.839844 179.890625 138.601562 C 194.355469 134.363281 206.308594 124.746094 213.539062 111.519531 C 220.773438 98.292969 222.421875 83.042969 218.183594 68.578125 C 213.945312 54.113281 204.328125 42.164062 191.101562 34.929688 Z M 191.101562 34.929688 " fill-opacity="1" fill-rule="nonzero"/></g></g></g><g clip-path="url(#a6e0c90c2a)"><g clip-path="url(#b136a1360c)"><g clip-path="url(#06686cb5ca)"><path fill="#000000" d="M 163.734375 67.285156 C 163.769531 67.679688 163.996094 68.03125 164.347656 68.222656 C 164.546875 68.332031 164.777344 68.382812 165.007812 68.363281 C 165.65625 68.3125 166.140625 67.742188 166.085938 67.09375 L 164.183594 43.453125 C 164.15625 43.136719 164.011719 42.851562 163.773438 42.648438 C 163.53125 42.445312 163.226562 42.34375 162.914062 42.371094 C 162.265625 42.421875 161.78125 42.992188 161.832031 43.640625 Z M 163.734375 67.285156 " fill-opacity="1" fill-rule="nonzero"/></g></g></g><g clip-path="url(#c48a0ee5d3)"><g clip-path="url(#88c319e108)"><g clip-path="url(#686f42c31b)"><path fill="#000000" d="M 173.507812 48.789062 C 173.585938 48.140625 173.121094 47.554688 172.476562 47.476562 C 172.164062 47.441406 171.855469 47.527344 171.609375 47.722656 C 171.359375 47.917969 171.203125 48.195312 171.167969 48.507812 L 169.214844 64.980469 C 169.15625 65.460938 169.394531 65.921875 169.820312 66.152344 C 169.953125 66.226562 170.09375 66.269531 170.246094 66.289062 C 170.558594 66.324219 170.867188 66.238281 171.113281 66.042969 C 171.363281 65.847656 171.519531 65.570312 171.554688 65.257812 Z M 173.507812 48.789062 " fill-opacity="1" fill-rule="nonzero"/></g></g></g><g clip-path="url(#d8475e99df)"><g clip-path="url(#74d74c95bd)"><g clip-path="url(#01268b4540)"><path fill="#000000" d="M 177.035156 74.941406 C 177.144531 75.144531 177.308594 75.3125 177.507812 75.421875 C 177.859375 75.613281 178.277344 75.613281 178.628906 75.425781 L 199.5625 64.273438 C 200.136719 63.96875 200.355469 63.25 200.050781 62.679688 C 199.742188 62.105469 199.027344 61.886719 198.453125 62.191406 L 177.519531 73.347656 C 176.945312 73.652344 176.730469 74.367188 177.035156 74.941406 Z M 177.035156 74.941406 " fill-opacity="1" fill-rule="nonzero"/></g></g></g><g clip-path="url(#dbed26d889)"><g clip-path="url(#8ca2f195d6)"><g clip-path="url(#c05cb38db4)"><path fill="#000000" d="M 176.300781 69.695312 C 176.726562 69.929688 177.242188 69.878906 177.613281 69.574219 L 190.425781 59.042969 C 190.929688 58.628906 191 57.882812 190.589844 57.382812 C 190.175781 56.878906 189.429688 56.808594 188.929688 57.21875 L 176.117188 67.75 C 175.617188 68.164062 175.542969 68.910156 175.957031 69.410156 C 176.050781 69.527344 176.167969 69.625 176.300781 69.695312 Z M 176.300781 69.695312 " fill-opacity="1" fill-rule="nonzero"/></g></g></g><g clip-path="url(#6931d603cc)"><g clip-path="url(#04f6b1c52a)"><g clip-path="url(#6e09b8a638)"><path fill="#000000" d="M 157.246094 81.472656 C 155.148438 80.113281 152.589844 79.792969 149.84375 80.550781 C 151.695312 76.546875 155.484375 68.328125 156.34375 66.316406 C 157.644531 63.257812 157.050781 60.539062 154.824219 59.410156 C 154.824219 59.410156 154.824219 59.410156 154.820312 59.410156 C 154.59375 59.285156 153.867188 58.929688 152.914062 58.875 L 153.289062 58.039062 C 153.566406 57.417969 153.722656 56.789062 153.757812 56.175781 C 153.851562 54.390625 153.007812 52.988281 151.390625 52.226562 C 149.847656 51.496094 148.234375 51.769531 146.851562 52.996094 C 146.210938 53.5625 145.703125 54.28125 145.339844 55.132812 C 144.832031 54.585938 144.164062 54.179688 143.375 53.949219 C 140.34375 53.050781 138.640625 55.167969 138.164062 56.402344 L 137.867188 57.105469 C 137.476562 56.648438 136.953125 56.28125 136.3125 56.011719 C 135.355469 55.613281 134.390625 55.601562 133.527344 55.980469 C 131.980469 56.664062 131.289062 58.347656 131.167969 58.667969 L 123.671875 76.621094 C 122.957031 78.328125 122.617188 80.132812 122.65625 81.988281 L 122.804688 88.898438 C 122.8125 89.320312 123.050781 89.707031 123.417969 89.910156 C 123.597656 90.007812 123.804688 90.058594 124.011719 90.050781 C 124.660156 90.039062 125.175781 89.5 125.164062 88.847656 L 125.011719 81.9375 C 124.980469 80.414062 125.261719 78.933594 125.847656 77.527344 L 133.355469 59.550781 L 133.375 59.5 C 133.496094 59.164062 133.925781 58.382812 134.480469 58.140625 C 134.746094 58.019531 135.039062 58.035156 135.402344 58.1875 C 135.839844 58.371094 136.867188 58.800781 136.089844 61.035156 C 135.960938 61.40625 133.976562 66.140625 132.066406 70.667969 C 132.0625 70.675781 132.058594 70.6875 132.054688 70.699219 L 131.898438 71.066406 C 131.40625 70.863281 131.175781 70.691406 131.171875 70.6875 C 130.679688 70.28125 129.9375 70.347656 129.523438 70.839844 C 129.105469 71.335938 129.167969 72.078125 129.664062 72.5 C 129.71875 72.546875 129.925781 72.714844 130.3125 72.925781 C 130.753906 73.167969 131.265625 73.375 131.828125 73.546875 C 133.59375 74.078125 135.703125 74.1875 138.097656 73.875 C 142.871094 73.246094 145.773438 74.933594 145.890625 75 C 146.15625 75.167969 146.472656 75.21875 146.777344 75.148438 C 147.085938 75.078125 147.347656 74.894531 147.515625 74.625 C 147.859375 74.074219 147.691406 73.347656 147.140625 73 C 147.109375 72.980469 146.960938 72.890625 146.707031 72.761719 L 151.625 61.757812 C 152.355469 60.824219 153.480469 61.363281 153.710938 61.488281 C 153.714844 61.492188 153.734375 61.5 153.738281 61.503906 C 154.789062 62.03125 154.96875 63.527344 154.171875 65.390625 C 153.148438 67.796875 147.652344 79.679688 146.75 81.625 C 142.789062 79.671875 139.589844 80.609375 137.585938 81.757812 C 135.289062 83.070312 134.003906 84.972656 133.949219 85.054688 C 133.589844 85.59375 133.734375 86.328125 134.273438 86.6875 C 134.8125 87.046875 135.546875 86.902344 135.910156 86.367188 C 136.074219 86.121094 140.027344 80.402344 146.394531 84.105469 C 146.785156 84.335938 147.273438 84.316406 147.648438 84.0625 C 147.691406 84.035156 152.238281 81.039062 155.964844 83.449219 C 157.199219 84.25 157.421875 84.789062 157.460938 84.980469 C 157.472656 85.042969 157.5 85.183594 157.332031 85.421875 C 157.058594 85.816406 156.5625 86.039062 156.035156 86 C 153.996094 85.863281 150.386719 86.003906 149.089844 88.484375 L 148.988281 88.679688 C 148.136719 90.308594 147.078125 92.339844 146.59375 92.480469 C 146.515625 92.503906 146.40625 92.535156 146.277344 92.570312 L 146.238281 92.582031 C 143.304688 93.394531 139.796875 94.5625 138.683594 96.402344 C 135.34375 101.917969 133.238281 107.867188 133.148438 108.117188 C 132.957031 108.664062 133.1875 109.261719 133.695312 109.542969 C 133.75 109.570312 133.808594 109.597656 133.871094 109.621094 C 134.167969 109.722656 134.488281 109.707031 134.773438 109.570312 C 135.054688 109.433594 135.269531 109.195312 135.375 108.898438 C 135.394531 108.839844 137.460938 102.976562 140.699219 97.625 C 140.988281 97.148438 142.171875 96.152344 146.867188 94.851562 L 146.90625 94.84375 C 147.050781 94.800781 147.171875 94.769531 147.257812 94.742188 C 148.707031 94.320312 149.597656 92.605469 151.082031 89.769531 L 151.179688 89.578125 C 151.753906 88.480469 153.984375 88.226562 155.878906 88.355469 C 157.222656 88.445312 158.523438 87.839844 159.269531 86.773438 C 159.75 86.078125 159.925781 85.300781 159.777344 84.527344 C 159.558594 83.433594 158.734375 82.433594 157.246094 81.472656 Z M 144.492188 71.933594 C 143.375 71.625 142.1875 71.445312 140.953125 71.390625 L 145.992188 59.976562 C 146.136719 59.644531 146.25 59.300781 146.320312 58.949219 L 147.484375 56.113281 C 147.710938 55.5625 148.023438 55.109375 148.414062 54.761719 C 149.398438 53.890625 150.117188 54.230469 150.386719 54.359375 C 151.121094 54.707031 151.445312 55.246094 151.402344 56.050781 C 151.386719 56.375 151.296875 56.722656 151.136719 57.078125 Z M 143.1875 56.40625 C 143.632812 56.648438 143.902344 57.019531 144.015625 57.542969 C 144.066406 57.777344 144.074219 58.03125 144.039062 58.296875 L 142.496094 62.050781 L 138.339844 71.472656 C 138.160156 71.492188 137.976562 71.511719 137.792969 71.535156 C 136.5 71.707031 135.300781 71.734375 134.222656 71.621094 L 140.34375 57.308594 L 140.363281 57.265625 C 140.460938 57 141.035156 55.714844 142.707031 56.210938 C 142.886719 56.261719 143.046875 56.328125 143.1875 56.40625 Z M 153.859375 61.257812 Z M 153.859375 61.257812 " fill-opacity="1" fill-rule="nonzero"/></g></g></g><g clip-path="url(#017725df5b)"><g clip-path="url(#f77638775c)"><g clip-path="url(#95437434cd)"><path fill="#000000" d="M 204.445312 94.761719 C 204.300781 93.832031 203.769531 93.027344 202.917969 92.4375 C 202.34375 92.039062 201.753906 91.800781 201.160156 91.71875 L 201.582031 91.09375 C 202.371094 90.019531 203.234375 87.445312 200.84375 85.375 C 200.222656 84.839844 199.519531 84.492188 198.785156 84.359375 C 199.308594 83.597656 199.636719 82.78125 199.769531 81.9375 C 200.054688 80.109375 199.417969 78.605469 197.96875 77.695312 C 196.457031 76.746094 194.820312 76.796875 193.367188 77.835938 C 192.867188 78.195312 192.421875 78.667969 192.050781 79.238281 L 191.546875 80.003906 C 191.160156 79.46875 190.628906 78.992188 190.070312 78.6875 C 187.90625 77.421875 185.304688 78.386719 183.433594 81.132812 C 182.203125 82.941406 177.328125 90.5625 174.953125 94.285156 C 174.113281 91.566406 172.460938 89.582031 170.183594 88.546875 C 168.574219 87.816406 167.285156 87.660156 166.25 88.070312 C 165.515625 88.359375 164.957031 88.925781 164.632812 89.710938 C 164.136719 90.910156 164.328125 92.332031 165.128906 93.417969 C 166.261719 94.941406 167.25 96.957031 166.636719 98.03125 L 166.527344 98.21875 C 164.9375 100.996094 163.976562 102.671875 164.402344 104.121094 C 164.425781 104.207031 164.464844 104.324219 164.507812 104.464844 L 164.519531 104.507812 C 165.957031 109.160156 165.761719 110.695312 165.515625 111.195312 C 162.777344 116.773438 158.933594 121.714844 158.898438 121.761719 C 158.496094 122.277344 158.589844 123.019531 159.101562 123.417969 C 159.152344 123.457031 159.207031 123.492188 159.261719 123.523438 C 159.769531 123.800781 160.398438 123.671875 160.753906 123.214844 C 160.917969 123.007812 164.785156 118.03125 167.632812 112.238281 C 168.582031 110.304688 167.671875 106.71875 166.769531 103.792969 C 166.726562 103.65625 166.691406 103.542969 166.664062 103.457031 C 166.523438 102.972656 167.660156 100.988281 168.574219 99.390625 L 168.683594 99.203125 C 170.074219 96.769531 168.242188 93.652344 167.027344 92.011719 C 166.710938 91.589844 166.628906 91.050781 166.8125 90.609375 C 166.925781 90.339844 167.058594 90.285156 167.117188 90.261719 C 167.300781 90.191406 167.871094 90.085938 169.210938 90.695312 C 170.875 91.453125 172.046875 92.886719 172.695312 94.960938 C 173.203125 96.589844 173.183594 98.015625 173.183594 98.03125 C 173.171875 98.484375 173.417969 98.898438 173.824219 99.109375 C 180.386719 102.472656 177.695312 108.886719 177.578125 109.152344 C 177.453125 109.441406 177.449219 109.761719 177.5625 110.054688 C 177.679688 110.347656 177.898438 110.578125 178.1875 110.703125 C 178.78125 110.964844 179.480469 110.691406 179.742188 110.097656 C 179.777344 110.007812 180.6875 107.898438 180.554688 105.253906 C 180.441406 102.949219 179.503906 99.75 175.71875 97.46875 C 176.871094 95.660156 183.910156 84.621094 185.382812 82.460938 C 186.523438 80.785156 187.867188 80.125 188.894531 80.730469 L 188.925781 80.746094 C 189.234375 80.917969 190.199219 81.550781 189.816406 82.640625 L 183.207031 92.722656 C 182.949219 92.570312 182.789062 92.492188 182.769531 92.484375 C 182.183594 92.207031 181.480469 92.460938 181.203125 93.042969 C 180.925781 93.628906 181.179688 94.335938 181.753906 94.613281 C 181.882812 94.675781 184.875 96.230469 186.914062 100.566406 C 188.734375 104.4375 190.839844 106.023438 191.9375 106.621094 C 192.324219 106.832031 192.578125 106.914062 192.625 106.929688 C 193.246094 107.121094 193.90625 106.773438 194.097656 106.152344 C 194.191406 105.851562 194.160156 105.53125 194.015625 105.253906 C 193.867188 104.972656 193.621094 104.769531 193.324219 104.679688 C 193.324219 104.679688 193.054688 104.582031 192.621094 104.277344 L 192.847656 103.949219 C 192.851562 103.945312 192.851562 103.941406 192.855469 103.9375 L 192.878906 103.902344 C 195.453125 100.152344 198.550781 95.65625 198.8125 95.324219 C 200.265625 93.472656 201.183594 94.105469 201.578125 94.375 C 201.898438 94.597656 202.066406 94.832031 202.113281 95.121094 C 202.214844 95.753906 201.738281 96.558594 201.554688 96.800781 L 190.449219 112.855469 C 189.582031 114.105469 188.484375 115.144531 187.1875 115.9375 L 181.285156 119.539062 C 181.019531 119.703125 180.828125 119.964844 180.753906 120.269531 C 180.679688 120.574219 180.730469 120.890625 180.894531 121.160156 C 181.003906 121.335938 181.15625 121.480469 181.335938 121.582031 C 181.703125 121.78125 182.15625 121.773438 182.515625 121.550781 L 188.417969 117.949219 C 189.996094 116.984375 191.332031 115.722656 192.386719 114.195312 L 203.449219 98.207031 C 203.660156 97.925781 204.707031 96.4375 204.445312 94.761719 Z M 199.300781 87.160156 C 200.566406 88.253906 199.90625 89.382812 199.671875 89.710938 L 190.925781 102.582031 L 190.902344 102.617188 C 190.226562 101.773438 189.605469 100.75 189.050781 99.566406 C 188.96875 99.398438 188.886719 99.234375 188.804688 99.070312 L 194.492188 90.488281 L 196.824219 87.164062 C 197.027344 86.988281 197.246094 86.859375 197.472656 86.777344 C 198.132812 86.53125 198.714844 86.652344 199.300781 87.160156 Z M 191.863281 83.824219 C 191.863281 83.824219 191.863281 83.824219 191.863281 83.820312 L 194.023438 80.527344 C 194.234375 80.203125 194.476562 79.941406 194.742188 79.753906 C 195.398438 79.28125 196.027344 79.261719 196.714844 79.691406 C 196.96875 79.851562 197.644531 80.273438 197.441406 81.570312 C 197.359375 82.085938 197.144531 82.59375 196.800781 83.082031 L 195.042969 85.59375 C 194.789062 85.84375 194.558594 86.121094 194.359375 86.421875 L 187.464844 96.824219 C 186.757812 95.816406 185.960938 94.914062 185.097656 94.136719 Z M 191.863281 83.824219 " fill-opacity="1" fill-rule="nonzero"/></g></g></g></svg>